<svg xmlns="http://www.w3.org/2000/svg" viewBox="0 0 24 24" fill="currentColor"><path d="M16.84 7.7h-3.955l-3.26 3.245a1 1 0 0 1-1.41 0L1 3.75A1 1 0 0 0 .965 4v10a1 1 0 0 0 1 1h14a1 1 0 0 0 1-1V7.69l-.125.01zM2.65 14h-.695v-.715L5.59 9.68l.705.705L2.65 14zm13.305 0h-.7l-3.645-3.615.705-.705 3.635 3.605.005.715zM11.47 7.7h-.35A1.84 1.84 0 0 1 9.5 4.945L10.645 3H1.96a1 1 0 0 0-.265.04l7.225 7.195L11.47 7.7zM13.425.57l-2.86 4.93a.64.64 0 0 0 .55 1h5.725a.64.64 0 0 0 .55-1L14.53.57a.64.64 0 0 0-1.106 0h0z"/></svg>