<svg xmlns="http://www.w3.org/2000/svg" fill="currentColor" viewBox="0 0 18 18"><path d="M16.84 7.7h-3.955l-3.26 3.245a1 1 0 01-1.41 0L1 3.75A1 1 0 00.965 4v10a1 1 0 001 1h14a1 1 0 001-1V7.69l-.125.01zM2.65 14h-.695v-.715L5.59 9.68l.705.705L2.65 14zm13.305 0h-.7l-3.645-3.615.705-.705 3.635 3.605.005.715z"/><path d="M11.47 7.7h-.35A1.84 1.84 0 019.5 4.945L10.645 3H1.96a1 1 0 00-.265.04l7.225 7.195L11.47 7.7z"/><path fill="#31C48D" d="M13.425.57l-2.86 4.93a.64.64 0 00.55 1h5.725a.64.64 0 00.55-1L14.53.57a.64.64 0 00-1.105 0z"/></svg>
