<svg xmlns="http://www.w3.org/2000/svg" width="2560" height="1440" fill="none"  xmlns:v="https://vecta.io/nano"><path fill="#fff" d="M5 5h2550v1430H5z"/><path d="M347.152 672v-99.36h20.736V672h-20.736zm42.857 0v-76.032h86.688c15.552 0 23.328 7.776 23.328 23.328V672h-19.872v-54.144c0-3.072-1.536-4.608-4.608-4.608h-20.592V672h-19.872v-58.752h-25.2V672h-19.872zm149.514 0c-15.552 0-23.328-7.632-23.328-22.896s7.776-22.896 23.328-22.896h19.872v-8.352c0-3.072-1.536-4.608-4.608-4.608h-30.528v-10.8l8.64-6.48h23.04c15.552 0 23.328 7.776 23.328 23.328V672h-39.744zm-3.456-21.888c0 3.072 1.536 4.608 4.608 4.608h18.72v-12.96h-18.72c-3.072 0-4.608 1.536-4.608 4.608v3.744zm61.604-1.44v-29.376c0-15.552 7.776-23.328 23.328-23.328h42.048v81.504c0 15.552-7.776 23.328-23.328 23.328h-26.928l-8.64-6.48v-10.8h34.416c3.072 0 4.608-1.536 4.608-4.608V672h-22.176c-15.552 0-23.328-7.776-23.328-23.328zm19.872 1.44c0 3.072 1.536 4.608 4.608 4.608h21.024v-41.472h-21.024c-3.072 0-4.608 1.536-4.608 4.608v32.256zm64.517-1.44v-29.376c0-15.552 7.776-23.328 23.328-23.328h18.72c15.552 0 23.328 7.776 23.328 23.328v22.176h-45.504v8.64c0 3.072 1.536 4.608 4.608 4.608h38.016v10.8l-8.64 6.48h-30.528c-15.552 0-23.328-7.776-23.328-23.328zm19.872-22.752h25.632v-8.064c0-3.072-1.536-4.608-4.608-4.608H706.54c-3.072 0-4.608 1.536-4.608 4.608v8.064zm98.534 22.752v-29.376c0-15.552 7.776-23.328 23.328-23.328h26.784l8.64 6.48v10.8h-34.272c-3.072 0-4.608 1.536-4.608 4.608v32.256c0 3.072 1.536 4.608 4.608 4.608h34.272v10.8l-8.64 6.48h-26.784c-15.552 0-23.328-7.776-23.328-23.328zm74.531 0v-29.376c0-15.552 7.776-23.328 23.328-23.328h20.16c15.552 0 23.328 7.776 23.328 23.328v29.376c0 15.552-7.776 23.328-23.328 23.328h-20.16c-15.552 0-23.328-7.776-23.328-23.328zm19.872 1.44c0 3.072 1.536 4.608 4.608 4.608h17.856c3.072 0 4.608-1.536 4.608-4.608v-32.256c0-3.072-1.536-4.608-4.608-4.608h-17.856c-3.072 0-4.608 1.536-4.608 4.608v32.256zm65.923-1.44v-52.704h19.872v54.144c0 3.072 1.536 4.608 4.608 4.608h21.028v-58.752h19.87V672h-42.05c-15.552 0-23.328-7.776-23.328-23.328zm85.498-4.32V565.44h19.87v80.928c0 5.952 3.08 9.216 9.22 9.792v17.28c-19.39 0-29.09-9.696-29.09-29.088zm44 4.32v-29.376c0-15.552 7.78-23.328 23.33-23.328h22.18V565.44h19.87V672h-42.05c-15.55 0-23.33-7.776-23.33-23.328zm19.88 1.44c0 3.072 1.53 4.608 4.6 4.608h21.03v-41.472h-21.03c-3.07 0-4.6 1.536-4.6 4.608v32.256zM1210.98 672v-76.032h42.05c15.55 0 23.32 7.776 23.32 23.328V672h-19.87v-54.144c0-3.072-1.53-4.608-4.61-4.608h-21.02V672h-19.87zm84.35-23.328v-29.376c0-15.552 7.77-23.328 23.32-23.328h20.16c15.56 0 23.33 7.776 23.33 23.328v29.376c0 15.552-7.77 23.328-23.33 23.328h-20.16c-15.55 0-23.32-7.776-23.32-23.328zm19.87 1.44c0 3.072 1.53 4.608 4.61 4.608h17.85c3.07 0 4.61-1.536 4.61-4.608v-32.256c0-3.072-1.54-4.608-4.61-4.608h-17.85c-3.08 0-4.61 1.536-4.61 4.608v32.256zm65.92-1.44V572.64h19.87v23.328h24.77v17.28h-24.77v36.864c0 3.072 1.54 4.608 4.61 4.608h21.6v10.8l-8.64 6.48h-14.11c-15.55 0-23.33-7.776-23.33-23.328zm96.2 23.328V565.44h19.87v30.528h22.18c15.55 0 23.33 7.776 23.33 23.328v29.376c0 15.552-7.78 23.328-23.33 23.328h-42.05zm19.87-17.28h21.03c3.07 0 4.61-1.536 4.61-4.608v-32.256c0-3.072-1.54-4.608-4.61-4.608h-21.03v41.472zm63.92-6.048v-29.376c0-15.552 7.77-23.328 23.32-23.328h18.72c15.56 0 23.33 7.776 23.33 23.328v22.176h-45.5v8.64c0 3.072 1.53 4.608 4.61 4.608h38.01v10.8l-8.64 6.48h-30.53c-15.55 0-23.32-7.776-23.32-23.328zm19.87-22.752h25.63v-8.064c0-3.072-1.54-4.608-4.61-4.608h-16.41c-3.08 0-4.61 1.536-4.61 4.608v8.064zm99.11 18.432V565.44h19.87v80.928c0 5.952 3.07 9.216 9.22 9.792v17.28c-19.4 0-29.09-9.696-29.09-29.088zm44 4.32v-29.376c0-15.552 7.78-23.328 23.33-23.328h20.16c15.55 0 23.33 7.776 23.33 23.328v29.376c0 15.552-7.78 23.328-23.33 23.328h-20.16c-15.55 0-23.33-7.776-23.33-23.328zm19.87 1.44c0 3.072 1.54 4.608 4.61 4.608h17.86c3.07 0 4.61-1.536 4.61-4.608v-32.256c0-3.072-1.54-4.608-4.61-4.608h-17.86c-3.07 0-4.61 1.536-4.61 4.608v32.256zm65.35-1.44v-29.376c0-15.552 7.78-23.328 23.33-23.328h26.78l8.64 6.48v10.8h-34.27c-3.07 0-4.61 1.536-4.61 4.608v32.256c0 3.072 1.54 4.608 4.61 4.608h34.27v10.8l-8.64 6.48h-26.78c-15.55 0-23.33-7.776-23.33-23.328zM1904.29 672c-15.55 0-23.33-7.632-23.33-22.896s7.78-22.896 23.33-22.896h19.87v-8.352c0-3.072-1.53-4.608-4.61-4.608h-30.52v-10.8l8.64-6.48h23.04c15.55 0 23.32 7.776 23.32 23.328V672h-39.74zm-3.46-21.888c0 3.072 1.54 4.608 4.61 4.608h18.72v-12.96h-18.72c-3.07 0-4.61 1.536-4.61 4.608v3.744zm62.76-1.44V572.64h19.87v23.328h24.77v17.28h-24.77v36.864c0 3.072 1.54 4.608 4.61 4.608h21.6v10.8l-8.64 6.48h-14.11c-15.56 0-23.33-7.776-23.33-23.328zm60.45 0v-29.376c0-15.552 7.78-23.328 23.33-23.328h18.72c15.55 0 23.33 7.776 23.33 23.328v22.176h-45.5v8.64c0 3.072 1.53 4.608 4.6 4.608h38.02v10.8l-8.64 6.48h-30.53c-15.55 0-23.33-7.776-23.33-23.328zm19.88-22.752h25.63v-8.064c0-3.072-1.54-4.608-4.61-4.608h-16.42c-3.07 0-4.6 1.536-4.6 4.608v8.064zm63.94 22.752v-29.376c0-15.552 7.77-23.328 23.32-23.328h22.18V565.44h19.87V672h-42.05c-15.55 0-23.32-7.776-23.32-23.328zm19.87 1.44c0 3.072 1.53 4.608 4.61 4.608h21.02v-41.472h-21.02c-3.08 0-4.61 1.536-4.61 4.608v32.256zM2192.79 672v-20.736h21.6V672h-21.6zM643.112 771.36v-18.72h81.216v18.72h-30.24V852h-20.736v-80.64h-30.24zM738.196 852V745.44h19.872v30.528h22.176c15.552 0 23.328 7.776 23.328 23.328V852H783.7v-54.144c0-3.072-1.536-4.608-4.608-4.608h-21.024V852h-19.872zm85.212-88.416v-19.296h20.448v19.296h-20.448zm.288 88.416v-76.032h19.872V852h-19.872zm38.049-6.48v-10.8h33.12c3.264 0 4.896-1.824 4.896-5.472 0-3.744-1.44-5.856-4.32-6.336l-15.552-2.592c-12.096-2.016-18.144-9.024-18.144-21.024 0-15.552 7.776-23.328 23.328-23.328h22.32l8.64 6.48v10.8h-29.664c-3.264 0-4.896 1.824-4.896 5.472 0 3.744 1.44 5.856 4.32 6.336l15.552 2.592c12.096 2.016 18.144 9.024 18.144 21.024 0 15.552-7.776 23.328-23.328 23.328h-25.776l-8.64-6.48zm110.023-81.936v-19.296h20.448v19.296h-20.448zm.288 88.416v-76.032h19.872V852h-19.872zm38.044-6.48v-10.8h33.12c3.27 0 4.9-1.824 4.9-5.472 0-3.744-1.44-5.856-4.32-6.336l-15.55-2.592c-12.1-2.016-18.15-9.024-18.15-21.024 0-15.552 7.78-23.328 23.33-23.328h22.32l8.64 6.48v10.8h-29.66c-3.27 0-4.9 1.824-4.9 5.472 0 3.744 1.44 5.856 4.32 6.336l15.55 2.592c12.1 2.016 18.15 9.024 18.15 21.024 0 15.552-7.78 23.328-23.33 23.328h-25.78l-8.64-6.48zm110.31 35.28V775.968h42.05c15.55 0 23.33 7.776 23.33 23.328v29.376c0 15.552-7.78 23.328-23.33 23.328h-22.17v28.8h-19.88zm19.88-46.08h21.02c3.07 0 4.61-1.536 4.61-4.608v-32.256c0-3.072-1.54-4.608-4.61-4.608h-21.02v41.472zm64.49-10.368V745.44h19.87v80.928c0 5.952 3.07 9.216 9.21 9.792v17.28c-19.39 0-29.08-9.696-29.08-29.088zM1269.23 852c-15.56 0-23.33-7.632-23.33-22.896s7.77-22.896 23.33-22.896h19.87v-8.352c0-3.072-1.54-4.608-4.61-4.608h-30.53v-10.8l8.64-6.48h23.04c15.55 0 23.33 7.776 23.33 23.328V852h-39.74zm-3.46-21.888c0 3.072 1.54 4.608 4.61 4.608h18.72v-12.96h-18.72c-3.07 0-4.61 1.536-4.61 4.608v3.744zm62.18-1.44v-29.376c0-15.552 7.78-23.328 23.33-23.328h26.78l8.64 6.48v10.8h-34.27c-3.07 0-4.61 1.536-4.61 4.608v32.256c0 3.072 1.54 4.608 4.61 4.608h34.27v10.8l-8.64 6.48h-26.78c-15.55 0-23.33-7.776-23.33-23.328zm74.53 0v-29.376c0-15.552 7.78-23.328 23.33-23.328h18.72c15.55 0 23.33 7.776 23.33 23.328v22.176h-45.51v8.64c0 3.072 1.54 4.608 4.61 4.608h38.02v10.8l-8.64 6.48h-30.53c-15.55 0-23.33-7.776-23.33-23.328zm19.87-22.752h25.64v-8.064c0-3.072-1.54-4.608-4.61-4.608h-16.42c-3.07 0-4.61 1.536-4.61 4.608v8.064zm65.1 46.08V745.44h19.87v30.528h22.17c15.56 0 23.33 7.776 23.33 23.328V852h-19.87v-54.144c0-3.072-1.54-4.608-4.61-4.608h-21.02V852h-19.87zm84.34-23.328v-29.376c0-15.552 7.78-23.328 23.33-23.328h20.16c15.55 0 23.33 7.776 23.33 23.328v29.376c0 15.552-7.78 23.328-23.33 23.328h-20.16c-15.55 0-23.33-7.776-23.33-23.328zm19.88 1.44c0 3.072 1.53 4.608 4.6 4.608h17.86c3.07 0 4.61-1.536 4.61-4.608v-32.256c0-3.072-1.54-4.608-4.61-4.608h-17.86c-3.07 0-4.6 1.536-4.6 4.608v32.256zm65.92-5.76V745.44h19.87v80.928c0 5.952 3.07 9.216 9.22 9.792v17.28c-19.4 0-29.09-9.696-29.09-29.088zm44 4.32v-29.376c0-15.552 7.78-23.328 23.33-23.328h22.18V745.44h19.87V852h-42.05c-15.55 0-23.33-7.776-23.33-23.328zm19.87 1.44c0 3.072 1.54 4.608 4.61 4.608h21.03v-41.472h-21.03c-3.07 0-4.61 1.536-4.61 4.608v32.256zm65.07-1.44v-29.376c0-15.552 7.77-23.328 23.33-23.328h18.72c15.55 0 23.32 7.776 23.32 23.328v22.176h-45.5v8.64c0 3.072 1.54 4.608 4.61 4.608h38.01v10.8l-8.64 6.48h-30.52c-15.56 0-23.33-7.776-23.33-23.328zm19.87-22.752h25.63v-8.064c0-3.072-1.53-4.608-4.61-4.608h-16.41c-3.07 0-4.61 1.536-4.61 4.608v8.064zm64.52 46.08v-66.24c3.55-6.528 10.37-9.792 20.45-9.792h15.55l8.64 6.48v10.8h-19.44c-2.59 0-4.37.624-5.33 1.872V852h-19.87z" fill="#000"/><path stroke="#000" stroke-width="10" stroke-dasharray="50 25" d="M5 5h2550v1430H5z"/></svg>