<svg xmlns="http://www.w3.org/2000/svg" version="1.0" viewBox="0 0 284 284"><path d="M159 1c-8 1-15 2-23 5l-14 4a47 47 0 0 0-10 3c0-2-15 7-20 10l-8 5-11 3v3c-1 6-1 7-4 11l-3 5-1 1-7 15-2 4-1 4-1 2-1 1v2l-1 2v2l-4 34a470 470 0 0 1-1 23v6l-3-2c-5-4-10 2-10 15-1 11 4 37 6 38l2 1c1 1 3 2 5 1 3 0 3 0 8 15 5 17 11 26 28 43l17 15 15 8 8 2c5 2 9 2 18 2 15-1 21-3 36-13s28-21 34-29a155 155 0 0 0 11-24c1-6 3-6 7-5 3 2 8-3 10-8l2-6v-1l1-2v-1l1-2 2-8c4-16 2-28-4-27l-4 2-2-1 3-18 1-15V90l-3-10c-2-4-3-9-3-14v-7l4-2 5-3c0-2-5-10-11-16a67 67 0 0 0-33-18h-2l-2-1-5-1-10-2 2-5c2-3 2-4 1-5-2-2-9-4-14-5h-9z"/></svg>
