<svg xmlns="http://www.w3.org/2000/svg" width="64" height="64" viewBox="0 0 64 64" fill="none"><title>Page Logo</title><path fill="url(#A)" d="M0 0h64v64H0z"/><path d="M16.76 46.546c-1.604-1.604-2.673-3.476-3.208-5.614a13.78 13.78 0 0 1 .089-6.417c.594-2.14 1.708-4.025 3.342-5.66l2.05-2.05c.15-.148.297-.148.446 0l4.99 4.99c.12.12.104.253-.045.4l-2.05 2.05c-.98.98-1.5 2.154-1.56 3.52-.03 1.337.416 2.466 1.337 3.387s2.065 1.352 3.43 1.292 2.525-.564 3.476-1.515c1.1-1.1 1.337-2.763.713-4.99l-.98-3.476L27.544 28c-.683-2.584-.713-4.99-.09-7.218.683-2.228 1.93-4.248 3.743-6.06 1.664-1.663 3.55-2.748 5.66-3.253 2.14-.535 4.248-.535 6.327 0a12.01 12.01 0 0 1 5.481 3.164c1.574 1.574 2.614 3.416 3.12 5.525a12.03 12.03 0 0 1 0 6.327c-.505 2.11-1.574 3.98-3.208 5.614l-3.654 3.654a.22.22 0 0 1-.356 0l-4.99-4.99a.22.22 0 0 1 0-.357l3.61-3.698c1.04-1.04 1.56-2.213 1.56-3.52S44.3 20.79 43.407 19.9c-.92-.92-2.065-1.352-3.43-1.292-1.337.03-2.48.52-3.43 1.47-.98.98-1.59 2.005-1.827 3.075s-.104 2.45.4 4.144l.357 1.337c.238.653.46 1.38.668 2.183l.624 2.05.356 1.158c.654 2.317.802 4.515.446 6.595-.327 2.05-1.366 3.95-3.12 5.703-1.693 1.693-3.624 2.822-5.793 3.386-2.11.564-4.233.58-6.372.045-2.08-.535-3.92-1.604-5.525-3.208z" fill="#fff"/><defs><radialGradient id="A" cx="0" cy="0" r="1" gradientUnits="userSpaceOnUse" gradientTransform="translate(32 32) rotate(90) scale(75.6923)"><stop/><stop offset="1" stop-color="#fff"/></radialGradient></defs></svg>
