<svg xmlns="http://www.w3.org/2000/svg" viewBox="0 0 260 260" width="260" height="260"><path fill-rule="evenodd" d="M30 20c-5.523 0-10 4.477-10 10v200c0 5.523 4.477 10 10 10h200a10 10 0 0 0 10-10V30c0-5.523-4.477-10-10-10H30zm10 100V40h80v30H80c-5.523 0-10 4.477-10 10v40H40zm30 20H40v80h80v-30H80c-5.523 0-10-4.477-10-10v-40zm50 30H90v-30h30v30zm20 20v30h80v-80h-30v40a10 10 0 0 1-10 10h-40zm30-50v30h-30v-30h30zm20-20h30V40h-80v30h40c5.523 0 10 4.477 10 10v40zm-50-30h30v30h-30V90zm-20 0v30H90V90h30z" /></svg>
