<svg xmlns="http://www.w3.org/2000/svg" width="260" height="260" fill="none"><path fill-rule="evenodd" d="M90 90h30v30H90V90zm50 30h30V90h-30v30zm0-50h40c5.523 0 10 4.477 10 10v40h30V40h-80v30zm-10-50H30c-5.523 0-10 4.477-10 10v200c0 5.523 4.477 10 10 10h200a10 10 0 0 0 10-10V30c0-5.523-4.477-10-10-10H130zm-10 20v30H80c-5.523 0-10 4.477-10 10v40H40V40h80zM70 140H40v80h80v-30H80c-5.523 0-10-4.477-10-10v-40zm50 30H90v-30h30v30zm20-30v30h30v-30h-30zm0 50v30h80v-80h-30v40a10 10 0 0 1-10 10h-40z" fill="#1d4ed8"/></svg>
