<svg xmlns="http://www.w3.org/2000/svg" viewBox="0 0 818 715" width="818" height="715" fill="none"><style><![CDATA[.B{color-interpolation-filters:sRGB}.C{flood-opacity:0}]]></style><g filter="url(#A)"><path d="M409 655L59 55H759L409 655Z" stroke="url(#D)" stroke-width="10"/></g><path d="M109 83L409.3 603L709.6 83H109Z" fill="#000" stroke="url(#E)" stroke-width="15"/><g filter="url(#B)"><path d="M170.962 324.7l-.15-.3h.15v.3l.3-.3c1.05-.45 2.4-2.55 3.15-3.6-.15-.45 0-1.05.45-1.35 0-.6-.45-1.2-1.05-1.05.3-.6 2.25-3.6 2.25-3.75l.15-.45a1.69 1.69 0 0 0 .45-1.65l1.8.3.45-1.2c.15 0 .15-.45 0-.45.45 0 1.2-.15 1.5-.6l.3-.15c0 .15.3 1.2.6 1.2.15 0 0-.3 0-.45.15 0 .6 0 .6-.15 0-.3-.9-.75-1.2-.9.6-1.65.75-2.7 1.8-4.05 0-.45 0-1.2.45-1.5 0-1.2-1.2-.45-1.2-1.2.75-1.2 1.35-2.55 2.25-3.75.6 0 1.2-.45 1.5-1.05l-.15-.3c0-.3.3-.3.6-.3l.15.6-1.05 1.65c0 .6-.45 1.05-1.05.9 0 .75-.15 1.5-1.05 1.5l.6 1.05c0-.15 0-.3.3-.3s1.05 1.05 1.35 1.35l-.45.6c.3 1.95-2.7-.15-1.95 5.55l-3.15 3.3-1.65.75.45.75c0 .75-1.2.3-1.5.15l-2.1 1.95.45.9c0-.15 0-.3.15-.3.6 0 1.05.9 1.35 1.2l-.45.45c0 .15-1.2 3.45-1.35 3.75l-1.5.45.9.6c0 .15-.3.6-.6.45 0 .15.15.45 0 .45s-.45-1.2-.45-1.5c-1.2 1.2-2.25 2.55-3.15 3.9l-.9.6-.9 1.35.6.75c.15 0 1.35.6 1.35.9l-.45.45c.15.9-.9 1.5-.9 2.4s-.75 1.35-.6 2.25c-.45 1.2-1.2 2.7-2.25 3.6v.3c0 .45-.3.75-.75.75 0 .45-.15 1.2-.45 1.5l.15.45c0 .15-.15.45-.3.45l.15 1.05-.6 1.2c0 .15 0 .45.15.45 1.05 0 4.8-7.5 5.25-8.4l1.35.3c.75-1.35 1.95-2.7 2.4-4.2l-.75-.6.45-1.2 1.05-1.05v-.3c0-.45.6.3.75.45.9 0 .9-.6 1.65-.6l-.75-.75.3-1.8.15-.15.6-1.95.75.3.45-.9v1.35l-.9.15.3 1.05c.3 0 .45.15.45.3 0 1.2-.9 2.25-1.2 3.3l-1.8 1.5-.45.9v1.8c.15 0 .45 0 .45.3s-.3.45-.45.75c1.2 0-.9 1.35-1.5 1.35l-.3 1.05 1.2.45 1.35-.6v-.3c0-1.2.75-1.8 1.8-2.25l-1.05-.75 1.2.6v.15l.75-.3c0-.75.3-2.25 1.35-2.25 0-.9.9-1.8 1.65-2.25 0-1.5 1.65 0 1.65-3.6l.9-.9.45-1.35 1.35-.45c1.05-1.5 1.8-3.15 2.7-4.65l-.15-.9.15-.3c0-1.8 2.25.6 2.25-3.45.3-.3.9-.75 1.05-1.2l.6.6v.3c0 .3-.3.3-.45.15l-.6 1.2c-.75.45-.3 1.65-.6 2.4 0 .15 0 .75.3.75.9 0 3-5.7 3-5.7v-.3c0-.45.45-.6.75-.6l-.15-.6c0-.3.15-.75.45-1.05 0-.45.45-1.05.45-1.5l-.15-.15.9-1.35.6.45c.3.75-.6 1.35-.6 2.1 0 .3.3.15.45.15l-.15 1.8.9.6-.3 1.35c-.75.15-.45.3-.45.9 0 .15-.15.3-.45.3l-.6 1.05v.3c0 1.35-1.2 2.4-1.2 3.75l-.45.45.15 1.05.9-.45 1.5-2.25v-.45c0-.75.3-1.5.15-2.25l1.05-.9v-.3c0-.45.15-.9.45-1.2l1.2-.15.15-2.1v-.45c0-.3.15-.6.45-.75l.45-1.95c1.05-.45 1.35 0 1.35-.9 0-.3.15-.3.3-.3.6-.9.9-1.65.9-2.7 0-.9.9-1.35.9-2.25l2.7-6.3c.6-.45.75-1.2.75-1.95 0-.6.6-2.55 1.35-2.55v-.3c0-.6.45-1.05 1.05-1.05v-.3c0-2.25 2.4-4.8 3.3-6.75h1.2v-.45h1.8l.3-.6h4.65c.75-.75 0-.6 1.35-.6.3-.45.9-.6 1.35-.6v-.45c0-.45.15-.9.6-.9-.15.45.3.75.75.75.75 0 3-.9 3-1.8.3-.15 1.65-.9 1.65-1.35 0-.3-.6-.3-.75-.3-.75 0-4.2.6-4.5 1.05 0 .9-3.15.6-3.45.6l-1.95.9c-1.35 0-3.6-.6-3.6 1.05 0 .75-1.35.45-1.8.45.75-.6 1.2-1.5 1.5-2.4 1.35.15 2.55.6 3.9.45.45-.45.45-1.2.45-1.65l1.95-.6v-.45c0-.15 0-.6.3-.6.75 0 1.2.9 1.8.9v-.15l1.95-.45-.6-1.5 1.65.15c.3.15.75.6.75.9s-1.05 0-1.05.45c0 .3.6.75.9.9 2.7 0 2.85-1.35 3.45-3.6 1.2 0 1.35 1.2.9 2.1 1.35-.45 2.7-1.5 4.2-1.5.3 0 1.05.15 1.05-.45v-.6l-2.85 1.05c-.75 0-.45.6-1.2.6 0-.45 0-1.35.45-1.65h-1.05c-.6 0-.9-.3-.9-.9 0-1.05.15-1.05 1.2-1.05.6-.6 1.5-1.2 2.4-1.2.15-.3 1.2-1.95 1.2-.6 1.2 0 2.55-.6 3.75-1.05l.75.15c.45 0 1.05-.15 1.05-.75.75 0 1.05.6 1.95.6 0-1.05 1.5-.6 2.1-.6v-.3c0-.75 3.6-1.35 4.5-1.35 0-.45.6-.6.9-.6.45 0 1.2.15 1.5.6-1.2.75-3.9 1.2-4.2 1.65l-.75-.15c-.45 0-1.05.15-1.05.6l-1.8.15-.6 1.65-3.15 1.05c0 1.05-2.4.9-2.4 1.95 0 .45.3.9.75.9.6 0 1.35-.9 1.8-1.35h2.7l-.3 1.5c.15.45.45.6.9.6.6 0 1.2-.15 1.65-.45-.15-1.2-.3-1.05-1.5-1.05 0-.6 3.15-2.55 4.35-2.55l1.2-1.2h1.65c0-.75-.6-.6-.6-1.5 0-.15.15-.3.3-.3.45 0 .9.45 1.2.75.75 0 1.05-.6 1.8-.6v-.3c0-.45.6-.6 1.05-.45l1.95-1.5c.75 0 .3.6.3 1.05l.15.45 1.95-.3.9-1.2 1.65-.3c0-.9-.75-1.5-.75-3.15l-.6-.15-2.4 2.4c-.3 0-1.65 0-1.65-.6.3-.45 1.05-.6 1.65-.6-.3-.15-.6-.6-.6-.9 0-.6 1.5 0 1.5-.9.9 0 .75-.6 1.5-.6l.75-1.2c1.65-.6 3.3-1.35 4.8-2.25 0-.45.6-.6.9-.6l.75-.6v.6l-1.2 1.2c-.15 0-.6 0-.6.15 0 .3.3.6.6.75v.15s0 .15-.15.15c-.45 0-.6-.75-1.05-.75-.15 0-.15.15-.15.3-1.05 2.25-.75 1.5-1.65 1.5-.3 0-.6.45-.75.6-.15.9-.3 1.95-.3 2.85 0 .45 0 .75.6.75h.45l1.2-1.2 1.95-.45-.15-.75c0-2.4 1.35-.6 2.1-.6s-.15-1.05-.3-1.2h1.95c0 .9-1.05 1.35-1.05 2.1 0 .3.75.3.9.3l1.35-.6c0-.6.15-1.35.6-1.65l.15-2.4c.6 0 1.35.3 1.2 1.05l.9-1.05c.75 0 .45-.45.45-.9 0-.3.15-.3.3-.3.45-.9 1.35-1.95 1.35-3h.45c0-.15-1.35-.6-1.65-.6 0 .6-.15 1.5-.6 1.95-1.05 0-.45-.9 0-1.35-1.05.15-3.6.3-3.6 1.95-.15 0-.6 0-.6-.3 0-.15 2.85-2.85 3-3l.6.3c.6 0 1.35-.15 1.65-.6.9 0 1.65-.6 2.55-.6.9-1.2 3.9-2.55 5.25-3.15 0-1.35 2.7-1.2 2.7-2.55l1.5-.75.15-1.2c.75-.6 2.1-1.65 3.15-1.65.3 0 .6.15.6.6l-1.65 1.05c-.6 0-.6.3-.6.75s-.45.45-.75.45c-.6 2.7-2.1 1.05-2.85 3-.6 0-7.95 4.65-8.7 5.1 2.25 0 .75 1.5 1.65 1.5.75 0 1.8-1.05 2.4-1.5l1.2-.45c0-1.05 1.35.15 1.35-1.2s3.75 0 3.75-1.8l.45-.6c.45 0 .45-.3.45-.75 0-.15.15-.3.45-.3l.6-1.05c0-.6.45-1.05 1.05-.75.75-1.8 2.55-.75 2.1-2.4 1.05 0 1.95-1.05 1.95-2.1l2.25-1.95c.15-.9 1.2-3.9 1.2-4.8.3-.45.45-1.05.45-1.65l1.2-2.85-.3-4.8c-1.05 0-.9-2.1-.75-2.7-1.05 0-.75-.9-.9-1.65l-.45-.45v-1.35l-1.2-1.35c.3-.15.6-.6.6-.9s-.45-.3-.75-.3v-.6c0-.6-.45-.6-.9-.6 0-.45-.6-.6-.9-.6v.15c0 .3-.45.45-.75.45a5.74 5.74 0 0 0-2.7-1.8l1.2-1.05c-.6 0-1.2-.45-1.2-1.05-.75 0-1.05-.6-1.8-.6-.45-.45-1.2-.6-1.8-.6v-.6c0-.75-.45-.75-1.05-.75l-1.2-.6-.3-.75c-1.65-.45-3.15-2.1-3.9-2.1l.15.75c0 .3-.15.45-.45.45l-1.65-1.2c-.75 0-.45-.6-1.2-.6 0-.6-.3-.45-.75-.45-.3 0-.3-.45-.3-.6l1.65-.45c-3-.6-5.55-1.8-8.4-2.1 0-1.2-.15-1.05-1.2-1.05-1.35 0-1.65-1.2-3.15-1.2h-.6c-.6.15 0 .6 0 .9s-1.2.3-1.35.3c-.3-.45-1.05-1.05-1.05 0l-1.65-.3-.75-1.5c-2.85-.3-5.7-1.65-8.4-1.65-.45 0-.9 0-1.05-.6h-4.05v-1.2c.15-.3.75-1.95 1.05-1.65 0-.3 1.8-5.25 2.1-5.85v-.3c0-.3.45-.45.75-.45l.15-1.05c.6-.75 1.5-2.55 1.5-3.6l-.3-.6c1.5-2.55 2.55-5.85 3.6-8.55l-.15-.6c.3-.45.6-.9.6-1.5 0-.3-.6-.15-.75 0l3.9-6.9c-.6-.15-.3-1.65-.3-2.1l-1.35 2.55-.3-.15c-1.5 0-2.55 5.1-4.35 5.7-1.5 3.3-5.55 9-7.8 10.8l-1.05.3c-.15.15-.15.45-.15.75 0 .45.45.6.75.9-.9 1.35-2.1 2.4-3 3.75l-.3-.6.75-.75c.15-1.2 1.05-2.7 1.05-3.6 0-.15 0-.45-.3-.45h-.15c-1.05 3-2.7 4.5-4.05 7.05.15-.6.15-1.2.15-1.95l-.45-.15c-.75 0-1.05 1.2-.45 1.65l-1.95 3.15c-.15-.15-.3-.3-.3-.45 0-.3.3-.6.6-.9.3-.75 1.65-1.8.6-2.55.3-.9 2.1-3.45 1.35-4.05.75-.3 2.7-1.8 1.65-2.55l.3-2.1c1.35-2.1 3.15-4.8 3.9-7.35-.6-.3-.3-1.05.15-1.35 0-.15-.15-.3-.15-.3-.45 0-.9 1.05-1.05 1.35-.75 1.5-2.7 3.6-3.6 5.4l-.45-.15c-.6 0-.45.9-.15 1.2-1.05 2.25-2.4 4.35-3.6 6.45-.3.6-2.25 2.7-1.05 3.15-.45.9-2.4 6.9-3.45 6.9-.3 0-.3-.6-.3-.75.15-.3 1.2-2.4 1.2-2.7l-.75-.9c-.15.15-.3.45-.6.45h-.3c.3-.3.3-.9.3-1.2.75-.15.15-.75.9-.9v-.3c0-1.5.9-4.35 1.65-5.4h.75c.3-.45.6-1.2.6-1.8l-.15-.15c-.3 0-.15.9-1.05.9-.15 0-1.05 1.2-1.65 1.5l.15.3c0 .75-.6 1.2-1.2 1.5l.3.45h-.3c-.45 0-.6.3-.15.75l-1.35 1.35c.15.3.3.6.3 1.05 0 .3-.3.3-.6.15l-.6 1.05c.15 0 .3.15.3.3 0 .3-.75.6-1.05.6.15.15.3.3.3.45 0 .45-.75.3-.9.15.15.3.3.6.3.9 0 .15-.3.3-.45.15-.9.3-1.35 1.35-1.35 2.25 0-.15 0-.15-.15-.15-.6 0-1.5.6-1.95.9-1.8 0-3.45.6-5.4.6 0 1.05 0 1.2-1.05 1.2-2.25 0-4.65-1.2-6.9-1.2l-1.05.9-7.8.3-1.2.6c-4.05 0-7.95.45-12.15.45-.45 0-1.05.3-1.5.75h-2.55c-2.55 1.5-6.9 1.05-9.6 1.95v.3c-1.2 0-3-.3-3.9.75h-2.1c-.6.45-2.85.3-2.85 1.05l-4.35.6c0 .9-2.7.6-3.15.6 0 .9-1.35.6-1.95.6l-1.8 1.05c9.75-.6 19.35-.6 29.1-.6l-.3.45-1.95-.15c-.15.6-.9.9-1.35.9-.15-.15-.3-.3-.6-.3-.15 0-.45.15-.6.3l-3.75 1.35c-1.05-.3-2.1-.75-3.3-.75-.6 0-1.5.6-1.5 1.2l-1.95.6-.75-.15c-1.8.6-3.3-.6-3.3 2.1 0 .45.45.45.75.45l.45-.6 10.5 1.35c.15-.15.45-.9.75-.75 3.75.9 3.45.6 6.6.6 1.5 0 4.05 0 5.55.3.15.6.6.9.75 0l5.25.9c.15.3.45.6.45.9 0 .45-1.65.3-1.95.3-.75-.3-1.65-.45-2.4-.45l-1.35.6c2.1.45 4.35.75 6.45.75v.45c-.3 0-1.5.3-1.5.6 0 .15.9.6 1.05.75l-.3.3c-1.65 0-3.45.15-5.1-.15v.3c0 .45.6.45.9.45.6 0 .6 1.05 1.35 1.35-.15 1.05-2.85 0-3.45 0-1.05 0-1.65.45-2.7 0-.6.15-3 .6-3 1.35 0 .9 1.2.9 1.8.9 1.65 0 3.45-.6 5.25-.6 5.4 0 11.55 0 16.95.75 0 1.05-1.05 2.55-1.65 3.3 0 1.2-1.35 1.5-1.35 2.85 0 1.2-1.2 1.95-1.05 3l-.9 1.5.15.6c0 .45-.45.6-.75.6l-.45 1.65c-1.5 1.5-2.1 4.5-3.3 6.3 0 .45-.9 2.7-1.2 2.85v.15c0 1.5-1.05 2.85-1.65 4.2-.6 0-.6.15-.6.6 0 .3-.15.45-.45.45v2.4h-.3c-.45 0-.9.15-.75.6-1.2 0-1.2 2.7-1.2 3.45l-1.05 1.2h-.75c-.6 0-.15 1.2-.15 1.65 0 1.2-.45 2.25-.45 3.45l-1.2.9v1.65c-.75.45-1.5 1.05-1.95 1.8l.15.3c0 .3-.15.3-.45.3-.6 0-.75.45-1.35.45-.45 1.35.15 1.65-.9 1.65l-.3.3c-.75-.15-1.65 0-2.4.3-.15.9-.9.45-1.35 0l-.3.3c-1.05.3-2.4.9-3.15 1.8-.6 0-.6-.45-1.2-.6l-4.2 2.4.15-.3-1.05.15-1.2.9c-1.2.15-3.3-.45-3.3 1.05-.9.15-1.8.6-2.55.9l-1.05-.15-.15.45-1.05-.15-.3.45h-1.05l-.3.45c-.3-.15-.6-.15-.9-.15s-.6 0-.75.15c0 1.5-7.5 2.7-9.15 3v.15c0 .45-.15.9-.75.75l-.75.75c0 .9-1.2.45-1.65.3l-.75.9-1.35-.15-1.35.6c-.75-.15-1.95-.3-2.4.45l-.75-.15c-.3 0-.6.15-.6.3-.6.45-1.65.9-2.4.9 0 .45.3.6.6.6.6 0 1.05-.15 1.5-.45l1.95.15c.6-.15 1.2-.45 1.8-.9l.15.6 1.95.3 1.2-.45c.6 0 0 .75 0 .75l.3.45 2.7.3c.15-.6 4.5-.75 5.25-.6 0-1.05 3.15.15 3.6-.9h1.2l.45-.15.75.15h1.2c-.45.3-1.5.45-1.5.9l-1.2-.45-.3.6c-.3.3-2.7.75-3.15.9l.45.3h-.45l-.9.15v-.3s0-.15-.15-.15c-.45 0-.9.75-1.2 1.05l-.9-.15c-1.65 0-3.15.9-4.8.75-.15.45-.75.3-1.05.3l-1.2.45-.75-.15c-.75 0-2.25.6-2.85.75l-1.65-.45-.45 1.05h-.75c-.15.45-.6.6-1.05.6-.3-.15-.6-.15-.75-.15-2.25 0-4.65.3-6.9.3l-.75.3-.45.6 1.5.45c.15-.45.6-.6 1.05-.6l1.2.6h-1.5l-1.05.45-1.35-.3-2.25.75c-.45-.3-1.2-.45-1.65-.45l-1.35.45-.75-.3c-1.5.15-3 .75-4.65.75 1.2.15 2.55.45 3.6.45.9 0 1.65-.45 2.55-.3v-.3l3.15.3.75-.45c.45 0 .9.3.75.75 1.65-.45 3.6 0 5.25 0 .9 0 1.5-.6 2.4-.6.3 0 .45.15.45.45l2.1.3.75-1.05c1.65.15 3.9.6 5.55.6 1.5 0 3.45-.6 4.8-.45l.6-.45h.6l6.3-.15.75-.45c.3.3.9.45 1.35.6l.15-.3.9.15 1.05-1.05h1.65c.15 0 .3 0 .3.15 0 .3-.45.45-.6.45-.6-.15-1.35-.15-1.35.6-.15.15-.45.3-.45.45s1.65.3 2.1.3l1.2-.45h1.2c.6 0-.3-.3-.3-.75 0-.15.3-.15.3-.15l.45.15c.3 0 .45-.15.6-.45l-.3-.75.75-.45c1.2 0 .15 1.05.15 1.65 0 .15.3.15.45.15 0 .45.3.45.45.15l1.05.45c.3-.15 1.05-.6 1.05-1.05s-.75-.45-.9-.45h-.3l.9-.15.75-.6-.3-.75.9-.15c.45 0 .15.45.15.75h2.7c.15-.45.9-.45 1.2-.45l.45-.15c.15 0 0 .15 0 .3.6.15 1.35.15 1.95-.15-.15.9-.45 1.8-.75 2.55 0 .6-.6.6-.6 1.35l-.45 1.05c0 .9-1.05 1.8-1.65 2.4 0 1.05-.45 2.25-1.05 3 0 2.25-2.55 3-2.4 5.25l-1.05.9.15 1.65-1.05 1.05c0 .9-.6 1.65-.6 2.85l-.6.9c-.15.9-.45 1.8-.9 2.55 0 1.35-1.8 3.45-2.4 4.8l-.6.45.15 1.05-.45.75c.15.15-.3.6-.45.6 0 .6-.6.75-.6 1.35l-.6.9c0 .75-.45 1.8-.9 2.4 0 1.8-2.1 2.55-1.95 4.35l-.9.75.15 1.35-.9.75c0 .6-.45.75-.45 1.35s.45 1.2.75 1.65l.3.15c-.3.9-.75 1.65-1.2 2.4l.15.45c0 .3-.6.45-.9.45v.6l-.15 1.8-.75 1.35-.15 1.2c-.3.3-.45.9-.45 1.35-.45 0-.45.3-.45.6s-.3.3-.45.3l-.45 1.35c.15.15.6.3.6.45s-.6.15-.6.15l-.3 1.2.3.75c-.45.3-1.35.75-.75 1.35l.3.3-.3.45c0 .3 0 1.2-.6.9l.75.75c.15-.6.45-1.95 1.2-1.95.9-1.65 2.25-5.55 4.2-6.15 0-1.5 2.25-3.15 2.85-4.5 0-.9 1.2-1.65 1.8-2.1l.3-1.05c.9 0 .15-1.05 1.05-1.05.75-.9 1.65-2.25 1.8-3.3.9-.45 1.65-.75 1.5-1.95 1.65 0 2.4-2.25 3.3-3.45.15-.3.3-.9.3-1.2 0-.45-.3-1.05-.9-.9.45-1.05 1.2-2.1 1.8-3.15l1.2-.75.45-.6.15.15-.3-1.35c0-.15 0-.3.15-.3zm56.85-74.55c0-.9.3-1.95.3-3.15.9-1.05 1.8-2.4 1.8-3.9.75 0 .45-.3.45-.75s.45-.45.75-.45l.6-1.35c0-1.35 1.2-1.95.9-3.45 1.2 0 1.2-1.95 1.2-2.7l1.05-3c.75 0 .45-.3.45-.75 0-.3.3-.3.45-.3l.75-1.05v-.3c0-1.35 1.05-3.45 2.25-3.45v-.15c0-.45.3-.9.9-.9.3.3.9.75 1.35.75.15 0 .15-.3.15-.45l1.5-.9h4.95c.45 0 .6.15.6.6-.6 0-5.7-.75-5.7.9 0 .45.15.9.75.9.45 0 1.05-.45 1.5-.75 2.4.3 4.65.9 6.9 1.8v.3c0 .9 1.05.75 1.65.75.75 0 .6-.6.6-1.2h4.05c.45 0 1.35 0 1.35.6.15 0 .75.3.75.45s-.75.15-.75.15c.3 3.15 4.65.9 6.45 3.15v.6c0 1.8-.45 2.25-2.25 2.25v.3c0 .45-.45.75-.9.75l-1.2 1.05h-1.5l-.45.6-2.1 1.05.15.6c0 .45-1.05.3-1.35.3v.15c0 .15-2.4 1.05-2.85 1.05l-.75.45c-.6 0-3.15.9-3.15 1.2-.45 0-2.7 1.05-2.7 1.2-.6 0-1.2.15-1.65.6h-.3c-.45 0-.75.15-.75.6-.45 0-3 .75-3 1.05l-2.7.15c-.75 1.5-2.25.75-2.7 1.65h-2.85l-1.95.9v.15c0 .6-.6.75-.6 1.35l-2.4.6zm-32.1 44.85c0-.15 0-1.05.3-1.05s.3.75.3.9c-.9 0-.6 1.95-.6 2.4l-1.05.15.3 1.2c.15 0 .6 0 .6.15 0 .45-.6.9-.6 1.35-.6.45-1.95 1.65-1.8 2.4l-1.35 2.4c-.6 0-.15.45-.15.9 0 .3-.3.3-.6.3-.15-.9-.45-.6-.6 0-.9 0-1.2.15-1.35-.9.3-1.05.9-1.95 1.8-2.7v-.15c0-.75.75.15.9.3 1.35 0 .15-1.2 1.2-1.2-.45-.3-.6-1.05-.6-1.5 1.35-1.35 2.1-3.45 3.3-4.95zm42.45-19.8c-1.95 0-.3 1.8-2.25 1.8l-.45 1.5 2.55.3.45-1.2c.45-.15 1.8-.75 1.8-1.5s-1.95.3-2.1-.9zm-8.7 5.25a1.36 1.36 0 0 0 1.05.45c.6 0-.75-1.05 1.2-1.05.75 0 1.95-.15 1.95-1.2 0-.45 0-1.05-.6-1.05-.75 0-1.5.6-2.25.6l-1.35 2.25zm-40.8 28.65v-.3c0-.75.6-1.05.6-1.65l.6-.45c.45 0 .6.3.6.75 0 .75-.3 1.5-.45 2.25-1.05.45-1.95 1.5-3 1.5-.15 0 .3-.15.15-.3s-.3.3-.3.15v-.6c0-.3 1.5-1.2 1.8-1.35zm4.5-26.25c0-.3 0-1.2.45-1.2.3 0 .3.9.3 1.05-.45.9-.9 2.4-1.8 3-.3 1.2-1.05 3.15-1.95 4.05-.45 0-.6-.15-.6-.45l.6-.15.45-2.25c1.65 0 .9-4.05 2.55-4.05zm24-38.1l.75-1.05c0-.6.6-.75.45-1.5l.75-1.95 1.05.45c-.45.75-.75 1.65-1.05 2.4 0 .45-.15 1.2-.6 1.5l-.6 1.35c-.3 0-.6.15-.75.3l.15-.3c0-.3-.15-.9-.15-1.2zm-35.4 72.45l.6.6c.45-.15.75.3 1.2 0l-1.2 1.95.15.45c0 .45-.3.6-.75.6-.15-.9-.3-.45-.45 0l-.9-.15 1.35-3.45zm45.45-72.6c.45 0 .45 1.35.45 1.65-.45.75-1.2 1.5-1.8 2.1-.75 0-.75.6-.6 1.2-.3 0-.45-.3-.45-.45 0-1.05 2.1-4.5 2.4-4.5zm-4.5 30.6l1.05.6v.15c0 .9-1.05 1.05-1.65 1.05h-1.8l-.3-.6.6-.6c.75-.3 1.35-.6 2.1-.6zm-38.55 39.6l-.9 1.35-.3-.6c.75-.75 1.65-1.95 1.65-3l1.2.3v.3l-.9.15.3.9c.3 0 .45.15.45.3 0 .6-.6 1.2-.9 1.65l-.6-1.35zm-15.45 26.7c-.45.45-1.35 1.5-1.35 2.1 0 .3.15.45.45.45.9 0 1.35-1.2 1.35-1.95 0-.3-.15-.6-.45-.6zm64.35-110.55c.15 0 1.35.3 1.35.3l-.9.15c-.15.45-.45 2.1-1.2 2.1-.3-.15-.45-.75-.45-1.05 0-1.2 1.2-.75 1.2-1.5zm.9-3.15l.75-1.65.45.3c0 .45-1.05 2.25-1.2 2.7-.3 0-.6.15-.75.3 0-.6 0-1.65.75-1.65zm-57.3 87.75l1.35-.6c-.3-.3-.45-.75-.6-1.2l-1.2 1.2.45.6zm49.35-41.4c.75.15 2.1.45 2.1.6 0 .6-1.2.3-1.8.45l-.3-1.05zm-1.05-45l-.15-.9c0-.6.75-.45 1.2-.45l-.45.75c0 .45-.15.9-.6.9-.15 0-.45 0-.45-.15s.45-.15.45-.15zm-.45 16.2s0-.6.15-.6c0 0 .15.45.15.6l-.75 1.8c0 .15 0 .6-.3.6s-.3-.75-.3-.9h.15c.45 0 .45-.6.45-.9l.45-.6zm-34.65 48.6c.3.15 1.35.6 1.35.9 0 .15-.75.15-.75.15s0 .6-.15.6c-.3 0-.45-1.35-.45-1.65zm7.5-.3c0-.15 0-.3.15-.3.3 0 .6.75.75.9l-.75.45v.3c-.3 0-.45-.75-.6-.9l.45-.45zm27.75-50.55c.3.15.6.6.6.9s-.3.3-.6.3-.45 0-.45-.3.3-.75.45-.9zm1.2-1.8l.45-.15c-.45.15-.45.75-.45 1.05 0 0 0 .3-.15.3-.3 0-.6-.45-.6-.75 0-.45.45-.45.75-.45zm-25.05 42.75c.15.15.6.45.6.75s-.45.3-.6.3-.45 0-.45-.3.3-.6.45-.75zm-15.45 27.15c0-.15 0-.9.3-.9.15 0 .15.6.15.75-.3.3-.6.6-1.05.75l.6-.6zm-5.55 10.5c0-.3.15-.45.3-.45.3 0 .6.15.75.3l-1.05.45v-.3zm-.75 2.4l.75.6-.6.3-.45-.45.3-.45zm8.1-14.25l.45.6c-.3.15-.45.45-.75.45h-.15l.45-1.05zm-14.1 24.45h.3c0-.15.15-.45.45-.45 0 0 .15 0 .15.15l-.3-.6c-.45 0-.6.6-.6.9zm11.85-25.8h.15c.3 0 .6 0 .6.3 0 .15 0 .3-.3.3s-.45-.45-.45-.6zm.6-1.2h.3c.15 0 .45 0 .45.3 0 .15-.15.3-.3.3-.3 0-.45-.3-.45-.6zm64.2-82.8l.75.15v.15c0 .15 0 .3-.3.3s-.45-.3-.45-.6zm-19.5 7.05c.15 0 .15-.15.3-.15s.3.15.3.3 0 .45-.3.45c-.15 0-.3-.45-.3-.6zm-61.05 104.85l.75.15c0 .15 0 .45-.3.45-.15 0-.45-.45-.45-.6zm84-70.35l1.05.15c-.15.15-.45.3-.75.3-.15 0-.3-.3-.3-.45zm-47.1 10.95a.65.65 0 0 1 .6.6c-.6 0-.6 0-.6-.6zm21.15-39c0-.15 0-.15.15-.15.3 0 .45.3.6.6h-.3c-.3 0-.3-.3-.45-.45zm-40.5 67.05l.6.15v.15c0 .15 0 .3-.15.3-.3 0-.45-.3-.45-.6zm0-12.15c.15 0 .3-.15.3-.15.15 0 .3.15.3.3s-.15.3-.3.3-.3-.3-.3-.45zm-.45 1.05l.6.15c0 .15 0 .45-.3.45-.15 0-.3-.45-.3-.6zm44.7-58.95l.6.15c0 .15 0 .45-.3.45-.15 0-.3-.45-.3-.6zm24.9-9.45l.6.15c0 .15 0 .45-.3.45-.15 0-.3-.45-.3-.6zm-61.95 53.7l.6.15c0 .15 0 .45-.3.45-.15 0-.3-.45-.3-.6zm57.6-54.15h.15c.3 0 .6.15.6.45-.45 0-.6 0-.75-.45zm21.9-19.35c.3 0 .6.15.6.45h-.45c-.15 0-.15-.3-.15-.45zm-88.8 104.1l.45.15c0 .15 0 .45-.15.45-.3 0-.3-.45-.3-.6zm21.75-41.1c.3 0 .6.15.6.45h-.15c-.3 0-.45-.15-.45-.45zm-15 20.55c.3 0 .6.15.6.45h-.3c-.3 0-.3-.3-.3-.45zm15.75-22.65l.45 1.05c-.3 0-.45-.3-.45-.6v-.45zm-48.75 76.5h.45c0 .15 0 .45-.15.45-.3 0-.3-.3-.3-.45zm12.3-19.65l.6.15c0 .15-.15.3-.3.3s-.3-.3-.3-.45zm6.3-1.65l.6.15c0 .15-.15.3-.3.3s-.3-.3-.3-.45zm-7.2 13.5h.15c.3 0 .45 0 .45.3h-.15c-.3 0-.45 0-.45-.3zm8.7-25.05c0-.15 0-.15.15-.15s.3.15.3.3 0 .15-.15.15-.3-.15-.3-.3zm-23.7 29.7v-.15s0-.15.15-.15.3.3.3.45h-.15V340h-.3zm34.35-27.9c.15 0 .3.15.45.3l-.3.15c-.15 0-.15-.45-.15-.45zm-12.75 10.65c.15 0 .45 0 .6.15-.15.15-.3.15-.45.15l-.15-.3zm-7.35 14.7h.15c.15 0 .15 0 .15.15 0 0 0 .3-.15.3s-.15-.3-.15-.45zm9-12.9c.15.15.15.45.15.6l-.3.15c.15-.3.15-.45.15-.75zm59.4-133.2l-.3.45.45-1.2v.3c0 .15 0 .3-.15.45zm-10.65 2.85c0-.15.15-.3.3-.45-.15.15-.15.45-.15.6l-.15-.15zm-48.75 125.7v-.15l.3.45-.3-.3zm-4.05 14.1v.3h.15l-.15-.3zm61.05-140.85v.15h-.15l.15-.15zm-56.85 118.35l-.15-.3s.15.15.15.3zm189.36-60.45l-.15.45h.15c-.15.3-.15.45-.15.6v-.6l-.6 1.05-.15.6c-.15 0-.45-1.05-.45-1.2 0-.75.75-1.35.75-2.1-.15-.6-.75-.75-1.2-.75l.6-.6.3.15c.45.75.9 1.5.9 2.4l.6-3.6-1.35.6v-.15l.6-1.05c.3.15.75-.15 1.05-.3l.45-1.05-.6-.9c.45-.15.9-2.7 1.05-3.45-.6.9-1.65 1.8-2.55 2.4l.6-1.35c0-.75.75-.6.75-1.35l.6-1.2c.15-.15.45-1.5.6-1.5v.3l.6.9-.15 1.2.6 1.05c0-.9-.3-3.75.6-4.2 0-.9.3-4.35 1.5-4.35l.9-.75c0-.9-.3-2.55.6-3.15h-.15c-.45 0-.45-.75-.45-1.05.3-.9 1.05-1.65 1.8-2.1l.45-2.85.9-.75-.15-2.1.75-1.35v-2.55c.6-.3.6 0 1.2.15 0-1.05.6-2.25 1.2-3-.15-.6 0-1.35.3-1.95.75-.6.45-2.4 1.05-2.55v-1.8l1.05-1.8c-.15-.15-.3-.45-.3-.75 0-6.9 6.9-13.8 6.9-20.4l-.75-1.2c-.3.45-.6 1.2-.3 1.65-.3.75-1.35 2.55-1.2 3.45l-1.8 3.6c.15.15.45.45.45.6s-.15 0-.3-.15h-.15c-.75 0-.75.9-.6 1.35l-.75 1.8v-1.05c0-3.45.9-5.1 2.55-8.25-.15-.3-.45-.45-.45-.75 0-.45.3-.9.45-1.2 1.2-2.25 1.5-4.5 2.55-6.45.15-.3 1.5-2.1.75-2.25.3-.6.75-1.35.6-2.1.15-.3.15-.9-.3-1.05 1.2-2.1 1.65-4.65 2.85-6.9l-.3-.45-.3.15c-.15 0 .15-.75.15-.9l-.75.15-1.2.75c-.45.9.15 1.8.15 2.7v.3h-.3c-.45 0-1.2.15-.3.6l-.6 1.2-.75.3.15.45c0 .3-.3.15-.45.15l-.3 1.05c-.45.15-.15.45.15.6l-1.65 2.7-.6.15v1.2c-.45 1.35-1.2-.15-1.2 2.25 0 .6-.75 1.2-1.35 1.35l-.45 1.05c.3 0 .45.15.45.45l-.15.3c-.6.15-.9.6-1.2 1.05h-.15c-1.8 0-3.3 6.9-4.65 6.9-.3 0-.6-.15-.9-.3l.9-1.5c.15 0 1.05-.15.45-.3l.6-1.8c-.75-.45-.45-1.2.3-.9.45-.75-.15-.45-.15-.9 0-1.05 2.4-3.15 2.4-4.8 0-.3 0-.6-.15-.75 0 0 .15-.3 0-.3-.3 0-.45 0-.75.15-1.05 1.2-1.05.9-1.05 2.25 0 .15 0 .3-.15.45l-.3-.15c-1.05 0-.6 4.95-2.1 3.75-.3.6.15.9-.15 1.65.45.15.6.45.6.9l-.15.45c-.15-.15-.3-.15-.45-.15-.75 0 0 3.15-1.35 2.55-1.05 1.2-2.1 2.55-2.85 3.9l-1.2-.15c1.35-2.1 2.55-3 3.75-5.55-.15-.15-.15-.45-.15-.6 0-.75.9-1.95 1.2-2.55l-.3-.45c.3-.6 1.95-3.3 1.95-3.75 0-.15 0-.3-.15-.3-.75 0-2.1 3.15-2.4 3.75l-2.7.6c-.75 2.1-3.75 8.7-4.35 9-.45 0-.9 0-1.2.15-.15.15-.15.3 0 .3l.15.45-.3.9c-.75 0-.75-.75-.6-1.35-.75 0-.9-.45-.45-1.05h-2.1c.3-.9 2.1-4.8 2.1-5.1 0 0 0-.15-.15-.15-.3 0-.75.45-1.05.6-.3.6-1.35 3.15-2.1 2.85l-.9 1.35-.15-.15-2.7-1.2h-1.05c-.6 0-1.2.15-1.2.75l.45.75c-.75.3-3.45.6-3.45 1.65 0 .3-.3.45-.6.45l-.45.6h-1.35l-1.2 1.05c0 .75-.75.9-1.35.75 0 1.2-2.85 0-2.85 1.5 0 1.2-2.4 1.5-3.3 1.5v.6c0 1.5-.15 2.25-1.8 2.25l-1.65 2.25c-1.05 0-2.1 1.8-2.7 2.4-1.65 0-4.05 3.15-4.95 4.2 0 1.65-1.65 0-1.65 1.8 0 .3-.6.3-.75.3 0 .6-.6 1.2-1.2 1.35 0 1.05-.6.45-.9 0-.15.45-.9.6-1.35.6l.45 1.2c.15-.15.3-.6.45-.6.3 0 .3.45.3.6l-1.05 1.05-1.35.6-.15 1.8c-.6 0-1.05.15-1.5.6-.45 0-.3.45-.3.75 0 .45-.3.6-.75.6 0 .6-.3.45-.75.45-.3 0-.3.3-.3.6 0 .6-.6.45-.6 1.05-1.2 1.35-2.85 2.4-3.6 4.05 0 .75-.6 1.2-1.35.9 0 1.65-2.4 2.25-2.4 3.9a18.14 18.14 0 0 0-2.4 2.4c0 .6-.6.6-.6 1.35-1.5 1.05-3.15 2.85-4.05 4.5-.9 0-.3 3-1.5 3-1.35 0-1.35 1.05-2.1 1.05l-.45.75-.6.45-.6 1.2c0 .3 0 1.2-.45 1.2-.15.6-.75 1.2-1.35 1.2l-.6 1.5c0 .45-.15 1.05-.6 1.35l-.9 1.2c-1.5 0-.75 2.4-2.25 2.4-.15.75-.75 2.85-1.65 2.85-.45.6-2.25 3.3-3 3.6l-.75 1.2c-.75 0-.15 1.2-1.5 1.2l-.45 1.2-2.25 2.25-.6 1.8c.15.15.45.3.45.45s-.6.15-.6.15c-.9 0-2.25.75-2.25 1.65 0 .6-.6.9-.6 1.65l-2.25.9h-2.7c0 .45-3.75 1.35-3.75.6h-2.4c-.15.45-.75.6-1.2.6v.45c0 .75-3 1.2-3.75 1.5l-1.65-.15c-.6 0-1.35.3-1.95.75 0 1.5-2.55.3-2.55 1.95l-2.25.3-.9 1.5c-1.05 0-2.1 1.05-2.1 2.1s2.7.9 3.3.9h3.6s.3 0 .3.15c0 .75-2.55-.3-2.55 1.35.3.15 1.2.75 1.2 1.05 0 .15-.3.15-.3.15-.45.45-1.05.75-1.65.75-.3.45-.9.6-1.35.6 0 .45-.9.6-1.2.6l.3 1.2c1.5 0 3 1.05 4.35 1.65h6l.15 1.5-.75 1.05v1.65c-.75.45-1.5 1.35-1.95 2.25l-1.05.6c-.6 0-.6.3-.6.75 0 .3-.15.45-.45.45l-.75 1.65c0 1.2-1.35 1.8-1.35 3.15-.3.45-.6.9-1.05 1.05-1.65 1.95-1.95 4.8-3.75 6.9 0 .45-.9 2.55-1.05 2.7 0 .9-1.95 2.55-1.95 4.05.45 1.05 1.65 1.05 2.55 1.05.6 0 1.05-.15 1.05-.9l1.05-.75c1.8 0 1.8-1.95 3.15-3 0-.15 0-.6.3-.6.45 0 .9.6 1.5.6v.15c0 .6-.3 1.05-.9 1.05l-.15 2.85c0 .3.15.6.45.6 1.2 0 2.55-1.65 2.55-2.85.6 0 1.2-.15 1.65-.6.15-.9.75-2.25 1.8-2.25.15 0 .9 0 .9-.3 0-.6-1.5-.3-1.5-.6 0-.45.45-.9.75-1.2 0-1.05 2.1-1.05 2.1-2.55l.45-.15c.3 0 .6.15.6.6l.45.45c-.3 1.05-1.05 1.95-1.05 3-.6 0-.6.45-.6.9 0 .15-.15.3-.3.3l.15 1.2-.75 1.2c-1.35 0-.9 3.3-.9 4.05 0 .45-.3.6-.75.6 0 1.2-1.2 1.65-1.2 3-.6 0-.6.6-.45 1.05-.9 1.35-1.8 2.7-2.55 4.05 0 .6.6.75 1.05.75h.3l1.2-1.35 1.05-.45v-.75c0-.3 0-1.05.6-1.05l.6-1.2c0-.6.45-.45.9-.45.6 0 .45-.6.45-.9 0-.6.3-.9.75-.9l.15-1.2c-.15 0-.3 0-.3-.15 0-.45.6-.75.6-.15l2.4-1.95c0-.75.6-1.05.6-1.8l1.2.45c.75 0 .9.6 1.65.6.6 0 1.05-.45 1.05-1.05 1.05 0 1.05-.3 1.05-1.2 1.65 0 1.05-1.05 1.65-2.4-.3 0-.45 0-.45-.3 0-.45 1.65-1.95 1.8-2.1 1.5 0 2.55-1.35 2.7-2.85l2.25-2.7c0-.3 0-.9.3-.9.75 0 1.05.75 1.65.75.3 0 .3-.45.3-.6l1.35-1.35c.75 0 1.05-.45 1.05-1.05 0-1.2.75-2.4.75-3.6 1.65 0 .75-2.4 1.95-2.4 0-1.05 1.05-.3 1.65-.3 1.05 0 .9-1.2.15-1.65 0-.9 1.95-1.2 1.95-2.7l.9.15c.45 0 1.35-1.35 1.35-1.8.3-.45.75-.9 1.2-1.2h4.05l1.05-1.2h3.75c.3-.3 1.65-1.35 1.65-.3l.45.15c.45 0 .75-.3.75-.75l1.05-.9 1.2-2.25c.15 0 .15.45.15.45 0 .9.9 1.8 1.8 1.8 1.05 0 2.4.3 2.4-1.2l.6-.45v-1.2c1.2 0 .9.3.9 1.05 0 .6 1.05.6 1.35.6.45 0 1.05-.15 1.35-.6 1.2 0 1.8-.45 3.15-.45.45 0 .6-.15.6-.6 1.95 0 4.05-.6 5.7-.6.6 0 .6.45.6.9-.3.6-.6 1.35-.6 2.1l.3.15-.3 1.65-.6.6c0 9.75-2.7 20.7-3.75 30.3.45.3.6.9.6 1.35-.6 0-.75.6-.75 1.05 0 1.5.3 10.05 1.65 10.05l-.15 1.8-.6 1.05c.15.75.75 1.05.75 1.8l1.35.15c.3 3.3.6 6.3 1.65 9.6 1.05 0 0-5.1 0-5.85 0-.15 0-.9.3-.9s.75 1.2.9 1.5v.15c0 .45.3.9.9.9v.3c0 .45.3.75.75.9l1.5 8.55c.9.9.9 5.7.9 6.75.6 0 0-3.9 0-4.8 0-2.1 1.2-.3 1.2-3.3 0-2.4-.45-4.8-.45-7.2 0-.45.75-.45 1.05-.45l-.45-8.25s0-.45.15-.45.3.6.3.75c0 .3 0 7.5 1.8 7.5l.6-.15-.15-2.25s0-.45.15-.45c0 0 .45 1.2.45 1.5l.9 16.35c0 .15 0 .3.15.3.3 0 .9-1.5 1.05-1.8l-.15-2.85c0-.15 0-.3.15-.3a1.36 1.36 0 0 1 1.05.45c.75 2.7 0 7.35 1.5 9.3-.45.45-.6.9-.6 1.5 0 1.35 1.35 6.45 1.65 6.45l1.05-.15-.15-2.4c0-2.85.3-5.55.15-8.7l.6-.45.15-8.25c0-1.35-.3-4.8 1.5-4.65l-.15-1.65h.45c0-3.9.6-7.65.6-11.7l.75-.6c0-1.2.45-2.4.6-3.6h.15l.15-1.05c.3 0 .9 0 .9-.45v-.6l-1.2-.3v-2.55c0-1.2.45-2.25.45-3.45l1.05-.15v.45c0 .45.15.75.6.75 0-.45.15-1.2.6-1.5 0-.45.3-.6.3-.9v-.3l-.75-.6-.3-.6h-.15v-.45l1.2-.15-.6-1.65c.15-.6.6-1.2 1.05-1.5-.15-1.65-.75-3.6-.45-5.1-.45-.3-.6-1.05-.6-1.65.45 0 1.2-4.2 1.2-4.8.45-.45.6-1.05.6-1.65h1.2l.15-1.2h.6c.6 0 .6-.3.6-.9l-2.1-.3c0-1.5 1.35-6.45 2.7-6.45v.45c0 .45.15.75.6.75 0-.6.15-1.2.6-1.65 0-.6.6-.6.6-1.2 0-.45-.6-.6-.9-.6l-.3-.6-.45-.15c-.9 0-.75 2.4-1.35 2.4v-.3l.15-1.8 1.05-1.5v.6h1.8l-.45-1.65.45-1.05.6-.45c0-.9.15-2.4-.6-3.15 0-3.75 1.95-3.6 4.95-3.6.6 0 1.35-.15 1.65-.6 0-.75.9-.75 1.35-.6 0-1.35 4.8-1.65 5.25-2.1 2.85 1.05 6.3-1.05 9.15-.6.45-.45.9-.6 1.5-.6.9-1.05 2.85-.75 4.05-.75 0-1.8 2.7-1.2 3.75-1.2 0-1.35.45-1.05 1.65-1.05.3 0 .75 0 .75-.45v-.75h-2.25c-2.1 1.05-5.85 1.2-8.1 1.2-.6 0-3.15 2.25-4.95 2.25-.45 0-.6-.3-.6-.75 0-.75 4.5-.9 4.8-1.5 0-.75 1.05-.6 1.5-.6.75 0 3.75-1.2 4.8-1.35 0-.9 3.9-1.05 4.65-1.05.9 0 2.25-1.35 3.15-1.35.3 0 2.4-.9 2.4-.9 0-.15-.3-.15-.45-.15h-2.4v-.3c0-1.35-3.45-.45-4.2-.45 0-.9.9-.9 1.5-.9l1.5-.6c2.7 0 5.25-.6 7.95-.6V265c0-.75 1.95-.6 2.1.15 1.95 0 3.6-.6 5.7-.6l-.45-1.2-5.1.15c0 .45-.3.6-.75.6-.6 0-1.35-.45-1.95-.75-1.5 0-2.55 2.4-4.35.6h-6.15c0 .75-3.3.75-3.75.75l-4.05-.15c-.15 0-1.8 0-1.8-.3.45-.3 1.05-.3 1.5-.3 0-1.5.6-1.2 1.95-1.05 0-.75.6-1.05 1.2-.9 0-1.2 2.1-1.35 3-1.35 0-.9 1.2.15 1.35.3 1.2 0 1.2-.15 1.2-1.2.75 0 1.35.6 2.1.6 1.2 0 .45-1.2 1.35-1.2l.45.6h1.2l.9-1.5c1.8-.15 3.3-.75 5.1-.75l1.05-.6c1.2.15 2.55.6 3.75.6.9 0 0-1.2 1.2-1.2.6.3 1.35.6 2.1.6.45 0 .75-.15.75-.6 1.95 0 5.25-.75 7.35-.9-3.3-.15-6.75-.3-10.05-.3-.45-.45-.9-.6-1.5-.6 0 .75-.9.6-1.35.6-4.2 0-7.95.6-12.3.6-.6 0-1.2.3-1.65.6-4.2-.3-8.55.3-12.75.75 0 .9-5.4.45-6.3.45-1.5 0-1.05 1.65-2.55 1.65l-4.65-.15v-3.9c1.8 0 1.35-4.5 1.35-5.4h-.45c-.3.6-.6 1.2-.75 1.8v-.45zm-42.9 7.05a1.36 1.36 0 0 1-.45-1.05c0-.15.15-.15.3-.15 1.35 0 .3-1.2 1.5-1.2 0-1.5 1.65-1.8 1.65-2.85l2.1-2.4c.9 0 0-1.2 1.35-1.2l.3 1.8c-.15 0-.6 0-.6.3s.6.45.75.45c1.2 0-.75-1.35 2.4-1.35 1.5 0 .6-2.4 1.65-2.4l2.55-1.65c0-.15 0-.75.3-.75.15 0 .3 1.05.3 1.2 0 .9.6 1.35.6 2.4-1.5 0 .3 3-1.2 3-1.05.6-1.8.9-1.8 2.25 1.2 0 1.35 0 1.35 1.2-1.35 0-1.35 1.35-1.35 2.4.3 0 .6.15.6.6 0 .75-.9 1.35-1.35 1.8l-1.05 2.85c-.75 0-12.45 1.65-12.6 2.4l-1.5-.6c.6 0 1.05-.6 1.2-1.2l.75-.3c.45-.75.9-2.1 1.65-2.55v-.75l2.4-1.2c-.3-.45-.45-1.05-.45-1.65-1.05.75-1.95 1.65-3 2.55 0 .9-1.35 1.5-1.95 1.8 0-.45-.3-1.05-.75-1.2h.3c.6 0 1.05-.3 1.05-.9 1.35 0 1.95-1.65 3-1.65zm70.05-93.75c.3.15.3.3.3.6 0 .6-2.4 4.8-2.55 5.1v1.2l-1.05 1.95-.75.15-.15.3c0 .45.45.6.75.75.3-.15 2.25-.9 1.2-1.35l.75-.3c.15-.45 0-.75 0-1.2s1.35-2.85 1.65-3.3c-.15-.3-.15-.6-.15-.9 0-1.35 1.65-2.7 1.65-3.75-.6 0-1.2.45-1.65.75zm-55.05 163.5l.6.75.15 3.9c0 1.35-1.05 3.15-1.05 4.2h-.45c0-.75.3-1.35.3-2.1v-.45l-1.05-1.5v-.6l1.65-1.95-.15-2.25zm-11.4-71.55c.6 0 1.2-.6 1.5-1.2.75 0 .9-.6.75-1.2l1.5-.6-.75-1.05c-1.35 0-1.65 1.65-3 1.65l-.3 1.2.3 1.2zm48.3 9.45c0 1.05-5.25 1.35-6 1.35-1.05 0-2.25-.3-3.15-.75 3 0 6.15-.6 9.15-.6zm-46.2 64.2l.9.15.15 1.2c0 1.2-.75 2.7-.75 3.9 0 .75-.45 1.2-.45 1.8l-.6-.3-.15-1.35c.3-.45 1.2-1.65 0-1.5.45-.45.6-1.35.45-1.95l.6-.6-.15-1.35zm-6.75-76.65l1.05.6-1.05 1.2c-.15.6-.9 2.4-1.65 2.4-.15.15-.3.45-.6.45s-.3-.6-.3-.75l.9-1.5c1.05 0 1.05-1.8 1.65-2.4zm-39.75 35.85l1.05.45-.6 1.05c0 1.2-1.05 1.05-1.05 1.95l-.6.15a.65.65 0 0 1-.6-.6c0-.3.15-.9.6-.9l1.2-2.1zm-13.8 20.4c.3 0 1.2.6 1.2 1.05 0 .3-.6.3-.75.3 0 0-1.5 2.4-1.8 2.4-.15 0-.15-.3-.15-.45v-1.2l.6-.9c.75 0 .3-1.2.9-1.2zm118.95-130.05c.3.15.3.45.3.75 0 .9-.45 1.95-.75 2.7 1.5-1.5 1.5-1.65 1.5-3.3 0-.9.9-1.8.9-2.7 0-.15-.15-.45-.3-.45l-1.65 3zm-64.35 105.75l.75.75h-.45c-.45 0-.9.3-.9.9l-3.75.3-.6-.75c2.1-.15 3.3 0 4.95-1.2zm-51.15 19.2l.45-.45c0 .3 0 .9-.45.9l-.6.75v1.2c-.6 0-1.35-.15-1.35-.9.3-.75 1.05-1.5 1.95-1.5zm101.7-87.75c-.15 0-.3 0-.45-.15l.45-.45-.15-1.35.45-.75h.6v1.2l-.6.75h.3l-.45 1.05c-.15 0-.15 0-.3-.15l.15-.15zm-68.25 72.45c0-.3 0-1.05.45-1.05.15 0 .45.3.6.45.15 0 .9 0 .9.3s-.9.3-1.05.3c-.75 0-1.5.45-2.25.45l-1.05-.15 2.4-.3zm33.75 46.95c.3.6.6 1.2.6 1.95 0 .45 0 .9-.45.9-.3-.3-.75-.75-.75-1.05s.3-.3.45-.3l.15-1.5zm-24.6-70.8c.3.15 1.95.75 1.95.9 0 .6-1.2.45-1.65.45-.3-.3-.3-.9-.3-1.35zm16.2 67.95c0-.15 0-.3.3-.3s1.05.6 1.05.9-.3.45-.6.45c0 .15.15.45 0 .45s-.75-1.35-.75-1.5zm-56.4-34.5l1.2-.15v1.2c-1.05 0-1.2 0-1.2-1.05zm99.9-120.15c.3.15.45.9.75.9s.6-1.2.6-1.35c0-.3-.15-.45-.3-.3l-1.05.75zm-7.05 71.1c.15-.15.45-.3.45-.45s-.15-.15-.3-.15v-3.3c-.3.45-.6 1.05-.75 1.65l.6.3v1.95zm-9.75 37.8v-2.1l.6-.3v1.95l-.6.45zm-84.3 14.1h1.05c-.3.15-.45.75-.45.9h-1.35c0-.75.75-.15.75-.9zm114.15-34.2l1.5-.15 1.5.75c-1.05 0-2.1-.3-3-.6zm-47.85 49.05l.75.3v1.2l-.6-.15-.15-1.35zm21.75-75.45l1.2.6c0 .3-.15.45-.45.45-.45 0-.75-.6-.75-1.05zm24-64.8l.75-1.35c.15.15.3.3.3.45 0 .45-.3.9-.75.9h-.3zm-12.15 15.75l.6-1.35c.15.15.3.3.3.6s-.15.75-.6.75h-.3zm-98.7 111.3l1.2 1.2h-.6c-.75 0-.6-.6-.6-1.2zm-7.95 10.5l-1.05 1.2c.6 0 1.05.15 1.05-.6v-.6zm72.15 11.25l.45 1.05v1.05l-.45-.75V325zm29.85-128.85h-.3l.15-.15c.3 0 .75.3.75.6s-.15.45-.3.75l-.3-1.2zm17.1 71.85l1.2.15c0 .3-.3.45-.6.45l-.6-.6zm-7.2-3.3l1.65.15c-.3.15-1.65.45-1.65-.15zm-21.15 12.9h-.3c-.15 0-.3 0-.3-.15 0-.3.75-.45.9-.45l-.3.6zm-40.05-15.45l.6 1.2c-.3 0-.6 0-.6-.45v-.75zm12.3 62.1l.9 1.05c-.9 0-.75-.45-.9-1.05zm37.2-89.7l.6 1.2c-.45 0-.6-.15-.6-.6v-.6zm-19.05 11.85c.15 0 .15-.15.3-.15s.3.15.3.3 0 .45-.3.45c-.15 0-.3-.45-.3-.6zm-73.2 54c.15 0 .15-.15.3-.15s.3.15.3.3 0 .45-.3.45c-.15 0-.3-.45-.3-.6zm52.35-15.15l.9 1.05c-.6 0-.9-.45-.9-.9v-.15zm24.6-52.35h.15c.3 0 .45 0 .45.3 0 .15 0 .3-.15.3-.3 0-.45-.3-.45-.6zm-81.3 75.15h.15c.3 0 .45 0 .45.3 0 .15 0 .3-.15.3-.3 0-.45-.3-.45-.6zm61.2-61.65l1.2.15c-.3.15-1.2.45-1.2-.15zm21.3-16.95l.6 1.05c-.3 0-.6 0-.6-.45v-.6zm-23.25 91.05h.3c.15 0 .45 0 .45.3 0 .15-.15.15-.15.15-.3 0-.6-.15-.6-.45zm10.2 5.55l.6.9h-.3c-.45 0-.3-.6-.3-.9zm13.65-97.95l.6.15c0 .15 0 .45-.3.45-.15-.15-.3-.3-.3-.6zm13.65 10.05l.6.15c0 .15 0 .45-.3.45-.15 0-.3-.45-.3-.6zm-26.7 115.2c.15-.15.15-.15.3-.15s.15.15.15.15c0 .15 0 .45-.3.45-.15 0-.15-.3-.15-.45zm27.75-116.85c.3 0 .6.15.6.45h-.45c-.15 0-.15-.3-.15-.45zm-.45.3h.15c.15 0 .3.15.3.3s0 .3-.15.3c-.3 0-.3-.45-.3-.6zm-27.45 105.3c.15 0 .15-.15.3-.15s.15.15.15.3 0 .3-.15.3c-.3 0-.3-.3-.3-.45zm44.4-162.45l.45-.9v.3c0 .15 0 .6-.3.6h-.15zm-45.9 143.7l.45.9c-.15 0-.45 0-.45-.3v-.6zm9.75-78.6h.3c.15 0 .45 0 .45.3h-.3c-.15 0-.45 0-.45-.3zm-19.05 82.35l.45.15v.45c-.3 0-.45-.45-.45-.6zm35.1-60.15c.3 0 .45.15.45.45h-.3c-.15 0-.15-.3-.15-.45zm-7.8 29.7c0 .15 0 .45.15.45h.3c0-.3-.15-.45-.45-.45zm14.85-99l.45.6-.6-.3.15-.3zm-42.45 131.4c0-.15.15-.15.15-.15.15 0 .3 0 .3.15s-.15.3-.3.3c0 0-.15-.15-.15-.3zm21.15-6.6c0-.3 0-.6.3-.75 0 .3-.15.6-.3.9v-.15zm1.8-6.45c0 .3-.15.45-.45.45 0-.3.3-.45.45-.45zm20.7-99.45h.75l.15.3-.9-.3zm-4.65 24.6c.15-.3.15-.6 0-.9v.9zm6.6-22.05c0-.15-.15-.3 0-.45.15.15 0 .45 0 .6v-.15zm-.45-3v-.15c-.15.15-.15.15-.3.15h.3zm150.307-26.85a4.74 4.74 0 0 1 2.1-2.1c-.15-.45.15-1.05.3-1.5.75-.45 1.5-1.05 1.95-1.8.9-.45 1.35-1.35 1.95-2.1 1.05-.15 1.65-1.2 1.8-2.25l2.4-1.2.6-1.05h.3l.9-1.05.45-.15 1.2-1.05.6-1.2 1.65-.6.45-1.35c2.25-1.8 4.05-4.05 6.3-5.7l.3-1.05 1.05-.15.6-1.05h-.3c-2.4 0-4.65 3.6-7.65 4.5l-.15.15-.45 1.2c-.9.45-2.1.45-2.7 1.5-2.1 1.2-4.05 3.3-6.15 4.35v.15c-.6.9-1.65 1.5-2.7 1.95v.15l-1.05.9-.75 1.35-1.05.9h-1.05c-1.8 1.65-2.55 2.85-4.05 4.65v-1.95l.9-1.35c-1.5.3-3.75 1.8-5.4 2.55l-.9 1.2h-.15l-1.05.6v1.5l-2.25.9c.3-1.35 1.35-3 2.55-3.75l.45-1.35c.6-.6 1.2-1.05 1.95-1.35.45-.9.9-1.8 1.65-2.4.75-2.25 2.4-1.05 3-4.65l-1.05 1.2-1.35.3-.6 1.65-1.05.6v.15c-.75.6-1.5 1.35-2.25 1.8h-.3l-1.05 1.05c.6-1.2 3.45-5.25 4.65-5.85.75-1.8 1.8-2.7 2.85-4.2 1.95-.75 1.95-2.4 3.15-3.9l.9-.3c.3-1.35 1.05-2.7 1.95-3.75h-.45c-.6 0-.9.75-1.5.9-1.35 0-1.8 1.5-3 1.95v.9c-.6-.15-1.05.45-1.65.3l-.9 1.05h-.15l-.9 1.2c-2.85 1.2-5.7 3.9-8.25 5.7l-.9-.15-1.05 1.05-.15.45-1.35.6c-.9 1.05-2.25 1.8-3.15 2.85l-1.2.6-.3-.9c.45-.3.6-.9.9-1.35l1.05-.45h.15l.9-1.2 1.35-.75c1.2-2.85 4.5-4.35 5.85-7.35l-.75-.6 1.05-.6v-.15l1.2-1.05.9-.3v-.75l-.9-1.05h-.3l-.75 1.35c-.75.45-1.5 1.05-2.1 1.8h-.15l-.9 1.05.15 2.1c-.75.75-1.5 1.2-2.4 1.65-.45 1.05-1.65 1.5-2.25 2.55l-1.2.45v.15l-1.05.9-.3-.6-1.2-.45v.15c-.9 1.05-2.1 1.95-2.55 3.3l-1.35.6-1.05 1.2-.9.3c-.75.75-1.5 1.95-1.65 3l-1.65 1.2v.15l-.45 1.2-.6-.75h-.3l-.75 1.5c-.9.45-1.8 1.2-2.4 1.95h-.15l-1.05 1.2v1.05c-.6.6-1.05 1.5-1.2 2.4-.3.15-1.5.75-1.5 1.2l-.9.45h-.15l-.9 1.05v.15l-.45.9-1.5.6v.15l-1.05 1.05-.45-.75-1.35-.6v.3c-.9 1.35-2.25 2.25-2.85 3.75l-1.5.6-1.2 1.35-1.05.45c-.9.9-1.65 2.1-1.95 3.3-.45.6-1.2 1.05-1.8 1.35.15.45-.45 1.5-.6 1.95-.3.15-1.5.75-1.8.6-.3.9-.9 1.8-1.65 2.4v.3c-1.5.6-2.55 2.1-3.45 3.45l-.3 1.2c-1.05.45-1.8 1.5-2.85 1.95h-.15l-.9 1.2c0 .6.15 1.35.15 1.95-.75.45-6.9 7.5-7.65 9.15l-.6.15c-.6 1.2-1.2 1.8-2.55 1.8l-.6 1.5-1.2.9c-.45.9-1.35 1.95-2.1 2.55v.15c-1.05 1.8-1.95 3.45-3.75 4.5l-.15 2.1c-1.2.6-2.25 1.5-3.45 1.95-.15 1.05-.45 2.1-.9 3-1.65 1.5-2.7 3.15-4.5 4.5v.6c-1.05.75-2.85 3.3-3.3 4.65l-1.05 1.05-.6 1.65-1.05.45-.75 1.2-1.8.45v-.15l.6-1.35.6-.6-.15-1.35c1.5-3.3 1.35-11.4 1.35-15.45v-.6c.3-.45 1.35-2.7 1.2-3.15l-.9-1.35.6-.75c-.15-.9 0-2.1.45-2.85l.75-.6c0-2.4-.6-4.8.15-7.2l-.75-1.5v-.9l.45-1.05c0-1.35-.3-2.7-.3-4.05v-8.25c-1.95-3.3-2.7-3.75-1.8-7.2l-1.2-.75-.75-1.8c0-2.7-.75-5.4-1.35-7.95h-.45l-.6 1.35c.15.75-.15 1.5-.3 2.25.3.6.6 1.35.6 2.1 0 1.05-.6 2.55-.75 3.6l.45 1.05-.15 2.25-.6 1.35-.6-.15-.6-2.25c-.3-.3-2.1-9.6-2.1-9.9l-1.35-1.2c-1.35 1.35-1.5 3.3-2.4 4.95-.9.15-1.95.6-2.7 1.2h-.15c-1.05 1.2-2.25 2.4-3.15 3.75l-.75.3h-.3l-1.35.6.15 1.65c-.75.3-1.5.15-2.25.15l-.3.15.15 1.5c-.15.6-.6 1.2-1.05 1.5l.15 2.25c-.3.15-.75 1.2-.9 1.5v1.5l-.75.6c.15.75.3 1.65.3 2.55 0 1.2-1.2 3.15-1.5 4.35l.6 1.65-.9.6.15 1.65-.6.9v1.2l.75.9c-.3.75-.6 1.95-.45 2.85l-.3.75v.15l-1.2 1.2c0 1.2.3 2.55.15 3.75l-.9 1.2.3 1.35h.15c-.3.9-.45 1.95-.3 2.85-.45.45-.75 1.35-1.05 1.95 0 .9-.45 1.8-.9 2.55l.45 1.35-1.05.45c-.15.75.15 1.5.3 2.25l-1.35.75c.6 4.05-2.1 7.5-1.65 11.85-1.35 1.05-.75 3.45-.6 4.8-2.4.75-2.1 3.9-2.1 5.85-.3.45-.6 1.2-1.05 1.5l-.15 1.5.6 1.35-.45.45v1.2l.15.15c-.6.9-1.2 1.8-1.65 2.7.3.75.6 1.8.45 2.55-.6.75-.9 1.95-.9 2.85l-.75.6c.15 1.05.15 2.25.15 3.3-.45.45-.3 1.2-.45 1.8.6.3-1.05 1.5-1.2 1.65l.6 1.35c-.3 1.2-.6 2.4-1.2 3.6l.45 1.65-.15.75-.6.45c.3 1.05.15 2.4.3 3.6l-.6 1.2-.9.75.45 1.05c-.15.9-.45 1.95-.9 2.85l2.85 6.6h.15l1.05.6.6 1.05v.45c.6.45 1.2 1.05 1.65 1.65v.45c0 .6.45 1.2 1.05 1.65.75.3 1.5.75 2.1 1.35.75.15 1.35.45 2.1.75h2.4l1.05-.45c.75.6 1.35 1.35 1.8 2.1.75-.15 2.1.45 2.85.75h2.4l.9-.9h.6c1.05-.75 1.8-1.65 2.85-2.25.3-.75.6-1.65.75-2.55l1.2-1.2c0 .15.15.45.15.75-.6.6-1.5 2.55-1.5 3.45 0 .3 0 .75.15 1.05h.3c.45-.45.9-1.2 1.2-1.8.75-.3 1.2-1.5 1.5-2.25l1.05-1.05c.15-.3.45-.9.3-1.2l.9-.75-.45 1.05.6.75c.6-.6 1.05-1.5 1.35-2.25l-.6-1.35c.3-.3.75-.75.9-1.2l.6-.3c.3-.6 1.2-2.7 1.05-3.3l1.35-1.35.3.6v.3l-1.05 1.2c-.3.9-.9 1.95-.9 3 0 .45.15.9.3 1.35h.3c.6-.75 1.05-1.5 1.5-2.25 1.05-.45 1.8-1.8 1.95-2.85l1.2-1.2c.15-.45.45-1.05.3-1.5l1.2-1.05-.6 1.35.75.9 1.05-1.05.6-1.65-.6-1.65c.9-1.05 1.35-1.65 1.05-3 .9-.9 3.75-4.95 3.9-6 .6-.45 1.35-.9 2.1-1.05l.15-1.65 1.05-.75.6-.9 1.35.15.3-1.8c.9-.45 1.35-1.2 1.8-1.95l-.45-1.5.45-.75.6-.45c.3-.9.9-1.65 1.5-2.4l1.8-.75.45-.9-1.05-1.2 1.05-.45c.45-.45 1.05-1.35 1.65-1.65.6-1.8 1.95-2.1 3-3.3l.6-1.5c1.35-.75 1.95-2.1 3.3-2.85.15-.6 1.65-1.95 2.25-2.1l.45-1.65c.3-.45.75-.9 1.2-1.2.6-1.5 2.1-2.4 3.15-3.45l.6-1.35c-.15-.3.3-1.35.45-1.65l1.35-.6V268l1.35-.45.9-1.2c2.55-1.35 4.2-6.6 7.05-8.7l.6-1.2 1.35-.75.6-1.65c.6-.6 1.35-.45 2.1-.75.45-.3.75-1.05 1.05-1.5l1.05-.75.6-1.35c.75-.75 1.5-1.2 2.25-1.8l.75-1.5.9-.6v-.45c1.2-1.05 2.1-2.25 3-3.6 2.25-.75 4.35-2.85 5.25-5.1h.3l1.5-.6.75-1.35c1.35-.6 3-5.1 3.45-6.45l.3-.3.45-1.05.45-.45.9-.3.15-.6 1.2-1.2.9-.3c.75-.6.9-1.5 1.95-1.95.3-1.5 1.35-1.95 2.55-2.85l.6-1.5c.75-.3 2.85-3.15 3.45-3.9 2.1-.6 3.75-2.7 4.65-4.5.3.15 1.2-.3 1.5-.45l.75-1.2c1.2-.6 2.55-4.35 2.7-5.25l2.25-1.2.75-1.05h.3l.9-1.35.6-.15c.9-.6 1.8-1.5 2.1-2.55l1.8-.6.45-1.5c1.5-1.35 3.9-2.85 4.8-4.5.9-.6 1.65-1.35 2.4-2.1l.45-1.05 1.05-.3.75-1.2h-.45c-2.4 0-4.8 3.15-6.6 4.35zm-70.5 76.05l.6.3c-.75.3-1.65 1.8-1.95 2.55l-1.2.9c-.45 1.65-1.2 2.7-2.25 4.05-.75.45-1.35 1.2-1.95 1.8l-.6 1.65-1.8 1.2c.45.45.75.9.9 1.5l-2.1.45-1.05.9c.15-1.65 1.2-2.85 1.5-4.35 1.65-1.2 3.45-2.7 4.65-4.35l.45-1.35c1.95-1.5 2.55-3.9 4.8-5.25zm3.45-2.55l1.2-1.2-.15-1.35.6-.6v-.3l1.05-1.05v-.3l1.5-.6 1.05-1.5-.3.15.75-1.5 1.05.15 1.2.75c-1.5 2.1-4.5 6.15-6.45 7.8h-.15l-1.35-.3v-.15zm-39.15-.6l-.15-1.35c0-.75.45-1.95.9-2.55l.6.75v1.05l-.45 1.2-.9.9c-.15.45.45 1.95.45 2.7 0 1.2-.15 2.25-.3 3.45l-.15.15-.45 1.5-2.25-1.35c.15-1.05-.3-2.25-.9-3.15 1.2 0 1.8 0 1.2-1.5l1.2-.6v-.3l1.2-.9zm5.55 39.45l-.3 1.2h-.15c-.9 0-.9 1.05-1.2 1.65-.6.3-1.2 1.05-1.5 1.65v.3l-1.5.6-.9-.45c0-2.1 3.75-4.2 4.95-6.3l.6 1.35zm13.8-16.5l.45 1.5-2.25.75-.15.75-.9 1.2c0 .75-1.2.9-1.8.9l-.75-.9.6-1.05c.75-.6 1.65-1.35 2.55-1.65l.3-1.5 1.2-.3.75.3zm74.4-94.8l-1.35 1.95c-1.35.45-2.4 1.35-3 2.7a4.39 4.39 0 0 0-1.8 1.05v-.6c1.05-1.35 2.4-2.7 3.15-4.35.6 0 1.35 0 1.95-.15l.45-.6h.6zm-92.4 58.05c.3.45.9 1.05 1.05 1.65a11.42 11.42 0 0 0-.45 3.15l-1.2.45c.15-.45.3-1.05.3-1.5 0-1.2-.75-2.1-.75-3.3v-.3l1.05-.15zm6.6 48c.75 0 .9 1.05.9 1.65-.6.75-1.05 1.65-1.5 2.4l-1.05-.3c.45-1.2.9-2.55 1.65-3.75zm-4.8-58.2c-.3.9-.6 1.95-.75 3l-1.35.75c-.15-.3-.15-.6-.15-.9 0-.6.15-1.05.15-1.65.6-.45 1.2-1.05 1.5-1.8l.6.6zm9.6 57.6l.3.3-.9 1.2c-.9 0-1.8-.3-2.55-.75.45-.45 1.35-.75 1.95-1.05l1.2.3zm65.7-106.5a4.62 4.62 0 0 1 .45-1.95l1.35.3-.75 1.8-1.05.6v-.75zm-83.55 56.25l1.35-.15h.45l-.75 1.5-1.05.9v-2.25zm11.55 4.95h.3l.15-1.65c0-.75-.9-1.2-1.5-1.35l1.05 3zm-20.7 77.85l.15-.45h.45v.15c-.9.9-1.5 1.95-1.95 3.15l-.45-.3v-1.2l.9-.45v-.15l.9-.75zm92.25-121.05l-.6 1.05h-.15l-1.35-.15c.3-.45.75-1.05 1.2-1.35l.9.45zm-53.55 77.7l.15.9.9-.3c.15-.3.15-.6.15-.9 0-.45 0-.9-.15-1.35-.15.6-.75 1.2-1.05 1.65zm73.2-117.45l1.05.75.45-1.05-.9-1.05-.6 1.35zm-97.5 142.95v-.3h.45l.3.3-.75.9h-.9l-1.2-.6.45-.3.9.6.75-.6zm.6-63.9v1.05h-1.2v-1.35l1.2.3zm1.65-11.55v1.05l-.9.15-.45-1.5 1.35.3zm20.4 51.45c-.45.6-.45 1.5-.45 2.25h.15c.6 0 .75-1.05.75-1.5l-.45-.75zm-25.8 24.45l.45 1.05-1.2 1.8.15-1.65.6-.9v-.3zm-33.15 1.2l.3 1.35-.3 1.2-.3.3-.3-1.2.6-1.05v-.6zm38.1-55.95l.15 1.2c-.75-.15-1.2-1.05-1.5-1.65l1.35.45zm51-4.2l.15.75.75-.3v-1.95c-.15.6-.6 1.05-.9 1.5zm31.8-52.65l.9-1.35-.3.9c-.6.75-1.5 1.65-2.4 2.1l.9-1.2.9-.45zm-79.65 52.95c.15.75 1.05 1.5 1.65 1.95l-.3-1.05-1.35-.9zm72.3-60.6l.9-1.5c-.45 1.2-1.05 2.4-2.4 2.85l.3-.6 1.2-.75zm-64.05 106.5c-.3.45-.75 1.05-.9 1.65l-.15-1.5 1.05-.15zm66.6-93.3v1.05l-1.05-.9 1.05-.15zm9.9 2.7c.3 0 .45-.15.75-.3l-.6.75-.75.3.6-.75zm-121.35 84.9v.75l-.6-.3.15-.6.45.15zm32.55 19.65c-.3.3-.45.75-.6 1.05v.3l-.15-1.2.75-.15zm71.55-100.5c.45.15.9.3 1.2.6v.45l-1.2-1.05zm-73.35 103.65l.45-.45.45.15-.3.3h-.6zm27.15-73.65l-1.05.6.6-.6h.45zm28.2-27.9l-.9.6.6-.6h.3zm-66 114.15l.15.3-.3-.3h.15zm88.28-1.95c0-.3.3-.75.45-.9l.3-.75-.3.45.6-1.35 2.7.15c1.05 0 2.85-1.05 5.7-1.05.9 0 1.5-.45 2.4-.45l.3-1.2h.75c.15.3.6.75.9.75s.75-3.9 4.2-1.2l.6-.45c.45 0 1.8-.9 1.8-.15 1.65-.6 5.1-.45 5.4-2.4l2.25-.15v.15c0 .3.15.3.45.3l.6-.15c-.15-.15-.6-.45-.6-.75 0-.15.45-.15.45-.15l1.5-.45c.15 0 1.05.45.6.45h-.3c0 .6.6.6.9.6 1.65 0 3.75-.9 5.25-1.5 0-.9 2.7-.6 3.15-.6.3-1.05 2.1-1.05 3.15-1.05.45 0 1.5.45 1.95.6 0-.45.6-.6.9-.6.75-.3 1.35-1.05 2.25-1.05l.75-1.2c1.65 0 2.85.6 3.15-1.2l.3.75h2.1l1.05-.6c1.65-.15 2.85-.15 4.35-.15 1.2 0 2.55-.75 4.05-.75l-.6-1.2c0-.3 0-1.2.45-1.2.75.45 1.65 1.2 2.1 1.95h2.25c.45 0 1.05-.15 1.35-.6l.9-.45h1.35l.3-.6 4.35.15 1.05-.6s6.9-1.5 10.2-1.5c1.8 0 11.25-.45 11.25-2.4-.45 0-1.2.15-1.5.6-.9 0-2.7-.3-3.6.3h-4.05c-.15.15-.3.6-.45.6s0-.15 0-.3c0-.9-1.05-.3-1.35 0h-2.1l1.05-.45c2.85 0 4.8-1.5 8.55-1.35 1.05-1.5 3.45-.6 5.1-.6 1.8 0 3.15-.6 5.1-.6.3 0 .9 0 .9-.45 1.35 0 1.95-.3 2.85-1.05h.75c2.25 0 4.5-.45 6.75-.45l.15-.6h-.3c0-.15.75-.45.9-.45-.3-.6-.9-1.05-1.5-1.35-1.05 0-1.95.75-2.7 1.35-.15-.45-.75-1.35-.75-.15h-1.35l-.75-.6h-.6c-.3 0-1.2.3-1.5.6l-3.15-.15c-.15-.3-.3-.75-.6-.75-.45 0-.75.45-.9.75-.75 0-.75-.6-1.65-.6-.75 0-1.05 1.5-2.7-.15h-1.05l-.6.6c-.45-.45-.9-.6-1.5-.6 0-1.35-6.15-.9-6.75-.9-1.35 0-1.65.15-1.65-1.35l1.65.15c.15.15.3.6.45.6s.15-.15.15-.3l1.8-.3c0-.3.15-.6.45-.6s.45.45.45.6c.3 0 1.05-.15 1.05-.6.9 0 5.1.6 5.7-.45h.3v-.15c0-1.65-3-.3-3.45-.3v-.15c0-.75-1.05-.45-1.5-.45-.45.3-3 1.2-2.7-.15-.75 0-.9.6-1.65.6v.15c0 .45-.3.9-.9.9v-.15c0-1.2-1.95 0-2.55 0-.3 0-.45-.15-.45-.45-1.5-.45-3.15-.75-4.8-.75l-.3-1.2c2.4.15 4.05.9 6.6.9l1.05-.45h2.1l.3-.45 3.9.15c.15 0 .6 0 .6-.15 0-.6-3.75-.6-4.35-.6l-1.8-2.25c-1.05.15-2.1.3-3.15.3s-7.5.45-7.8-.75c-1.05 0-1.95.45-2.85.45-.45 0-1.5 0-1.5-.45s.6-.6.9-.6l.75-.45c-.15-.15-.3-.6-.6-.6s-.3.3-.3.45l-1.2.3c0 .15-.15.3-.3.3-.45 0-1.05-.3-1.35-.6 0 .45-.9.6-1.2.6 0-1.05-3.3-.45-3.3-1.5v-.15c.45-.3 2.85-1.35 2.85-.15.75 0 2.85-.45 2.85-1.2h1.05c2.4 0 4.8-.45 7.35-.45.3 0 2.1.15 2.1-.3 0-1.05-7.5-1.65-8.7-1.65-4.35 0-8.85.9-13.35.9-1.2 0-3 .45-4.65.45l-1.2.6-1.8-.15-1.65.9-1.95-.15c-1.65 0-3.6 1.05-5.1.9-.6.6-9.45 1.8-12 1.5l-.15.6c-2.1 0-4.05 1.05-5.85 1.05-.45 0-.9.15-.9.6l-1.2.6h-2.7l-.15.6c-.6.3-1.35.6-2.1.6-.3 0-.75-.15-.75-.45v-.15l.3-.45 1.05-.45.3-.3c0-.6.6-.9.6-1.65l-1.65-.75c-.6 0-.6.6-1.2.6 0 .9 0 2.4-1.2 2.4l-.15.75c-.6.15-1.2.75-1.5 1.2l-.3-.15.3-.15-.15-.9h.15c.45 0 .6-3.9 1.8-4.8 0-.6.3-.45.75-.45.15 0 .3-.15.45-.3l1.35-.9c.3-1.35 2.4-5.85 2.4-6.6l1.05-1.2c0-.9.45-2.4 1.65-2.4.15.15.3.45.6.45.15 0 .75-1.95.9-2.25l1.95-1.2c.15 0 .45 0 .45.3s-1.8 2.1-1.95 2.25c-1.95 2.25-3.3 4.65-3.75 7.5h1.05c.45-1.35 1.5-4.05 2.55-5.1 0-.45.15-.9.6-1.05.45-.3.75-.9.75-1.5.9-.6 1.65-1.5 2.1-2.4l.6-.15.15-.9c1.5 0 .15-1.35.15-1.95s4.2-.3 4.8-.3 1.2-.15 1.2-.75c1.05 0 .3-1.05 1.35-1.05.15 0 .6 0 .6-.3s-.6-.3-.75-.3V265l3.3-.15h1.8c.3.45 1.05.9 1.5 1.2.6 0 .6-.6 1.35-.6l.6.6 3.9-1.5c0-.3 0-1.2.45-1.05.3.15.75.6 1.05 1.05h1.05c.3-.45 2.55-.75 3.6-1.8.6.6.9 1.2 1.8 1.2.6 0 .6-.6 1.2-.6 0-.15 0-1.2.3-1.2.15.3.6 1.2 1.05 1.2.3 0-.15-1.2.45-1.2s.9.45.9.9h1.05l1.65-.9 1.35.6c0-.75 1.5-.75 1.95-.6.6-1.2 4.35-.3 5.25-.15l1.05-.75c.3 0 1.05 0 1.2-.45 1.5-.15 4.35-.75 5.7-.75 0-.9-.75-.6-1.35-.6-.15 0-.3 0-.3-.3h5.55l.6-.6 1.2.15c.45 0 .6-.3.6-.75 0-.75-1.5-.75-1.95-.6-1.2-.9-2.25-.15-3.15-.45l-.15-.45c-1.5 0-2.1 0-2.1-.15l2.25-.3c0 .3.3.45.45.45.9 0 1.65-.45 2.4-.75 2.85-.3 5.55-.6 8.4-.6.15-.9 1.05-.6 1.65-.6 1.05 0 1.35 0 1.35-1.2 0-.3-.15-.45-.45-.45-.9 0-1.65.45-2.4.9-4.2.45-8.7 1.35-12.45 1.35-.9 0-1.65.9-2.55.9l.15-1.05-1.2-.45c0 .9-.6.45-.9 0h-.45c-.45 0-.9.15-.9.6-.9.9-3.3.6-4.35.6l13.5-4.2.6-.6c.45 0 1.35 0 1.65-.6l4.8-.6c0-.9 3-.6 3.3-.6l.15-1.05H598c.45 0 1.2 0 1.2-.6l1.05-.6c.15.15.45.6.75.6s.3-.45.3-.6c.15-.15.6-.3.6-.6 0-.15-.45-.15-.45-.15l-1.05-.45c-.15.6-.6.9-1.2.6 0 .3-.15.6-.6.6s-.6-.3-.6-.75c-.45 0-1.05.15-1.05.75-1.5 0-2.7-.75-4.2-.75 0 1.95-4.2-.45-4.35 1.2l-3.6-.6.3-.75c-.75 0-.15-.6-1.05-.6 0 1.2-1.05.9-.15 1.2l-1.05-.15-.45-.3v.3c-.6-.15-3.9-.3-3.45-.9 2.4-.9 4.65-.45 6.9-1.95 2.1 0 10.8-.75 12.45.6h2.55c.15-.45.75-.6 1.2-.6s1.05.15 1.35.6h1.05l.15-.6c-.9 0-.15-.75.15-1.05 0-.9-3.9-.3-4.65-.3 0 .15-.15.3-.3.3-.45 0-.9-.3-1.2-.6-.3.45-.75 1.05-.75 0-.15 0-1.2 0-1.2-.3 0-.45 3.45-.3 4.65-.3 0-.75-.6-.45-.6-1.2-.6.3-1.5.6-2.25.6-.3 0-.6-.15-.6-.45a27.62 27.62 0 0 1-4.95.45v-.3c0-1.95-7.5-.9-9-.9-.15-.15-4.65-.45-6-.9 0-.75-1.35-.6-1.8-.45-.15-.3-.9-1.05-1.05-.3l-1.2.3c-.6-1.05-3.3 0-3.15-1.2l-3 1.2c-.3-.45-.9-.6-1.35-.6l-.3.6h-2.7l-.75.6c-.3-.6-.75-1.65-1.5-1.8-1.05.3-2.1.75-3 1.35-4.65-.15-9.15.9-13.8.6.15-1.2 1.65-.9 1.8-2.1-.15-.3-.45-1.05-.9-1.05-.3 0-.3.6-.6.6s-.3-.45-.6-.45c0-.6.45-3.45 1.2-3.45.45 0 1.2.3 1.65.45l.3 1.8 1.5-2.25c.15 0 .6 0 .6-.15 0-.6-1.2-.9-1.2-.15l-.6-.15.6-.45.9-1.5 1.35.75c.75-1.35 1.65-2.7 2.55-3.9-.15-.15-1.35-.6-1.35-.75s.15-.15.3-.15c1.05 0 .15-.45-.15-.6 0-.3.15-.6.45-.6.45 0 .6.75 1.35.75.3 0 .75-.3.9-.6l1.05-.6c2.1 0 4.2-1.35 6.3-1.35 1.2 0 2.25.6 3.45.6.45-.3 3.15-1.8 3.15-.6l3.15-.45 1.35.45c0-.15 2.7-1.05 2.85-1.05.15.15.6.45.9.45s0-.6.45-.6.9.45 1.2.75l.75-.6c1.65 0 3.3-.6 5.1-.6.3-1.95 1.8-1.2 3.6-1.5 0-.3 0-.9.45-.9.3 0 .6.3.75.6v.3s0 .3.15.3c.3 0 .75-.3.9-.6h3.15c.6-.3 1.35-.75 2.1-.75.6 0 .3.75.6.75s.45-.6.6-.75h2.7c0-.9-1.8-.75-2.4-.6l-.9-1.65-1.05.6h-5.1c-.15 0-.75 0-.75.15s1.8.6 2.1.75l-1.8.75c-.3-.45-1.05-.6-1.5-.6-.45-.3-.6-.9-.6-1.35 0-.15 0-.9.3-.9.15 0 .3.75.75.75l.15-.15v-.15c0-.3.45-.45.75-.45l.45.6 1.65-.45v.3c0 .15 0 .3.3.3s.75-.3.9-.6v.3s0 .3.15.3c.45 0 .75-.45 1.05-.75.15.3.45.6.75.6s.3-.45.3-.6c.75 0 1.2-.6 1.95-.6 1.2 0 1.2 2.4 2.4 2.4.9-.75.3-.6 1.65-.6.15 0 1.35 0 1.35-.45l-.45-.45v-.15c0-.45.3-.75.75-.75l1.05.6.3.6 1.2.45h-.3c-.45 0-.9.15-.9.6-.15 0-.45.15-.45.3 0 .3.6.3.75.3h4.65c4.65 0 9-.9 13.5-1.5.45.15 1.2.45 1.65.45 1.2 0 2.25-1.2 4.65-1.2l1.35-.9c2.55-.45 4.8-.9 7.35-.9V214c0-.75 2.1-.3 2.55-.3l1.35-.75c-.6-1.2-6-.6-7.05-.6-5.4 0-10.95-1.65-16.2-1.65-1.05 0-2.1-.6-3.3-.6-.15 0-1.05-.45-1.05-.45 0-.9 1.65-.6 1.95-1.35h1.2c.3 0 1.8.6 2.1.75l.15-.75c0-1.5-3.6-1.05-4.35-1.05-.15 0-.3 0-.3-.15 0-.3.45-.75.6-.9h4.5v-.15c0-.75 3.75-.75 4.65-1.05.3.45.9.6 1.35.6l1.35-.6c1.35 0 4.05.15 4.05-.3 0-1.5-6.15-.15-6.15-1.2 0-.15.6-.15.6-.15 1.2 0 7.35.75 7.35-.6l-.15-.75h-5.7l-2.1.15-1.2 1.2c-.75 0-.6-.75-1.5-.75 0 .45-.15.75-.6.75s-.6-.45-.6-.75h-1.8c-.9 0-1.35.75-2.4.75l-.9.6-.3-.6c-.45 0-1.2.15-1.5.6l-.6-.6h-1.35c-.15.45-1.65.9-1.65.3 0-.45 1.05-1.35 1.5-1.65h3l1.05-1.05h3.75v-.15c0-.45.6-.45.9-.45l.75-.6s-.3 0-.3-.15c0 0 1.05-.45 1.2-.45 0 .75 1.65.6 2.1.6l.9-.6c-.45 0-1.05-.15-1.35-.6-.45 0-1.2-.15-1.5-.45h-6c-.15-1.05-2.1-.45-2.7-1.35-5.55 0-11.7-2.4-16.95-2.4h-24.3c-.75 1.05-5.1.6-6.15.6l-.75.6c0 1.35-4.95.45-5.85.45l-2.7.9c.3-.3 4.2-6.75 4.2-6.75 0-.15-.3-.3-.45-.3l-3.9 4.5v.75c-.3.75-.9 1.5-1.35 2.1v.15h-.3l-2.25.15c.3-.15 2.4-2.4 1.2-2.55 1.05-1.5 1.95-3.3 3.3-4.65l-1.8-.45c-.6.45-1.2 1.05-1.5 1.65l.15-1.05.75-.9.15-1.5c-2.4.75-2.25 3.45-4.2 3-1.5 1.5-3.3 3.3-4.5 5.1.15 0 .45.15.45.3l-.15.15c-.6 0-1.2-.45-1.8-.6l.15-.9 2.1-2.55c-.45 0-.45-.3-.15-.6l-.9-.3-1.2.6c.45-.9 1.05-2.1 1.8-2.85l-.15-1.05c0-.3.3-.6.45-.9v-.6l2.1-3.15c0-.15.6-.75.3-.9v-.75c1.2-1.65 1.95-3.3 3.3-5.1v-.6c.15-.15 3-3.45 3-4.05h-.15c-.45 0-1.95.6-2.4.9-1.2 1.05-2.25 2.4-3.3 3.6l.15.75c-2.4 2.85-4.65 5.25-6.9 8.4 0 .75-.45 1.95-1.5 1.8l-2.25 2.7-.15 1.5c-1.35.45-2.85 3.3-3.15 4.5h-.15c-.75 0-.9 1.05-1.05 1.65-.3.6-.9 1.95-1.5 2.25l-3.6.15c-1.05.75-5.7 1.05-7.65 1.5 0 .9-2.85.6-3.3.6l-1.05.75-.9-.15-.3.15c-3.15 0-6 1.05-9.15 1.05l-1.2.6h-.3c-1.05.6-3.75 1.35-4.95 1.2.15.3-.45.6-.75.3l-1.05.15c0 .15-4.65 1.35-5.4 1.35l-.6-.15c-.9 0-2.7 1.5-3.45.75-1.05.45-2.55.45-3.45 1.2-4.05-.3-8.85 2.55-12.9 3l.45.3h.9c1.65-1.05 5.1.3 6-.6l.9-.15.45.3 1.05-.3 1.5.3-.15.3-.6.3-.3.75.9-.6 1.05.9v.45h1.5c1.05 0 4.2-.6 4.95-.9l.3-.15.6.3-.15.3h-.75c0 .3-.6.6-.9.45-.45.15-1.35.3-1.5.9-.45.15-1.05.15-1.5.15l-.75.3-.6-.3-.6.6-.6-.15c-.15 0 .15.15.15.3-.3.15-.75.15-1.2.15l-.75-.3c-.6 0-1.2.3-1.65.45l.3.75h.75l.75.3c.45-.15 1.2-.3 1.5-.75l.3.15c.75-.15 1.5-.3 2.25-.6l.45.45-.9.15.3.75.75-.15c.45.15 1.05.15 1.5.15l.45.6c.3.15.75.3 1.05.3l.6-.15c-.6.45-1.35.75-1.95 1.05l-.3.6.6.3 1.05-.3c1.5.45 2.85.45 4.5.45-.45.45-1.2.9-1.95 1.05l1.35.9c.45-.45 1.5-.6 2.1-.75l1.5.3.9-.45c.6.15 1.5-.15 2.1-.45l.9.15 1.5-.75.6.15c0 .15-.15.6-.3.75l-1.5.45c0-.15-.3-.45-.45-.45v.3l-.75.3-.3.75c.45-.3 1.05-.45 1.65-.6l.15.6.75-.75 2.25-.45-.6-1.5c-1.05.15-2.1.3-3.15.3l.15-.45c1.8-.3 3.75 0 5.55-.45l.15.6h-.75a2.59 2.59 0 0 1-.9.9l1.2.15c1.05 0 2.1-.15 3.15-.3l.45-.9-.9.3c-.15-.15-.3-.45-.6-.45s-.45.3-.6.6l-.6.3-.15-.45c1.05-1.05 1.2-1.65 2.4-1.65s.6-.45 1.65.75l-.6.15-.45.75.15.75.6-.45c.75.15 1.35.15 2.1 0l.6-.6h.3l-.45-.75h.75c.45-.3.9-.6 1.35-.75l.3.6.75-.45v-.15h.6c.3.45.75 1.05 1.2 1.2.75 0 1.5-.3 2.1-.3l.15.45c-.75 0-.75 1.2-.75 1.8-.45.75-.9 1.5-1.2 2.4-1.05.6-1.8 1.95-1.8 3.15l-1.2.75c-.15.45-.3 1.05-.75 1.35 0 .45-.15 1.05-.45 1.5 0 .6-.15 1.2-.6 1.65-.15.9-.75.75-.75 1.95-.45.3-.6 1.05-.6 1.5l-1.2 1.35v1.5c-.45.6-.75 1.35-1.05 2.1l-.75.45-.6 1.05-.6-.15c-1.2 0-2.25.6-3.45.6v.3l-.9-.15-.9 1.05-.6.3-.75-.6-1.2.15-.45.45c-2.1.75-4.5.6-6.75 1.05l-.3.45h-1.65v-.15c0-.45-.15-.6-.45-.6-.45 0-.6.45-.6.75-.3-.15-.75-.3-1.05-.3-.45 0-.75.3-.75.6-.6-.15-1.65-.15-1.65.75-.75 0-1.05-.6-1.8-.6 0 1.2 0 1.2-1.2 1.2-.3.45-.9.3-1.35.3-.3.9-1.35.75-2.1.75-.45 0-.45.45-.45.75-1.95.9-4.2 1.65-6.3 1.95v.15c0 .6-.15 1.35-.75 1.35l-.75.75-3.3.6-2.25 1.8.3.6h4.2c0-.45 4.2-1.2 4.65-1.2l.15-.6 2.7.15c0-.3.15-.75.45-.75.75 0 1.35.9 2.1.9.3 0 .3-.3.3-.6.15-.3.6-.75.9-.75s.3.6.3.75l1.35-.6c.3-.3.75-.75 1.2-.75.3 0 .3.45.3.75.3.15 2.25 1.05 2.25 1.65 0 .15-.15.15-.3.15l-.9.75h-1.5l-.45.6-1.65-.15-.9 1.05c-.15.3-.75 2.55-1.05 2.55-.15 0-.15-.45-.15-.45l-1.2-.6.6 1.2c-.45 0-1.2.15-1.2.75l1.05 1.2c.75-.15 1.5 0 2.25.3l1.35-.75c.75 0 .75.6 1.95.75.15 0 .9.45.9.45 0 .15-.3.15-.3.15-1.5.9-3.75 1.5-5.55 1.8-.6 1.05-1.35 1.65-2.55 1.65-.3.45-1.05.6-1.5.6 0 .45-.75.45-.9.45-.15.45-.75.75-1.2.75-.15.45-1.5.15-1.5.6 0 .15.45.3.6.3l1.8.3c0-.9 1.05-.6 1.65-.6l1.2-.6h.6c0 1.05.15 1.35 1.2 1.35l-.3-1.5c2.1-.9 3-.6 5.55-.6 0-.45.75-.45 1.05-.45 0 .9.75 1.05 1.5 1.05 1.05 0 1.95-.3 3-.15l.45-.6.3.6h3v-.15c0-.6 1.05-.45 1.5-.3-.15.75-1.05 1.2-1.05 2.1-.45.45-.6.9-.75 1.5-.6 0-.45.3-.45.75 0 .6-1.35 0-1.35.75 0 .6.75 1.2.75 1.8 0 .3-.15.3-.45.3l-.9 1.2c0 1.5-2.1 4.35-3 5.4h-.3c-.45 0-.9.15-.9.75.3.15.6.6.6.9s-.3.3-.45.3l-.3 1.5-2.25 1.5c-.15 2.1-1.5 4.05-1.5 6.15-1.5 0-2.7 4.35-2.85 5.55-.45.9-.9 1.8-1.2 2.7-.45.3-.6.9-.6 1.35-.45 0-.45.3-.45.75 0 .15-.15.3-.45.3l-.3 1.35-.3.3-.9.15c0 .45-.75 0-.9 0l-1.05.6c-1.2-.3-.45 1.05-2.55 1.05-.9 0-1.8.45-2.7.3-.6.3-1.35.75-2.1.6l-.3.3-.15-.3c-1.05.45-2.1 1.2-3.3 1.35 0-.15-.3-.6-.45-.6s-.15.45-.15.6l-1.05.15-1.2.75-2.7.3-.6-.45-2.55.45c0 .45-.15.3-.6.3-.15 0-.3.3-.3.45-.3.15-1.05.75-.9 0-.75.15-1.5.45-2.25.45l-.3.45-1.65-.3c-.3.3-.9.15-1.35.15l-.75 1.05h-.3c-.3 0-.6.15-.6.6-.6.15-1.35.6-1.95.45l-.6.45-3 1.05c0 .45-.6.15-.75.15-1.05.45-2.25.75-3.3 1.35v.15c0 .6-1.35.15-1.65 0l-.75.75 1.65.15c1.5 0 3-.45 4.5-1.05.6.15 1.5.45 2.1.45.3 0 .75 0 .9-.3.9 0 1.65-.75 2.55-.6.3-.3.9-.15 1.2 0l1.2-.3c0 .45.6.45.9.45.9 0 1.95-.3 2.7-.9l1.2.3 2.25-.6v.15c0 .6 1.65-.15 1.8-.3h3c0-.15.15-.3.3-.3.3 0 .75.3.75.6s-.75.15-.9.15l-1.2.45c-.45-.15-3 .3-3.45.6h-.45c0 .3.45.45.6.6h1.95c.45-.15 2.1-.9 1.95.15l1.2-.3c.3-.75.9.15 1.05-.75l1.05.3c-1.2.45-3 1.35-4.35 1.35-.6.45-1.35.75-2.1 1.05h-.3c-.15 0-.6 0-.75.15l-2.25 1.2h-.3c-.75 0-1.35.3-1.95.6l-.45.75h1.05l.6-.3c1.35.45 10.35-1.95 11.25-2.55 1.95.3 4.2-.15 6-.9.15-.15.45-.3.75-.3l.75.3c0 .15-1.35.3-1.65.3-.15 1.05-1.65.3-1.8 1.35l-2.55.75h-.3c-.75 0-.6.6-2.1.6-.45 0-.45.45-.6.75l-1.2.3h-.15c-.75 0-1.2.75-2.1.6l-.9.6-1.65-.15c-.15.6-.75 0-.9.75l-.75.75h-1.35c0 .9.15.75 1.05.9l.9-.3 2.1.3c0-.15.15-.45.3-.45s.3.3.45.45l2.25.6.75-.75 1.05-.45 2.1.45c.15-.45.75-.45 1.2-.3.3.45.3 1.2.3 1.65.45 0 .9.3.75.9l1.05.9.45-.6 2.85.6.75-.3-1.05 1.5.15.3c0 .45-.75.3-.15.9 0 .45-.3 1.35-.9.75l-.45.9c0 .45-.3.9-.6 1.2l.3.45-1.35 1.2c0 .45-.45.75-.75 1.05v1.05c-.6.6-.3.75 0 1.35-.45.9-1.95 4.65-1.95 5.25-.6.9-1.5 3.3-1.65 4.35.15 0 .3.15.3.3l-1.05 1.05v1.2l1.35-1.2c.6-1.2 1.2-3.15 2.1-4.2.45-.6 1.95-1.5 1.95-2.4.3-.3 2.1-4.05 2.25-4.35.3-.15.9-.6 1.35-.3l.6-1.05v-.3c0-.3.3-.6.45-.75l-.15-.75.9-.75c1.05-2.1 2.7-3.9 4.05-5.85.3-.15.75-.45 1.05-.45 0 0 .15 0 .15.15s-.45.45-.6.6l-.45.9c-.3.3-.75.75-.6 1.2-.75.6-1.5 1.35-1.5 2.4h.15c.75 0 1.5-.75 2.1-1.2 0-.3.45-2.85 1.2-1.95l.6-1.05-.15-.3c0-.45.75-.3.3-.9l1.05-.75c-.3 1.2-1.2 3.6-2.1 4.35l.15.6-.6 1.8c-.3.15-.75.75-.45 1.05-.3 1.65-.9 3.3-1.65 4.65l.3.6.9-.45.15-.9c.6-.6.9-1.35 1.05-2.1 1.65-1.8 3.6-6 4.2-8.25l1.8-2.25.3-1.2 1.05-.15.15.9-1.2 2.4c-.45.3-.6.75-.6 1.2 0 1.5-1.65.45-.15 2.25l-1.8 3 .15 1.2-1.35 1.2.15.3c0 .3-.75.3-.3.75l.3 1.2-1.05 1.05c.15.15.3.3.6.3s.6-.45.9-.6l.3-.75 1.65-1.5-.15-.3c0-.3.6-.15.75-.15l1.8-1.5-.3-1.2a1.13 1.13 0 0 0 .75-1.05c2.85-2.55 3.3-4.8 6.9-7.05l-.15-.45 1.8-1.8h.6l-.15.6s.3-.15.45-.15c0 0 .15 0 .15.15zm41.55-16.5l1.05.75h.3c.45 0 .6.45.6.9h2.1v-.15c0-.45.15-1.05.75-1.05 1.35 0 2.7.75 4.2.75.15 0 .75.3.75.45s-.3.15-.3.15h-2.1c-.15.15-2.85 1.2-3.15 1.2 0 0-3.75 1.05-4.05 1.05-.6.45-1.2.45-1.8.45-1.2 0-3.6.75-4.95 1.05-.15-.15-.6-.45-.6-.75 0-.45.75-.3.9-.3l1.65-1.2 1.5.15c.6 0 1.05-.9 1.05-1.35h-2.1v-.3c0-1.05 3-1.2 4.2-1.8zm45.75-92.25l1.05-.15 1.05.6c-.45-.15-.9.15-.9.6h-4.05c-.45 1.05-3.15.3-3.15.9 0 .75 1.65.15 1.65.75 0 .3-.45.3-.6.3h-4.2c-1.35 0-2.4-.6-3.75-.6-.15 0-.6 0-.6-.3 0-1.05 3.9.15 3.9-1.05 3.9 0 3.6-1.05 6.9-1.05 1.65 0 .6-1.95 2.4-1.5 0-.15 0-.3.15-.3.3 0 .6.45.75.6l-.6 1.2zm-55.65 93.6c.6.15 2.7.6 2.7.75 0 .3-1.95 1.05-2.1 1.05-1.2 0-2.1.6-3.15.6-.3.45-.9.6-1.35.45l-3 .6-.45-1.2c1.8 0 3.3-1.05 5.25-.9l.6-.75.6.15c.45 0 .9-.15.9-.75zm87.3-9.3c0 1.2-5.1.45-6 .45l-1.05.45h-2.4l-.3-.6h-.15c-.45 0-.75.3-.75.9.3.15 1.95 1.65 1.95.6l.6.45c1.35 0 3-.45 4.65-.45 1.05-1.35 3.3-.6 4.65-.6.15 0 .45 0 .45-.15 0-.6-1.2-1.05-1.65-1.05zm-19.8-93.6h4.5c.3.3.75.75 1.35.75.3 0 .45-.45.45-.75.3 0 1.5 0 1.5.45-2.1 1.95-2.4.75-4.2.75-.75 0-1.35.45-2.1.45-.3.3-.75.6-1.2.6-.3 0-.45-.15-.45-.45l-.6-.9h.15c.45 0 .6-.6.6-.9zM565.6 305.5h1.8c.15.15.3.45.3.6 0 .3-.15.45-.45.45l-.3.45h-1.2l-.6.6h-.9c-.45 0-1.2-.15-1.5-.6l-1.65-.15c0-1.35 3.3-1.35 4.5-1.35zm-82.35-37.2c-.3.3-.6.75-.6 1.2 0 .6 3.6.45 4.2.45l-.15-1.5-3.45-.15zm88.5 23.85c1.35.6 3.3 1.05 4.8.75v.3c0 .45-.15.75-.6.75h-2.1c-.75 0-1.5-.6-2.85-.6.15-.6.75-.6.75-1.2zm28.05 10.8c0 .9-3.3.6-3.3.9v.15c.75.3 1.8.6 2.7.6.15 0 .6 0 .6-.3 0-.9 3.45-.15 3.45-1.2l-3.45-.15zm-46.2-41.7l.9-.3 3.75.15-4.05 1.05-.45.6h-1.05l-.3-.9.6-.3h.6v-.3zm-36.6 54l2.7.75c-.15 0-2.25.45-2.25.9 0 .15.3.15.3.15l1.5.3-2.1.3c-.3-.3-1.2-.75-1.2-1.2 0-.15.3-.15.3-.15l.75-1.05zm38.7-109.65c.15 0 .15 0 .15.15 0 .3-.45 1.2-.6 1.65-.3.15-.6.75-1.05.6l-1.35-.3c.6-.75 1.65-2.1 2.85-2.1zm.9 102c.3.15 2.25.6 2.25.9-.3.15-.9.15-1.35.15-.75 0-1.35.45-1.95.45h-.45l.3-.75h.45c.45 0 .75-.3.75-.75zm7.65-86.85l-.45 1.2h-1.05c-.75 0-.75-.6-.75-1.2h2.25zm-26.7 90.9c0 .15 0 1.05.15 1.05.6 0 2.1-.45 2.1-1.05h-2.25zm-19.2-23.85c.6 0 .75-.45.6-.9.15-.15.6-.3.6-.6 0-.15-.45-.15-.6-.15-.45 0-1.05 0-1.05.6l.45 1.05zm8.1-18.6l2.1-.15c0 .6-.45.75-.45 1.35h-.45c0-.6-.3-.6-.75-.6-.3 0-.45-.3-.45-.6zM505 319h1.2c.15 0 .45 0 .45.15 0 .45-1.65.9-1.8.9s-.45 0-.45-.3.45-.6.6-.75zm45.9-129.6h.75c.75 0 1.05-.6 1.5-1.05l-.45-.45c-.6.45-1.35.9-1.8 1.5zm43.95 101.25c0 .45-.45.9-.45 1.05s.9.15.9.15c.15 0 .75 0 .75-.45s-.75-.75-1.2-.75zm4.8-72.9c0 .45.45.6.75.6l1.5-.15c0-.6-.75-.6-1.2-.6l-1.05.15zM568 293.95l1.2-.15v1.2h-.6c-.75 0-.6-.45-.6-1.05zm39.3-86.1l1.05.15c0 .75-.6.15-.6 1.05l-1.2-.15c0-.75.6-.3.75-1.05zm-75.15 102l1.2-.15-.15 1.2c-.45 0-1.05.15-1.05-.45v-.6zM512.8 295.3l-1.05 1.05s0 .45-.15.45-.3-.3-.45-.45c0-.45.15-1.05.75-1.05h.9zm12.45-24.9l1.2-.15-.15 1.2c-.45 0-1.05.15-1.05-.6v-.45zm-2.4 1.05h1.2v1.05c-1.05 0-1.2 0-1.2-1.05zm67.8-61.2c0-.3.45-.3.6-.3.3 0 1.8.3 1.8.6 0 .15-.6.15-.6.15-.6 0-1.2-.3-1.8-.45zm-14.25 86.1l-.45 1.05-1.65-1.05h2.1zm66.75-84l.3 1.2 1.05-.6-.3-.6h-1.05zm-128.55 6.9c-.3.3-.6.6-1.05.6-.3 0-.6-.15-.75-.3.3-.15 1.05-.45 1.2-.75l.6.45zm.3 65.1c.15 0 1.35.45 1.35.6s-.75.15-.75.15 0 .6-.15.6c-.3 0-.45-1.05-.45-1.35zm-9.45 14.85l.6.3-.15 1.35-.6-.15.15-1.5zm-5.55-82.05l.9.15.3-.15c0 .15-.15.3-.3.45-.6.3-1.35.15-2.1.15l1.2-.6zm103.65-13.8h1.65c-.3.3-.9.75-1.35.75-.15 0-.3-.3-.3-.45v-.3zm-36.3 16.35h1.8c0 .45-.6.6-.9.6l-.9-.6zm-57.6 75.15c0 .15 0 .3-.15.3-.45 0-.75-.75-.9-1.05l.6-.15.45.9zm92.1 4.65l1.65.15c0 .3-.45.45-.6.45-.45 0-1.05-.15-1.05-.6zm-103.5-81.9l-.3.6-.6-.3c-.15-.15-.3-.45-.3-.6l.3.3c.45-.3 1.05-.3 1.35.15-.15 0-.3-.15-.45-.15zm84 77.85h1.5c0 .45-.45.6-.75.6l-.75-.6zm-87.9-72.9c-.6.45-1.2.3-1.8.6.15.15.45.3.6.3.45 0 .9-.6 1.2-.9zm78.3 73.65h.15c.45 0 .9.3.9.75h-.3c-.45 0-.75-.3-.75-.75zm-12.75 9.45c.3.3.45.75.45 1.2-.3 0-.6-.15-.6-.45l.15-.75zm-89.55 18c-.15.15-.45.3-.6.3-.3 0-.3-.3-.3-.45s.15-.3.3-.3.45.3.6.45zm20.25 4.5c0 .15 0 .75-.3.75-.15 0-.45-.45-.45-.6s.15-.15.3-.15h.45zm127.5-124.2l1.8.15c-.3.15-1.8.45-1.8-.15zm-42 52.5l1.2.3c-.15.15-.45.3-.75.3s-.45-.3-.45-.6zm-75.45-35.4c.3-.15.6-.45 1.05-.45.15 0 .15 0 .3.15-.45.3-.75.3-1.2.45l-.15-.15zm103.95-13.2l.45 1.2c-.3 0-.6 0-.6-.3l.15-.9zm-26.1 50.1c.15-.6 1.2-.15 1.5-.15l-.15.15h-1.35zm-14.7 29.25l.45-.15c.15 0 .15.15.15.15 0 .15 0 .6-.15.6-.3 0-.45-.3-.45-.6zm57.15-83.25l1.5.15c-.3.15-1.5.45-1.5-.15zm-82.05-4.8c.15-.3.45-.75.9-.75 0 .45-.3.75-.75.75h-.15zm14.85 110.1c.15 0 .15-.15.3-.15s.3.15.3.3-.15.45-.3.45c-.3 0-.3-.45-.3-.6zm-31.5 6.15l1.05.15c0 .3-.3.45-.45.45l-.6-.6zm-28.65-49.95c.45 0 1.05-.15 1.2-.6h.6c-.75.3-1.65.9-2.55.9l.75-.3zm63.75 31.2h.15c.3 0 .45 0 .45.3 0 .15 0 .3-.15.3-.3 0-.45-.3-.45-.6zm40.95 3.45l1.05.15c-.15.15-.45.3-.75.3-.15 0-.3-.3-.3-.45zm9-94.95l1.2.15c-.3.15-1.2.45-1.2-.15zM524.5 315.4a.65.65 0 0 1 .6.6c-.6 0-.6 0-.6-.6zm-59.7 9.15c-.15-.15-1.05-.6-.3-.45l.15-.6c.15 0 .15.75.15 1.05zm35.85-103.5c-.3-.15-.75-.15-1.05 0l.6-.6.45.6zm102-17.85c.15 0 .15.3.15.45v.3c-.15 0-.45 0-.45-.15s.15-.6.3-.6zm-53.55-8.85c0-.3.15-.6.45-.6h.15c0 .3-.15.6-.45.6h-.15zm-28.2 123l.6.15c0 .15-.15.45-.3.45-.3 0-.3-.3-.3-.45v-.15zm48.6-98.4l.6.15c0 .15 0 .45-.3.45-.15-.15-.3-.3-.3-.6zm47.4-15l.6.15c0 .15 0 .45-.3.45-.15 0-.3-.45-.3-.6zm-47.25 93l.6.15c0 .15 0 .45-.3.45-.15 0-.3-.45-.3-.6zM487.6 333.1l-.6.15c-.3 0 .15-.3.15-.3-.15-.15-.3-.3-.3-.45.15 0 .6.45.75.6zm68.4-34.65c.3 0 .6.15.6.45h-.45c-.15 0-.15 0-.15-.15v-.3zm-12-100.5l1.05-.9c-.15.3-.45.9-.9.9H544zm-31.95 93.45l.45.15c0 .15 0 .45-.15.45-.3 0-.3-.45-.3-.6zM484 259.75c.3 0 .6.15.6.45h-.3c-.3 0-.3-.3-.3-.45zm2.4 65.25c.15-.15.3-.45.15-.6h.45l-.15.15.15.3-.6.15zm26.85-37.65l.45.15c0 .15-.15.45-.3.45-.15-.15-.15-.45-.15-.6zm34.8 22.2c.15 0 .45 0 .45.3v.15h-.3c-.15 0-.15 0-.15-.15v-.3zm29.85-50.4c-.15.15-.3.3-.6.3-.15 0-.15-.15-.15-.3h.75zm-92.25 2.7c.15-.15.45-.3.6-.3l.3.15-.9.15zM474.4 318.1c-.15-.15-.45-.6 0-.6v.6zm40.5-98.55c-.3.15-.6.45-.9.45l.6-.45h.3zm-26.1 46.95h1.35l-1.35.15v-.15zm11.7-53.55l-.15.15h-.75c.3-.15.6-.15.9-.15zm-2.25 110.85l-.15-.15-.45.6.6-.45zm-15.3-61.5l.15-.15.75.15h-.9zm15.75-41.55l.15.3h-.3c0-.15.15-.3.15-.3zm-20.25 84.6h.75c-.3-.15-.45-.15-.75 0zm15.15-87.6v.45s-.15-.15-.15-.3l.15-.15zm-2.85-.15v.45l-.15-.3c0-.15.15-.15.15-.15zm-5.55-5.25v.3h-.15c0-.15 0-.3.15-.3zm.6 0c0 .15.15.3 0 .45 0-.15-.15-.3 0-.45zm95.1 45c0-.15 0-.15.15-.15 0 .15 0 .15-.15.15zm-102.15 59.4c.15 0 .15 0 .15.15l-.15-.15zm-.45-11.25l.15-.15c-.15 0-.15 0-.15.15zm-8.55 29.4c-.15.15-.3.3-.45.3l.45-.3zm27.6-10.2l-.3.6c0-.15.15-.3.3-.6zm138.865-28.35l1.35-1.95c.15-1.35 4.5-9.75 5.1-9.6.3-2.7.75-3.75 2.1-6v.3c0 .15.15.45.3.45.6 0 .9-.75.9-1.2.15-.15 1.65-2.4 1.8-2.4s.15.45.15.6c0 .45-.15 1.2-.75 1.2 0 1.35-1.2 2.1-1.35 3.45-1.05 0-.15 1.2-1.2 1.2v.9c0 .6.45.75 1.05.75l1.35-3.15.9-.9.45-1.65 1.2-1.2c0-.6.15-1.35.6-1.65.15-1.2 1.5-1.65 1.5-3.15l1.95-3.15c0-.75.6-.9.6-1.95.15-.15 1.8-4.8 1.8-5.1.75-.75 1.5-1.8 2.1-2.7 0-.6.6-.9.6-1.5l.6-1.05c.15-1.2 1.35-1.95 1.35-3.3l.45-1.2c0-.9-.45-2.1-1.05-2.85-1.2 0-.9.3-.9 1.2-1.5 0-.45 1.2-1.5 1.2 0 .6-.3 1.2-.75 1.5-.3.9-.9 1.95-1.65 2.55-.15 1.2-2.1 1.5-2.1 2.85.3.3.75.75 1.2.75.15 0 .15-.3.15-.45l1.05-1.35.6 1.65c-1.05 0-.6.9-.15 1.35l-1.05 1.35c0 .6-.15 1.05-.6 1.5l-1.8-.3c-.15.9-1.35.6-1.95.6 0 .15 0 .45-.15.45s-.45-.6-.45-.75c0-1.95 3.75-7.2 5.1-8.7v-.45c0-.45.15-.9.6-.9l-.15-1.05c2.4-1.2 1.05-.75 1.05-1.35 0-.45 1.35-1.65 1.8-1.95l.75-1.35c.75 0 .6-1.05.6-1.5s2.4-10.35 3.15-8.25l1.95-.75 1.2-1.65c-.15.6-.3 1.35-.6 1.95-1.05.75-.15 2.25-1.5 3.15 0 .6-.15 1.05-.6 1.5 0 1.5-1.8 2.25-1.8 3.6 0 .3.3.3.6.3 0 .15 0 .75-.3.75-.45 0-.45-.75-.9-.75-.3 0-.15 1.95-.15 2.55l1.2-1.2c2.4 0 .6-1.8 1.8-3 .3 0 3.15-1.95 3.3-2.85 1.95-1.2 2.1-4.05 3.75-5.7 0-.75.75-.75.75-1.5l1.2-1.5.15-1.5c.3-.3.75-.75.75-1.2 0-.15-.3-.15-.45-.15l-.9-1.2c.15-1.5-.3-3.6 1.8-3.6l.75-1.2c.6 0 .6-.3.6-.75 0-.3.3-.45.6-.45 1.05-1.05 2.7-5.7 2.7-7.05 1.2 0 0-1.35 1.2-1.35l.9-1.8c.45-.15.6-.6.6-1.05l.6-.3.45-1.2c.75 0 0-.9-.15-1.2.3-.15 1.05-.45.45-.75l.3-.45c0-.45.15-1.05.6-1.2 0-.6.15-1.2.45-1.65-.75-.15-1.05-.75-1.95-.9l.6-2.4c-1.35-.45-2.25-.75-2.25-2.25 0-1.2-1.35-1.2-2.25-1.2-.45-.3-1.05-.9-1.65-.9-.3 0-3 3.15-3.6 3.75l2.85-4.05c-.9-.15-1.5-1.2-1.8-1.95.15-1.05.3-2.25.75-3.3l-.6-.3-1.65 1.65c-.15.45-.6.45-.9.45-1.05 0-2.1-.3-3-.75-.15-.3-.45-.6-.75-.6-.45 0-.75.9-1.5.9-.6 0-.3-1.35-.3-1.65l-3.3 1.2c-.45.9-4.95 3.9-6.15 5.85l-1.35.6-.9 2.7c-.45.3-4.5 6.3-4.5 6.6l.9 1.35c-.75 0-1.5.15-2.1.6l-.6 3.45c-.3-.15-.6-.6-.9-.6s-.45.3-.45.6c-1.5 1.8-.9 4.95-3.6 4.95l-.15 2.1c0 1.65-1.35 0-1.35 1.8 0 .15-.15.3-.3.3-.75 0-1.35 2.4-1.5 3l-.75 1.2c-1.05 0-.15 1.2-1.35 1.2l-1.2 3.3c-.45.3-.75.9-.9 1.5l-.6.9-.6.3c0 .45-.9 2.7-1.05 2.85-.15 1.35-1.95 1.05-1.95 2.4l-.6 1.2c0 .9-.75.6-.75 1.35l-.75.75c0 1.2-.6 1.95-.6 2.85l-1.05.6-.15 2.1h-.9c-.45 0-.3.75-.3 1.05l-.9.6-1.35 3.45c0 .6-.75.75-1.2.6-.3 1.65-1.8 7.95-4.05 7.5-.45 1.8-1.35 3.75-2.55 5.25 0 .9-.45 2.4-1.5 2.4 0 .9-.6 1.05-.75 1.8-.3 0-1.8 3.9-1.8 4.5-.45.45-.75 1.05-.75 1.65-.6 0-.6.3-.6.75s-.3.45-.6.45a14.24 14.24 0 0 0-1.35 3.15l-1.65.3-.3 1.5c-.15.15-1.2 2.55-1.2 2.85-.45.45-.6 1.2-.6 1.8-.6.15-.9.6-.6 1.2-.15 1.2-2.1 1.2-2.1 2.4-.9.75-.3 2.25-1.05 2.7l.15 1.05c-.6.9-1.2 1.65-1.2 2.7-.6.15-.9.6-.6 1.2-.15 1.2-2.1 1.2-2.1 2.4-.9.75-.3 2.25-1.05 2.7-.15.75.3 1.35.3 2.1-.45.15-1.05.6 0 .6-.3.45-.45 1.2-.45 1.8-.9 0-.75 1.2-.75 1.8l-1.95.3v.15c0 .45-5.25 1.65-5.7 1.8 0-.15 0-.45-.15-.45-.45 0-.75.3-.9.6 0 .75-.6.75-1.2.6l-1.05 1.2c-3.15 0-1.95 1.5-1.95 3 0 .6-1.05.9-1.65.9 0 1.35 0 1.2-1.2 1.35-.45.75-.15 1.65-.15 2.55 0 .15-2.4 2.1-2.7 2.1v.6c0 .45 0 1.2-.6 1.2l-.3 1.2h-.9l-.15 2.1.15 3.3 1.05 1.35h1.8l.6 1.5c0 .9.75.15 1.05-.15l.45.45h2.55l.3.75 1.35 1.2c-.45.9-3.45 7.35-3.45 8.1 1.95 1.8 3.6.9 2.7 4.65.3.6 1.05 1.95 1.65 1.95.3 0 .45-.15.6-.45 1.05.45 1.8-2.4 2.7-2.4h.15c-.3 1.05-1.65 4.8-1.8 5.55h.15c.75 0 3.15-6.45 3.45-7.35 1.5-.3 1.8-2.7 2.4-2.7.45 0 1.65-3.3 2.4-4.05v-.3c.75-.6 2.1-.3 2.55-1.35h.9c.15-.15.6-1.35.75-1.35.3 0 .6 1.35.6 1.65-.3.6-1.05.6-1.35 1.35l-.3-.15c-.6 0-2.7 5.55-3.15 6.45-1.2 2.7-4.5 9.9-4.5 12.45 0 .15 0 .45.3.45 1.2-2.7 4.05-12 5.7-11.25l.6.15c3.15 0 4.05-4.5 5.1-7.05.3.15.6.3 1.05.3.75 0 2.25-5.55 2.55-6.6h.6l-.9 2.1c.3.15.3.3.3.6 0 2.55-2.7 5.1-2.7 7.8 0 7.35-8.7 18.75-8.7 22.8 0 .75-.6 1.5-.3 2.25l-4.5 9c0 .45.45.15.3.9h1.5c3.9-7.8 7.35-15.75 11.1-23.55.45-1.05 1.35-.75 1.65-1.65 2.7-6.3 6.15-12.6 8.7-18.9.75-.15 1.2-.9 1.5-1.5.75-.3 1.5-.6 2.25-1.05.6 0 1.2-.3 1.65-.75.15 0 .45 0 .45-.15 0-.3-.6-.6-.75-.75 0-.45.15-1.05.6-1.2l.9.45c1.5 0 3-.75 4.5-.75l.45-.6.45.6c0-1.05 7.8-2.7 9.9-2.7.15-.15.6-.3.6-.45s-.15-.15-.3-.15c-.45 0-3.6.3-3.6-.3 0-.3.45-.6.6-.75h1.2c.6 0 2.25-.15 2.25.9 0 .15 0 .3.15.3.75 0 1.35-.6 1.8-.9 0 .15.3.6.45.6s.15-.6.15-.6c.75 0 2.85.3 3.3-.6l.6.6.45-1.35c.9-.6 2.1-.9 3.15-1.05 0-.9.9-.6 1.5-.6l1.5-.6h1.5l6.45-.6c.3-.75.75-1.05 1.65-1.05 1.05 0 2.25.6 3.15 1.2 0 1.05-2.1-.15-2.7-.15-.3 0-.45.3-.45.6-.45-.15-1.05-.15-1.05.45 0 .45.3.75.75.75h.45c.3-.15 1.8-1.2 1.8-.3 1.65-.6 5.1.15 6-1.05h1.5l.3-.6 1.8.45v-1.65l1.35-.45 1.65.45c0-.45.3-.75.75-.75.3 0 .45.45.45.75l1.35-1.2 1.95-.15c.75 0 .75.6.6 1.2l1.5-.6-1.05-.6c0-.15 0-.6.3-.6s.75.3.9.6c1.05 0 .9-1.35 2.7-1.35 3.45-.15 6.9-.75 10.35-.75.75 0 .9-.45.9-1.2 6.45-.6 12.45-.9 18.9-1.95.15-.15.45-.3.45-.45 0-.3-.75-.3-.9-.3l.9-.6 9.15-.15v-.15c0-.3.45-.6.75-.6l.9-.6-2.85.15c0-1.35-4.5-.75-5.25-.75-.6 0-1.35 0-1.8-.45-3 0-5.85-.45-9-.3-1.2 0-3.15-.75-4.35-1.05l-.75-.75c-1.05.15-1.05.45-1.05 1.35-1.5 0-2.85-.6-4.35-.6l-4.8.15c-.15.45-.75.6-1.2.6-1.65 0-3.9-.6-5.7-.9l1.5-.75 1.95-.15c.3-.45 1.05-1.05 1.05 0 .45 0 1.35 0 1.65-.6 1.2 0 2.85-.75 3.9-1.2v-.15c0-.45-.45-.45-.75-.45a1.13 1.13 0 0 0-1.05.75h-3.75c.15-1.05 2.25-.45 3-.45l.9-.9 1.05-.3 1.8.15 1.35-.6c.6.45 1.5.75 2.25.75.45 0 .75-.3.75-.75l1.95-.75c2.55.15 5.7.3 8.25-.3 0-.75.9-.6 1.35-.45l.15-.3c0-.45-1.35-.3-1.65-.3-1.65.15-4.5-.45-6.45-.45v-.15c0-.45-.3-.45-.6-.45a.65.65 0 0 0-.6.6c-3 .3-6 .15-8.85.15-.75 0-1.5.3-1.95.75h-1.8c-.15 0-1.2 0-1.2-.3l.45-.6c1.2-.3 3.15.15 3.3-1.35l-.6-.75c0-.9 1.2-.6 1.65-.6 2.1 0 4.35-1.05 6.3-.75l.45.6c.3 0 1.95-.3 1.95-.6h-.6l-2.85-1.2c-.3.45-.9.6-1.35.6l-.75-.6-.3.6c-.3-.6-.6-1.05-.75 0l-1.95-.45c-.15.3-1.2 1.2-1.2.3h-1.2c0 .9-.9.15-1.2-.15l-.75-.15-1.05.3-1.8-.3c0 1.05-.75.6-1.2.15-.3.15-1.95 1.2-1.95.3-.9.3-1.95.45-2.85.6 0 .15 0 .45-.15.45-.45 0-.9-.45-1.2-.75-2.85 1.65-7.65.3-10.8 1.2 0-.3-.15-.45-.3-.45-.45 0-1.05.45-1.35.75l-1.35-.3c-4.65 1.05-8.85 1.8-13.95 2.4-.45 0-1.05.15-1.2.6-1.95 0-4.2.6-6.3.6-.6.75-.9.6-1.8.6-.3 0-3.75 1.2-3.75 1.2l-.45-.15-.6-.6c0 1.35-.9.9-1.8.9 0 .6-.3.75-.75.75s-1.8.15-1.8-.3c0-.9.9-1.65 1.35-2.25.3-2.4 3.3-5.55 3.75-8.1h-.3zm3.6 34.05c.15-.15.6-.6.6-.9s-.15-.3-.45-.3l-3.15.15c-.15.75-.9 2.55-1.8 2.55-1.2 0-1.2-1.35-2.7-1.35-.45.6-3 1.05-4.2 2.1h-4.2c0 .6-.45.45-.9.45-.3 0-.3.3-.3.45l1.05.75c1.2 0 8.1-.3 8.1-1.35 5.25 0 21.3-3.75 25.65-4.95-2.25.15-10.95.6-11.55 1.65-.9.3-5.85 1.5-7.35 1.5 0-.75.6-.9 1.2-.75zm7.95-66.3l1.95 1.05.15 1.5-.6 1.5c-.45 0-.6-.3-.9-.45-.15.45-.15.9-.15 1.35l-.75.9-.15 1.05c-1.35 0 0 1.05 0 1.65 0 .3-.45.3-.6.3-.3-.75-.9-2.1-.9-2.7 0-.75.3-1.5 1.05-1.5 0-1.65.75-3 .9-4.65zm-1.2 62.55c.45.3 1.8.75 2.25.6l7.65-2.25c0-.45-.75-.45-.9-.45-2.55 0-6.45 1.35-9 2.1zm36.6-6.15c-.15.75-.75.45-1.35.45-.45 0-.75.45-.75.9l2.85.45c.3-.15 2.25-.45 2.25-1.05 0-.9-1.65-.75-2.55-.75h-.45zm-40.8-44.4l1.2.6v1.5l-1.05 1.35-.3 1.35c-.15.15-.45.3-.75.3s-.45-.15-.45-.45l.15-1.8c1.2 0 1.2-2.1 1.2-2.85zm.3 12c-.45.9-1.2 2.4-1.2 3.45 0 .3.15.45.45.45 1.05 0 1.8-2.1 1.8-2.85l-1.05-1.05zm-4.8 10.05c-.45.9-1.2 2.4-1.2 3.45 0 .3.15.45.45.45 1.05 0 1.8-2.1 1.8-2.85l-1.05-1.05zm-19.35 37.05v.15c0 .3.15.45.45.45.6 0 1.05-.3 1.5-.6l1.95-.15v-.75c0-.3-.3-.45-.6-.45-3.3 0-2.1 1.35-3.3 1.35zm51.45-22.5l.15.15c0 .15-2.25.45-3.15.6l-.3.75h-3.15l-.3-.15c0-.75 6.45-1.35 6.75-1.35zm-1.5-6.15l1.8.3c-.15.75-1.2.9-1.8.9-.3 0-1.8-.6-1.8-.75h.3l1.5-.45zm-45 23.7c.3 0 2.4.3 2.4.45l-3.3.75c-.15 0-.3 0-.3-.15 0-.3.9-.9 1.2-1.05zm46.35-99.45l.3-.15c.15 0 .15.3.15.45 0 .75-.3 1.65-.6 2.4l-.6-.45c0-.75.45-1.65.75-2.25zm-1.8-1.65l1.05.45-.45 1.5-1.2-.45.6-1.5zm-23.55 45.45c.45 0 1.5.75 1.5 1.2 0 .3-.9.15-1.05.15-.45 0-.6-.15-.6-.6 0-.15-.15-.75.15-.75zm31.8 29.85c.3.15 1.8.75 1.8.9s-1.2.15-1.35.15c-.3 0-.9 0-.9-.3s.3-.6.45-.75zm-35.25 24.15c0 .45.15.75.6.75l1.35-.15.15-.6h-2.1zm46.05-20.7c0 .9-3.45.45-4.05.3l4.05-.3zm-48.15 10.2c.3.15 1.8.9 1.8 1.05s-.9.15-1.05.15c-.75 0-.75-.6-.75-1.2zm40.95-14.25l1.95.3s.6 0 .6.15h-1.05c-.15.45-.75.6-1.2.6l-.3-1.05zm-29.1-100.2c-1.35 0-1.2.6-1.35 1.65l.75-.75c.45 0 .6-.6.6-.9zm9.6 110.85l1.8-.15c0 .45-.75.6-1.05.6s-.75-.15-.75-.45zm13.95-2.85l1.8.15c-.3.15-1.8.45-1.8 0v-.15zm-9.45 10.95l1.2.15c0 .3-.3.45-.6.45l-.6-.6zm-7.2-67.65c.15 0 .6.9.6 1.05-.15 0-.6 0-.6-.3v-.75zm11.25 66.9l.75.15c0 .15-.15.45-.3.45-.3 0-.45-.3-.45-.6zm-36-22.5c0-.15.15-.15.3-.15s.3.45.3.6c-.45 0-.6 0-.6-.45zm4.8-10.05c0-.15.15-.15.3-.15s.3.45.3.6c-.45 0-.6 0-.6-.45zm34.8-66.3l.6.15c0 .15 0 .45-.3.45s-.3-.45-.3-.6zm14.25 77.55h.3c.15 0 .3.15.3.3s0 .3-.3.3c-.15 0-.3-.45-.3-.6zm-20.25 11.25l.6.15c0 .15-.15.45-.3.45-.3 0-.3-.45-.3-.6zm-13.5-47.25l.6 1.05c-.45 0-.6-.3-.6-.75v-.3zm-14.55 23.55l.6.15c0 .15 0 .45-.3.45-.15 0-.3-.45-.3-.6zm-4.8 10.05l.6.15c0 .15 0 .45-.3.45-.15 0-.3-.45-.3-.6zm29.4-61.65c.15 0 .3-.15.3-.15.15 0 .3.15.3.3s-.15.3-.3.3-.3-.3-.3-.45zm.6-1.35c.3 0 .45.3.45.6h-.3c-.3 0-.15-.45-.15-.6zm-14.85 81.6h.15c.15 0 .3.15.3.3s-.15.3-.15.3c-.3 0-.3-.45-.3-.6zm18-79.8l.45.15c0 .15-.15.45-.3.45s-.15-.3-.15-.45v-.15zm-16.5 33.6h.3c.15 0 .45 0 .45.3h-.3c-.15 0-.45 0-.45-.3zm32.55-69v.15h.15l-.15-.15z" fill="#00f1ff"/></g><g filter="url(#C)"><path d="M270.565 351.65h13.95a207.89 207.89 0 0 1 15.75.3c5.3.3 10.35.95 15.15 1.95 4.8.9 8.85 2.4 12.15 4.5s5.55 4.9 6.75 8.4c1.3 3.5 1.1 7.95-.6 13.35-1.7 5.3-4.35 10.05-7.95 14.25-3.5 4.2-7.3 8-11.4 11.4-4.9 4.1-10 7.9-15.3 11.4a224.99 224.99 0 0 1-16.5 9.9c-6.6 3.6-13.2 6.95-19.8 10.05s-13.3 6-20.1 8.7a413.64 413.64 0 0 1-20.4 7.2c-6.7 2.2-13.55 4.15-20.55 5.85-3.5.9-7.1 1.7-10.8 2.4a43.68 43.68 0 0 1-10.8.75 49.54 49.54 0 0 1-5.4-.6 14 14 0 0 1-4.95-1.8c-1.6-1-2.75-2.2-3.45-3.6-.7-1.3-1.1-2.75-1.2-4.35-.1-1.5.1-3.05.6-4.65a36.04 36.04 0 0 1 1.5-4.65c2-4.5 4.75-8.7 8.25-12.6a283.1 283.1 0 0 1 10.5-11.1c.4-.4.95-.9 1.65-1.5.8-.7 1.6-1.35 2.4-1.95.8-.7 1.5-1.25 2.1-1.65s1-.55 1.2-.45c.2.2.15.55-.15 1.05-.3.4-.45.65-.45.75-1.3 1.9-2.65 3.8-4.05 5.7l-4.35 5.7c-.4.5-1.1 1.45-2.1 2.85-1 1.3-2.1 2.85-3.3 4.65s-2.4 3.7-3.6 5.7-2.15 3.9-2.85 5.7-1.05 3.4-1.05 4.8c-.1 1.5.4 2.55 1.5 3.15 1.4.9 3 1.35 4.8 1.35a44.91 44.91 0 0 0 5.25-.3c4.1-.4 8.75-1.3 13.95-2.7 5.3-1.4 10.7-3.1 16.2-5.1 5.5-1.9 10.95-3.95 16.35-6.15 5.5-2.2 10.5-4.3 15-6.3 6.8-3 13.45-6.15 19.95-9.45 6.6-3.4 13.1-7 19.5-10.8a301.46 301.46 0 0 0 15-10.05c5-3.5 9.6-7.4 13.8-11.7 1-1.2 2.4-2.75 4.2-4.65 1.9-1.9 3.7-4 5.4-6.3s3.1-4.7 4.2-7.2c1.2-2.6 1.6-5.15 1.2-7.65-.4-2.3-2.15-4.05-5.25-5.25-3-1.2-6.9-2-11.7-2.4-4.8-.5-10.25-.7-16.35-.6s-12.4.3-18.9.6l-19.05.9c-6.3.3-12.05.4-17.25.3s-9.65-.5-13.35-1.2c-3.6-.7-6-1.9-7.2-3.6-1.7-2.5-.95-6.05 2.25-10.65s9.05-9.75 17.55-15.45c12.5-7.9 25.75-13.9 39.75-18 3.5-.9 6.9-1.6 10.2-2.1 3.4-.6 6.95-.85 10.65-.75 1.3.1 2.65.25 4.05.45 1.5.1 2.9.35 4.2.75 1.4.4 2.65 1 3.75 1.8 1.2.8 2.15 1.85 2.85 3.15.9 1.9 1 3.75.3 5.55-.7 1.7-1.85 3.3-3.45 4.8-1.5 1.4-3.2 2.7-5.1 3.9l-4.8 2.7c-.8.4-1.55.7-2.25.9a13.87 13.87 0 0 1-1.65.45c.4-.3 1.5-1.25 3.3-2.85 1.9-1.6 3.7-3.35 5.4-5.25 1.7-2 2.85-3.9 3.45-5.7s-.15-3.05-2.25-3.75c-1.7-.6-3.4-.9-5.1-.9a42.37 42.37 0 0 0-4.95.3c-1.8.2-3.6.45-5.4.75s-3.55.7-5.25 1.2c-7.1 1.8-13.9 4.35-20.4 7.65s-12.85 6.85-19.05 10.65a187.09 187.09 0 0 0-9.6 6.75c-3.2 2.4-5.95 5.2-8.25 8.4 2.3.8 5.25 1.35 8.85 1.65 3.7.3 7.5.45 11.4.45h11.7l9.75-.15zm123.28 50.85c.2.3-.1.8-.9 1.5-.8.6-1.3 1-1.5 1.2a295.91 295.91 0 0 1-13.35 10.65 227.94 227.94 0 0 0-7.8 6.6l-7.5 6.9-3.6 3.15a13.65 13.65 0 0 1-1.5 1.05 8.29 8.29 0 0 1-1.65.75 4.31 4.31 0 0 1-3.3-.75c-1-.8-1.6-1.8-1.8-3-.2-1.3 0-2.65.6-4.05.6-1.5 1.25-2.85 1.95-4.05 1.5-3 3.15-5.8 4.95-8.4s4.05-5.6 6.75-9c-2.8 2.3-5.5 4.6-8.1 6.9l-14.4 12.75c-2.2 1.9-4.45 3.75-6.75 5.55-.6.5-1.35 1.05-2.25 1.65a13.12 13.12 0 0 1-2.55 1.5c-.8.4-1.65.6-2.55.6s-1.75-.3-2.55-.9c-1.3-1-1.9-2.4-1.8-4.2 0-1.9.4-3.85 1.2-5.85a29.74 29.74 0 0 1 2.7-5.7l2.55-4.2c2.6-4 5.5-7.75 8.7-11.25 3.3-3.6 6.75-6.85 10.35-9.75 2-1.7 4.15-3.3 6.45-4.8s4.75-2.65 7.35-3.45c.1 0 .3-.05.6-.15.4-.1.75-.15 1.05-.15.4 0 .7.05.9.15.2 0 .15.15-.15.45-.4.5-.85.9-1.35 1.2-.4.3-.85.7-1.35 1.2a42.61 42.61 0 0 0-3.15 2.85l-2.85 3.15c-2.1 2.4-4.2 5-6.3 7.8-2 2.7-4 5.5-6 8.4l-5.85 8.7-5.55 8.4c8.1-5.2 16.1-11.2 24-18 8-6.8 16.25-13.6 24.75-20.4 1.2-1 2.65-2.15 4.35-3.45s2.9-2.05 3.6-2.25c.8-.1 1.45.15 1.95.75.5.5.65 1.1.45 1.8-.1.4-.55 1.1-1.35 2.1l-1.65 2.1c-.3.4-1.05 1.35-2.25 2.85-1.1 1.5-2.5 3.3-4.2 5.4l-5.25 6.75-5.25 6.9-4.2 5.85c-1.2 1.7-1.95 2.85-2.25 3.45.1-.1.85-.6 2.25-1.5l4.95-3.6c2-1.4 4.15-2.85 6.45-4.35 2.3-1.6 4.45-3 6.45-4.2 2-1.3 3.7-2.3 5.1-3s2.2-.9 2.4-.6zm35.055-21c.1 1.1-.1 2.1-.6 3s-1.15 1.75-1.95 2.55c-.7.7-1.5 1.4-2.4 2.1-.8.7-1.45 1.5-1.95 2.4-1 1.7-1.9 3.5-2.7 5.4-.7 1.9-1.35 3.8-1.95 5.7l-1.8 6.15-1.5 5.85c-1 3.5-2.55 6.8-4.65 9.9s-4.75 5.5-7.95 7.2c-3.8 1.9-7.55 2.7-11.25 2.4-2-.3-3.65-.85-4.95-1.65-.1 0-.4-.15-.9-.45l-1.5-.9c-.6-.3-1.05-.6-1.35-.9-.4-.4-.55-.7-.45-.9s.65-.1 1.65.3c1 .3 1.6.45 1.8.45 1.3.4 2.75.6 4.35.6 2.9-.2 5.45-1.15 7.65-2.85 1.9-1.4 3.6-3.25 5.1-5.55 1.6-2.3 2.55-4.6 2.85-6.9.4-2.3.75-4.65 1.05-7.05a176.41 176.41 0 0 0 1.05-7.65c-2.5 2.3-5.6 4.75-9.3 7.35s-7.35 5-10.95 7.2c-3.5 2.1-6.55 3.85-9.15 5.25-2.6 1.3-4.05 1.8-4.35 1.5-.2-.3 1.15-1.5 4.05-3.6l10.2-7.95c4.1-3.2 8.25-6.7 12.45-10.5 4.3-3.8 7.75-7.55 10.35-11.25a142.36 142.36 0 0 1 2.7-4.05 54.58 54.58 0 0 1 3-4.2c1.1-1.1 2.3-2.05 3.6-2.85 1.4-.8 2.9-1.2 4.5-1.2 1.4 0 2.6.5 3.6 1.5a5.49 5.49 0 0 1 1.65 3.6zm34.03 21.15c.2-.2.7-.5 1.5-.9.9-.4 1.4-.5 1.5-.3v.3l-.45.45c-3.7 3.4-7.5 6.6-11.4 9.6a304.46 304.46 0 0 0-11.4 9.15l-6 5.4-5.7 5.4a52.72 52.72 0 0 1-2.1 1.65c-.7.5-1.5.9-2.4 1.2-.8.4-1.6.55-2.4.45-.9-.1-1.8-.55-2.7-1.35-.8-.8-1.05-1.9-.75-3.3.2-1.4.55-2.65 1.05-3.75 1-2.5 2.55-5.3 4.65-8.4 2.1-3.2 4.45-6.45 7.05-9.75 2.7-3.3 5.45-6.5 8.25-9.6 2.9-3.2 5.6-6.05 8.1-8.55s4.65-4.55 6.45-6.15 3-2.5 3.6-2.7c.7-.3 1.25-.35 1.65-.15a.98.98 0 0 1 .45.45c.2.2.2.5 0 .9-1.3 2.4-2.85 5-4.65 7.8l-5.85 8.85-6.6 9.45c-2.2 3.2-4.35 6.5-6.45 9.9.9-.7 2.1-1.55 3.6-2.55 1.5-1.1 2.7-1.95 3.6-2.55l8.55-5.55c2.8-1.9 5.75-3.7 8.85-5.4zm16.8-45.15c.3.8.3 1.65 0 2.55-.2.8-.6 1.6-1.2 2.4-.5.7-1.1 1.35-1.8 1.95s-1.4 1.05-2.1 1.35c-.6.3-1.35.55-2.25.75a19.33 19.33 0 0 1-2.4.15c-.8-.1-1.55-.3-2.25-.6s-1.2-.85-1.5-1.65c-.6-1.6-.4-3.1.6-4.5 1-1.5 2.15-2.6 3.45-3.3.6-.4 1.35-.7 2.25-.9.9-.3 1.8-.45 2.7-.45 1 0 1.9.15 2.7.45s1.4.9 1.8 1.8zm30.613 46.05a24.53 24.53 0 0 1 2.55-1.95c.9-.6 1.4-.75 1.5-.45 0 .2-.5.85-1.5 1.95a95.91 95.91 0 0 1-3.15 3.3c-5 5-10.1 9.55-15.3 13.65-5.1 4.1-10.95 7.9-17.55 11.4l-4.65 1.95a21.48 21.48 0 0 1-5.1 1.5c-1.7.3-3.4.25-5.1-.15-1.7-.3-3.2-1.15-4.5-2.55-1.6-1.8-2.2-4.05-1.8-6.75.3-2.7 1.1-5.4 2.4-8.1a56.19 56.19 0 0 1 4.5-7.95c1.7-2.5 3.15-4.4 4.35-5.7 1.8-2.2 4.15-4.65 7.05-7.35s6.05-5.2 9.45-7.5c3.4-2.4 6.8-4.4 10.2-6s6.55-2.4 9.45-2.4a6.58 6.58 0 0 1 4.05 1.35c1.2.8 1.9 1.95 2.1 3.45.2 1.4 0 2.8-.6 4.2-.5 1.3-1.25 2.65-2.25 4.05-.9 1.3-1.95 2.55-3.15 3.75-1.1 1.1-2.2 2.1-3.3 3-2.4 2-4.6 3.6-6.6 4.8-1.9 1.1-3.25 1.85-4.05 2.25-.5.3-.95.5-1.35.6-.3.2-.6.3-.9.3-.2 0-.25-.1-.15-.3.2-.5.55-.9 1.05-1.2s.95-.6 1.35-.9c1.4-1 2.85-2.2 4.35-3.6s2.9-2.9 4.2-4.5a24.11 24.11 0 0 0 3.45-5.1c1-1.8 1.65-3.65 1.95-5.55-2 .5-3.9 1.4-5.7 2.7-1.7 1.2-3.4 2.5-5.1 3.9l-7.8 6.9c-2.9 2.6-5.7 5.4-8.4 8.4s-5.15 6.1-7.35 9.3c-2.1 3.2-3.5 6.4-4.2 9.6 3.3-.3 6.55-1.05 9.75-2.25 3.2-1.3 6.3-2.75 9.3-4.35 3-1.7 5.95-3.5 8.85-5.4 2.9-2 5.75-3.9 8.55-5.7 1.8-1.4 3.4-2.55 4.8-3.45s2.85-1.95 4.35-3.15zm88.41-102.45c.2.2.15.65-.15 1.35-.2.7-.55 1.5-1.05 2.4-.4.9-.85 1.75-1.35 2.55-.4.8-.7 1.35-.9 1.65-2.8 4.9-5.75 9.75-8.85 14.55l-9.6 14.55-11.55 16.65-11.55 16.35-10.8 14.7-10.65 14.7c.1.2.15.35.15.45s.05.25.15.45c2.4-1.9 5.3-4.1 8.7-6.6s6.85-4.95 10.35-7.35 6.8-4.55 9.9-6.45c3.2-1.9 5.85-3.25 7.95-4.05.3-.2.65-.25 1.05-.15.4 0 .45.25.15.75a6.33 6.33 0 0 1-1.2 1.65c-.4.4-.8.85-1.2 1.35-2.2 2.2-4.7 4.45-7.5 6.75-2.7 2.3-5.55 4.5-8.55 6.6-2.9 2.1-5.9 4.1-9 6s-6.15 3.5-9.15 4.8c-.1.1-.2.15-.3.15a.13.13 0 0 0-.15.15l4.5 15.75a473.01 473.01 0 0 1 4.5 15.9c.2.5.3 1.1.3 1.8s-.4 1-1.2.9c-.7-.1-1.35-.35-1.95-.75a13.65 13.65 0 0 1-1.5-1.05c-1.2-1-2.25-2.15-3.15-3.45-.8-1.2-1.6-2.5-2.4-3.9-1.6-2.8-3.1-6.05-4.5-9.75-1.4-3.8-2.5-7.3-3.3-10.5l-7.65 10.5c-2.4 3.4-5 6.7-7.8 9.9-.6.8-1.35 1.6-2.25 2.4-.8.8-1.6 1.2-2.4 1.2-1.4 0-2.35-.5-2.85-1.5-.5-1.1-.5-2.2 0-3.3 2.2-4.3 4.9-8.65 8.1-13.05l6.3-9.6c2.2-3.3 4.45-6.55 6.75-9.75v-2.55l.3-2.7c.1-.5.25-1.1.45-1.8.2-.8.55-1.3 1.05-1.5.5-.1 1 .15 1.5.75s.85 1.1 1.05 1.5l11.4-16.05 11.85-16.05 12-16.05 12.45-15.75 8.85-10.8c3.1-3.6 6.3-7.15 9.6-10.65l2.4-2.4c.6-.6 1.15-1.05 1.65-1.35s.85-.4 1.05-.3zm21.962 83.1c-.6 1-1.9 2.95-3.9 5.85l-7.2 10.2-8.85 12.3-8.55 11.85-6.6 9-2.85 3.9c-7.8 10.7-16.15 21-25.05 30.9a180.98 180.98 0 0 1-29.4 26.55c-5.3 3.8-10.8 7.25-16.5 10.35-5.8 3.2-11.9 5.65-18.3 7.35-2 .5-4.05.95-6.15 1.35a33.6 33.6 0 0 1-6.3.6h-1.65c-.8 0-1.35-.15-1.65-.45-.2-.2.15-.5 1.05-.9.9-.3 1.45-.5 1.65-.6a46.55 46.55 0 0 0 6-1.95 134.59 134.59 0 0 0 5.7-2.25c6-2.5 11.75-5.55 17.25-9.15 5.4-3.5 10.6-7.35 15.6-11.55a200.2 200.2 0 0 0 14.25-13.5 431.01 431.01 0 0 0 13.05-14.25c4.5-5.1 8.8-10.3 12.9-15.6s8.1-10.75 12-16.35c2.4-3.2 4.7-6.55 6.9-10.05 2.3-3.5 4.9-7.3 7.8-11.4l-7.8 6.75-7.65 6.75-6.6 5.85c-2.2 1.9-4.45 3.75-6.75 5.55a52.72 52.72 0 0 1-2.1 1.65 13.12 13.12 0 0 1-2.55 1.5c-.9.4-1.8.6-2.7.6s-1.75-.3-2.55-.9c-1.1-.9-1.65-2.05-1.65-3.45s.15-2.75.45-4.05c.6-2.2 1.4-4.3 2.4-6.3 1-2.1 2.15-4.15 3.45-6.15 2.6-4 5.5-7.75 8.7-11.25 3.3-3.6 6.75-6.85 10.35-9.75 2.1-1.7 4.25-3.3 6.45-4.8 2.3-1.5 4.75-2.65 7.35-3.45.1 0 .3-.05.6-.15.4-.1.75-.15 1.05-.15.4 0 .7.05.9.15.2 0 .15.15-.15.45-.4.5-.85.9-1.35 1.2-.4.3-.85.7-1.35 1.2a42.61 42.61 0 0 0-3.15 2.85c-.9 1-1.8 2.05-2.7 3.15-4.3 4.8-8.25 9.85-11.85 15.15l-10.5 16.05a163.93 163.93 0 0 0 4.35-3 163.93 163.93 0 0 0 4.35-3l8.25-5.85 7.95-6c.3-.3 1.1-1 2.4-2.1l4.5-3.9 5.7-5.1c2-1.8 3.95-3.5 5.85-5.1l5.25-4.65 3.6-3.15c.2-.2.6-.55 1.2-1.05l1.95-1.65 2.25-1.65c.8-.5 1.4-.9 1.8-1.2.2-.1.65-.3 1.35-.6.8-.4 1.25-.3 1.35.3 0 .5-.15 1-.45 1.5s-.55 1-.75 1.5l-1.2 2.1c-.3.6-.7 1.25-1.2 1.95z" fill="#ff019a"/></g><defs><filter id="A" x=".295" y="0" width="817.41" height="714.923" filterUnits="userSpaceOnUse" class="B"><feFlood result="A" class="C"/><feColorMatrix in="SourceAlpha" values="0 0 0 0 0 0 0 0 0 0 0 0 0 0 0 0 0 0 127 0"/><feOffset/><feGaussianBlur stdDeviation="25"/><feColorMatrix values="0 0 0 0 0.607843 0 0 0 0 0 0 0 0 0 0.909804 0 0 0 1 0"/><feBlend in2="A"/><feBlend in="SourceGraphic"/></filter><filter id="B" x="107.312" y="159.6" width="616.812" height="226.25" filterUnits="userSpaceOnUse" class="B"><feFlood result="A" class="C"/><feColorMatrix in="SourceAlpha" values="0 0 0 0 0 0 0 0 0 0 0 0 0 0 0 0 0 0 127 0"/><feOffset dx="-4"/><feGaussianBlur stdDeviation="2"/><feColorMatrix values="0 0 0 0 0 0 0 0 0 0 0 0 0 0 0 0 0 0 1 0"/><feBlend in2="A"/><feBlend in="SourceGraphic"/></filter><filter id="C" x="140.09" y="276.062" width="509.224" height="263.338" filterUnits="userSpaceOnUse" class="B"><feFlood result="A" class="C"/><feColorMatrix in="SourceAlpha" values="0 0 0 0 0 0 0 0 0 0 0 0 0 0 0 0 0 0 127 0"/><feOffset/><feGaussianBlur stdDeviation="12.5"/><feColorMatrix values="0 0 0 0 1 0 0 0 0 0.15 0 0 0 0 0.662008 0 0 0 1 0"/><feBlend in2="A"/><feBlend in="SourceGraphic"/></filter><linearGradient id="D" x1="409" y1="55" x2="409" y2="655" gradientUnits="userSpaceOnUse"><stop stop-color="#ff019a" stop-opacity=".5"/><stop offset="1" stop-color="#9b00e8" stop-opacity=".5"/></linearGradient><linearGradient id="E" x1="409.3" y1="83" x2="409.3" y2="603" gradientUnits="userSpaceOnUse"><stop stop-color="#ff019a"/><stop offset=".526" stop-color="#9b00e8"/></linearGradient></defs></svg>
