<svg xmlns="http://www.w3.org/2000/svg" width="818" height="715" fill="none"><style><![CDATA[.B{color-interpolation-filters:sRGB}.C{flood-opacity:0}]]></style><g filter="url(#A)"><path d="M409 655L59 55H759L409 655Z" stroke="url(#D)" stroke-width="10"/></g><path d="M109 83L409.3 603L709.6 83H109Z" fill="#000" stroke="url(#E)" stroke-width="15"/><g filter="url(#B)"><path d="M171.66 325.1c4.413-2.647 4.213-15.424 10.35-13.05-1.555-4.977 7.48-19.96 2.25-7.95 2.946 3.83-4.458 11.996-8.7 14.1 5.002 7.628-8.684 7.97-5.344 15.6-4.105 6.313-8.2 21.317.244 4.8 4.108-2.454 6.115-11.824 8.4-11.157-.17 2.83-7.203 13.266-2.85 12.357.983-3.156 6.76-6.603 8.7-13.2 3.526-2.532 9.263-17.066 6.6-5.55 3.802-6.087 5.79-16.02 6.15-4.8-4.992 10.36-1.415 5.845 2.25-.15 1.226-7.188 6.512-13.397 8.344-21.15 2.802-8.843 8.663-10.486 15.956-12.15 18.164-7.998-23.538 4.834-4.2-3.15 6.994-4.053 6.784.69 12.168-3.337 11.94.89-7.413-1.207 4.332-4.913 9.15-1.16 21.202-6.668 8.1.6-10.394 3.41 3.97 6.254 5.714-.315 3.007-2.847 7.58-2.72 12.208-4.416-6.008-2.702-3.792-3.083 6.228-9.22-.838 1.888-9.56 9.668-1.74 6.76 3.94-4.542 4.383.876 8.282-4.89 7.05-8.402-11.86.225 3.958-6.518 4.762-2.514 17.933-14.187 8.98-4.67-15.17 7.165-7.18 8.855.62 2.27 5.04-5.4 10.5-9.945 11.7-18.6-.737-5.946-1.742-12.164-5.55-15.3-2.67-1.48-9.973-8.615-14.846-8.86-2.912-3.496-11.622-7.705-16.954-5.69-8.34-4.074-22.372-1.746-11.85-14.55.84-5.467 9.983-24.297 6.75-21.3-8.55 11.043-16.15 22.244-16.763 20.344-5.535 5.887-4.804 5.97-.754-5.724 10.92-21.777-7.962 5.938-8.415 13.528-5.506 2.12 6.612-19.415-.543-9.08-2.417 3.4-3.56 6.518-6.075 10.18-8.152 3.635-16.436.788-25.5 3.15-15.85.46-31.24 3.693-45.9 8.1 10.82-1.63 41.586-.143 17.25 1.2-11.48 3.43-4.883 4.25 4.2 4.95 11.792-1.432 20.928 1.72 16.875 2.944 6.02.947-1.89 4.962-6.525 4.256-5.95 5.64 32.813-4.717 16.284 12.66-3.762 6.86-6.523 16.423-10.584 22.235-3.02 5.526-3.052 14.735-10.95 15.956-6.373 1.943-12.856 4.638-19.35 6.9-6.2.818-13.246 4.624-18.75 6.45-11.46 3.01-2.693 1.036 1.95 3.15 6.824.346 21.06-3.154 9 1.05-8.353 1.036-17.003 3.97-26.1 4.35 10.616 2.244-17.082 1.194-7.65 2.85 9.863-1.103 19.432.786 29.7-1.2 6.83.784 12.864-2.73 12.15.75 4.206-3.4 4.795-.255 6.75-2.1 6.587-4.608 9.022 2.9 2.904 10.603-4.81 8.02-7.287 17.427-11.904 25.997-4.237 7.07-3.502 12.43-6.45 19.95-3.02 5.046-2.988 13.307 2.097 1.432 6.132-8.166 13-16.426 16.25-24.318 1.38-.48-.04-1.232.553-2.164zm56.85-74.55c2.44-7.01 5.04-14.465 8.7-20.85 1.75-7.342 16.696-6.314 6.75-3 8.673 2.14 14.683-.44 20.775 4.252 3.762 4.857-7.603 7.593-11.475 10.148-7.504 4.506-17.416 4.273-23.605 9.164l-1.145.286zm-32.1 44.85c.67-.4-2.048 11.297-6.206 11.044 2.267-4.476 3.532-5.11 6.206-11.044zm42.45-19.8c-9.535 6.73 6.922 2.115 0 0h0zm-8.7 5.25c5.42 1.38 5.178-7.415 0 0h0zm-40.8 28.65c7.356-8.062-5.84 7.428 0 0h0zm4.5-26.25c1.57.78-7.586 13.26 0 0h0zm24-38.1c4.192-12.455 1.63 4.688 0 0h0zm-35.4 72.45c4.872 1.1-4.578 7.565 0 0h0zm45.45-72.6c.55 5.335-5.543 5.9 0 0h0zm-4.5 30.6c4.193 3.262-7.767 1.21 0 0h0zm-38.55 39.6c-2.844.715 4.368-3.012 0 0h0zm-15.45 26.7c-4.473 3.618 2.38 2.59 0 0h0zm64.35-110.55c3.33-.044-3.85 4.416 0 0h0zm.9-3.15c3.274-5.254-2.278 5.17 0 0h0zm-57.3 87.75c3.864-.887-1.452-3.325 0 0h0zm49.35-41.4c5.465-.647-.695 2.843 0 0h0zm-1.05-45c.884-3.655.504.736 0 0h0zm-.45 16.2c1.593-.3-2.9 4.4 0 0h0zm-34.65 48.6c3.45-.04-1.23 3.434 0 0h0zm7.5-.3c3.034.282-1.868 2.314 0 0h0zm27.75-50.55c2.236 1.384-1.948 1.608 0 0h0zm1.2-1.8c1.88.62-2.34 1.718 0 0h0zm-25.05 42.75c2.136 1.175-1.834 1.43 0 0h0zm-15.45 27.15c1.774-2.657-1.645 2.433 0 0h0zm-5.55 10.5c1.2-1.54.917 1.282 0 0h0zm-.75 2.4c2.322.71-1.34 1.496 0 0h0zm8.1-14.25c1.814.737-2.187 1.95 0 0h0zm-14.1 24.45c1.52.483.584-2.224 0 0h0zm11.85-25.8c1.617-.25.184 1.47 0 0h0zm.6-1.2c1.416-.244.396 1.444 0 0h0zm64.2-82.8c1.678-.62.098 1.704 0 0h0zm-19.5 7.05c1.306-.762.08 1.718 0 0h0zM170.31 336.8c1.668-.704.06 1.763 0 0h0zm84-70.35c2.53-.662.008 1.303 0 0h0zm-47.1 10.95l.6.6-.6-.6zm21.15-39c.767-.967.85 1.828 0 0h0zm-40.5 67.05c1.26-.543.194 1.762 0 0h0zm0-12.15c1.162-.686.3 1.3 0 0h0zm-.45 1.05c1.423-.506-.144 1.653 0 0h0zm44.7-58.95c1.423-.506-.144 1.653 0 0h0zm24.9-9.45c1.423-.506-.144 1.653 0 0h0zm-61.95 53.7c1.423-.506-.144 1.653 0 0h0zm57.6-54.15c.575-.12 1.413 1.3 0 0h0zm21.9-19.35c1.746.386-.347.878 0 0h0zm-88.8 104.1c1.036-.34-.03 1.65 0 0h0zm21.75-41.1c1.712.51-.155.694 0 0h0zm-15 20.55c1.695.436-.198.788 0 0h0zm15.75-22.65c1.515 2.062-.36.706 0 0h0zm-48.75 76.5c.966-.61.115 1.38 0 0h0zm12.3-19.65c1.417-.456-.06 1.25 0 0h0zm6.3-1.65c1.417-.456-.06 1.25 0 0h0zm-7.2 13.5c.668-.072.733.82 0 0h0zm8.7-25.05c.567-.625.537.957 0 0h0zm-23.7 29.7c-.016-.896 1.108.6 0 0h0zm34.35-27.9c1.278.027-.354 1 0 0h0zm-12.75 10.65c1.514-.256-.1.806 0 0h0zm-7.35 14.7c.712-.153-.115 1.134 0 0h0zm9-12.9c1 .603-1.16 1.34 0 0h0zm59.4-133.2c-.953 1.653.67-1.973 0 0h0zm-10.65 2.85c.45-1.512.37.73 0 0h0zm-48.75 125.7c-.118-.666.757 1.094 0 0h0zm-4.05 14.1c-.41.453.66.375 0 0h0zm61.05-140.85c.206.277-.498.156 0 0h0zM179.31 311.9l-.15-.3.15.3zm189.36-60.45c-2.735 1.546.654-2.275-.15-4.2 4.072-4.24-2.836-5.302 2.55-7.5.243.677 5.312-13.395 6.45-19.05 4.7-7.998 4.724-19.127 9.966-28.464 5.172-19.433-4.3 2.123-3.216 2.514-.013-6.187 12.267-31.918 6.506-27.9-.344 3.534-3.268 6.855-5.175 10.78-1.746 3.882-10.447 18.257-7.294 7.988 6.967-11.03-2.378-4-1.237 2.53-13.022 17.868 8.303-15.5-4.65-2.7-3.263 13.28-9.502 10.57-7.95 3.75-3.734 6.17-9.545 1.915-14.474 7.902-6.502 2.472-9.127 7.757-15.22 11.957-5.633 6.536-8.692 6.74-10.765 11.88-7.063 7.022-14.326 15.684-20.142 24.66-6.663 4.563-8.34 13.397-14.55 18.75-5.213 4.645-5.606 12.33-13.387 12.45-7.294.956-14.554 3.227-20.28 7.11-4.433 5.216 11.516 2.56-.984 8.04 8.327 2.642 14.666 4.084 5.464 12.278-6.647 9.036-12.866 25.885.236 14.722-3.098 9.57 7.317-2.683 7.65-5.7 1.275 5.213-3.426 14.022-6.9 20.25 3.315 1.205 6.105-5.638 7.05-8.12 7.092-2.727 10.79-7.197 16.2-14.98 5.766-1.168 6.88-11.55 12-13.65 3.642-6.158 12.656-1.52 15.908-7.14 4.163 1.164 11.1-2.872 19.192-1.41-1.51 14.713-6.32 30.884-4.278 45.89 1.884 7.144 3.9 19.4 5.028 10.51 4.714 5.93 2.69 24.757 5.25 9.45 1.3-6.825-1.858-24.568 3-8.25 1.274-7.14-.266 18.33 2.55 13.65.358-11.257 4.527 28.97 4.63 7.762-.035-11.107 2.98-20.146 3.17-31.162 1.918-6.92 3.35-11.37 3.15-15.45.643-8.782 4.14-18.034 4.558-25.003 5.377-3.263-3.447-2.08 2.45-5.645-1.165-13.22 16.652-10.196 26.103-13.92 20.04-5.434-8.697-.584-5.325-1.537 9.9-2.82 23.092-6.127 13.463-7.744 11.644-.603 23.18-4.572 5.878-1.734-6.213-2.007-23.42 2.806-11.166-3.74 7.786-.463 15.427-4.17 24.338-4.575 15.545-2.178-16.014-1.208-22.674-.073-9.078-1.107-28.703 9.56-21.726-6.527-1.095-.59-1.234 3.07-1.2 1.35h0zm-42.9 7.05c2.487-6.906 5.764-7.93 9.3-7.65 6.676-9.995 4.783 3.644 2.568 6.056 3.323 10.787-26.556 11.947-10.154 2.687.632-2.523-12.343 6.66-1.714-1.093zm70.05-93.75c-8.474 17.046 1.864 6.22 0 0h0zm-55.05 163.5c3.002 8.253-3.55 12.912 0 0h0zm-11.4-71.55c7.11-3.565.456-6.637 0 0h0zm48.3 9.45c-7.834 3.176-11.897-.722 0 0h0zm-46.2 64.2c2.233 7.198-2.535 10.95 0 0h0zm-6.75-76.65c2.325 2.743-6.504 8.26 0 0h0zm-39.75 35.85c2.523 2.824-4.453 5.12 0 0h0zm-13.8 20.4c3.208 1.883-4.564 5.55-.394.6l.394-.6zM390.12 179.9c-1.642 10.92 4.402-9.482 0 0h0zm-64.35 105.75c.643 3.315-10.22 1.38 0 0h0zm-51.15 19.2c1.363 1.224-4.712 3.36 0 0h0zm101.7-87.75c.5-4.546-.002-1.21 0 0h0zm-68.25 72.45c5.858-1.246-6.393 1.348 0 0h0zm33.75 46.95c1.92 5.286-1.54 2.234 0 0h0zm-24.6-70.8c5.272-.027-1.112 3.225 0 0h0zm16.2 67.95c3.012-1.7-.21 4.28 0 0h0zm-56.4-34.5c2.86-1.477.61 3.77 0 0h0zM376.92 179c1.053 3.133 2.21-2.984 0 0h0zm-7.05 71.1c1.15-3.6-.948-6.006 0 0h0zm-9.75 37.8c-.68-3.952 2.08-2.13 0 0h0zm-84.3 14.1c3.68.23-2.645 2.14 0 0h0zm114.15-34.2c1.625-1.094 6.18 2.618 0 0h0zm-47.85 49.05c2.37.478-.402 3.176 0 0h0zm21.75-75.45c2.793-.474-.09 2.728 0 0h0zm24-64.8c.186-2.717 2.3-.187 0 0h0zm-12.15 15.75c.135-3.008 1.79.08 0 0h0zm-98.7 111.3c2.748 1.27-.474 1.852 0 0h0zm-7.95 10.5c-2.467 1.325.507 1.893 0 0h0zm72.15 11.25c1.338 2.097-.196 3.516 0 0h0zm29.85-128.85c-.322-.945 1.313 3.085 0 0h0zm17.1 71.85c2.732-.997.176 1.79 0 0h0zm-7.2-3.3c2.633-.385 1.136.942 0 0h0zM359.82 278c-1.653.21 1.305-1.454 0 0h0zm-40.05-15.45c2.125 2.07-.757 1 0 0h0zm12.3 62.1c2.55 1.466-.49 1.245 0 0h0zm37.2-89.7c1.97 2.16-.535.923 0 0h0zm-19.05 11.85c1.306-.762.08 1.718 0 0h0zm-73.2 54c1.306-.762.08 1.718 0 0h0zm52.35-15.15c2.225 1.647-.002 1.04 0 0h0zm24.6-52.35c1.194-.22.262 1.517 0 0h0zm-81.3 75.15c1.194-.22.262 1.517 0 0h0zm61.2-61.65c2.752-.545.327 1.03 0 0h0zm21.3-16.95c2.096 1.872-.642.882 0 0h0zm-23.25 91.05c.91-.204.958 1.107 0 0h0zm10.2 5.55c2.21 1.074-.82 1.36 0 0h0zm13.65-97.95c1.423-.506-.144 1.653 0 0h0zm13.65 10.05c1.423-.506-.144 1.653 0 0h0zm-26.7 115.2c1.048-.708-.08 1.314 0 0h0zm27.75-116.85c1.746.386-.347.878 0 0h0zm-.45.3c.983-.154.027 1.502 0 0h0zm-27.45 105.3c.782-.724.305 1.39 0 0h0zm44.4-162.45c.455-2.437.756.165 0 0h0zm-45.9 143.7c1.723 1.598-.67.76 0 0h0zm9.75-78.6c.862-.103.81.793 0 0h0zm-19.05 82.35c.878-.347.386 1.746 0 0h0zm35.1-60.15c1.415.465-.38.777 0 0h0zm-7.8 29.7c-.38.777 1.415.465 0 0h0zm14.85-99c1.66 1.008-.792.562 0 0h0zm-42.45 131.4c.663-.64.247.915 0 0h0zm21.15-6.6c.758-2.483-.065.96 0 0h0zm1.8-6.45l-.45.45.45-.45zm20.7-99.45c.78-.898 1.577 1.538 0 0h0zm-4.65 24.6v-.9.9zm6.6-22.05c0-1.463 0 .73 0 0h0zm-.45-3c.19-.468-.803.29 0 0h0zm150.307-26.85c6.715-9.48 16.1-15.06 23.25-24.15.224-.903-16.252 9.477-20.25 15-5.97 5.832-7.926 1.67-15 9 4.265-6.64 14.348-18.254 3.3-7.8-.832-.532 20.95-25.626 4.5-11.85-1.76.74-22.744 17.692-14.25 8.4 4.437-2.323 14.16-18.608 4.558-8.468-2.343 7.89-9.543 6.666-14.158 12.368-4.225 5.876-8.81 9.044-13.592 15.532-4.405 3.074-9.613 4.71-13.408 11.318-8.604 8.1-14.924 17.53-22.594 27-8.662 8.14-14.518 18.293-22.42 27.765-8.188 11.375.57-10.93-1.935-15.615 2.616-9.548 1.57-20.253 1.65-31.16-3.148-7.996-7.298-28.312-6.236-6.548-3.48 6.662-2.648-22.55-10.414-5.04-6.15 5.33-8.792 7.43-10.5 15.45-.88 8.912-2.138 16.35-3.62 24.963-2.578 9.642-4.588 19.867-7.32 29.843l-5.484 27.676c-.314 7.94-5.274 15.256-.075 22.668 4.61 7.188 19.338 15.907 24.15 4.65.408 2.984.75 4.38 5.25-3-.11 3.036 7.358-16.234 3.75-1.5 4.87-10.275 7.496-4.28 8.4-13.95 6.738-7.343 9.028-13.055 15.15-19.8 1.346-7.788 14.06-14.094 17.1-23.25 7.703-3.488 10.207-13.8 17.4-17.7 5.59-8.947 16.053-13.526 19.5-24.15 7.1-6.68 14.223-14.308 20.794-21.712 4.936-7.25 12.59-12.43 18.806-19.088 3.248-4.102-7.36 2.772-6.3 3.15h0zm-70.5 76.05c-3.73 8.28-18.314 23.815-4.84 5.373.722-2.315 3.807-3.318 4.84-5.373zm3.45-2.55c1.956-3.053 4.49-9.052 7.95-7.35-2.54.764-4.278 9.965-7.95 7.35zm-39.15-.6c3.825-10.173-3.13 18.515-2.4 1.8 1.735-.1.774-1.405 2.4-1.8zm5.55 39.45c-4.398 10-9.47 3.33 0 0h0zm13.8-16.5c-1.08 6.132-9.18 4.826-.75-.3l.75.3zm74.4-94.8c-4.303 7.1-12.417 6.917 0 0h0zm-92.4 58.05c4.478 8.03-4.148 5.398 0 0h0zm6.6 48c4.074 2.782-6.256 7.355 0 0h0zm-4.8-58.2c-.795 8.637-4.517-.472 0 0h0zm9.6 57.6c.04 3.914-5.882-1.333 0 0h0zm65.7-106.5c1.816-5.94 1.996 2.24 0 0h0zm-83.55 56.25c4.207-1.67-1.624 5.32 0 0h0zm11.55 4.95c-.192-5.42.192-.166 0 0h0zm-20.7 77.85c1.808.076-4.52 4.505 0 0h0zm92.25-121.05c-1.22 3.26-3.494-1.376 0 0h0zm-53.55 77.7c.988 3.778 2.136-5.47 0 0h0zm73.2-117.45c3.24 2.897.407-4.14 0 0h0zm-97.5 142.95c2.915.32-4.972.84 0 0h0zm.6-63.9c.363 3.555-3.122-1.73 0 0h0zm1.65-11.55c.22 5.03-3.087-2.73 0 0h0zm20.4 51.45c-2.582 4.516 1.947 1.29 0 0h0zm-25.8 24.45c1.005 3.166-2.3 3.595 0 0h0zm-33.15 1.2c1.243 2.982-1.764 4.41 0 0h0zm38.1-55.95c1.473 3.674-3.696-2.467 0 0h0zm51-4.2c1.177 3.633 1.406-5.213 0 0h0zm31.8-52.65c3.266-3.517-4.482 3.713 0 0h0zm-79.65 52.95c2.497 4.77 1.922.143 0 0h0zm72.3-60.6c3.258-3.968-4.212 4.148 0 0h0zm-64.05 106.5c-.448 4.7-2.28-1.084 0 0h0zm66.6-93.3c1.235 2.754-2.867-.872 0 0h0zm9.9 2.7c2.586-1.244-2.255 2.286 0 0h0zm-121.35 84.9c.703 2.044-2.02-.612 0 0h0zm32.55 19.65c-.285 2.948-1.738-.302 0 0h0zm71.55-100.5c2.216.734.956 1.515 0 0h0zm-73.35 103.65c.737-1.188 1.483.3 0 0h0zm27.15-73.65c-1.948 1.943-.816-.425 0 0h0zm28.2-27.9c-1.638 1.82-.738-.283 0 0h0zm-66 114.15c.67.77-.568-.152 0 0h0zm88.28-1.95c2.738-4.697 14.514-4.25 19.668-6.356 8.92-2.342 8.968-2.7 17.232-3.844l26.57-7.007c6.26 1.4 17.66-3.133 26.796-2.994 24.333-3.714-21.475.92 5.283-2.9 5.787-.36 31.752-5.348 15.956-4.35-7.66-.23-13.535-.77-21.806-1.8-5.937-1.66 17.658-2.007 6.9-2.7-4.296.752-23.192-.7-7.2-1.2 15.71-.378-8.908-4.524-14.55-3.75 2.57-1.68-13.746-1.595.15-3.6 22.928-1.91-16.006-3.216-23.2.2-10.92 1.133-22.024 4.107-31.56 5.95 5.81-9.794-9.573 9.106-1.444-5.25 4.604-6.8 16.128-23.888 5.644-4.35 3.65-7.762 10.477-13.615 15.15-15.75 5.34-2.412 12.723.314 18.6-3.45 4.523 1.006 10.364-.877 18-1.5 2.61-2.226 18.843-1.822 7.95-4.8-3.462.39 28.57-4.663 5.156-1.856-8.262.077-22.576 2.234-6.375-1.968 6.658-2.76 13.27-3.6 19.37-5.176 6.17-2.685-8.87-.005-13.352-.575-11.74-1.127 4.144-5.123 15.002-2.725 11.848-2.067-12.277-1.41-.15-4.05-10.403 1.54-22.408-3.294-32.402-2.19-7.506-.893-22.826 3.61-24.298-2.01 4.25-4.273 5.1-2.6 7.5-9.75 4.286-3.714 16.623-2.367 24.15-4.2 7.072.543 13.032-3.91 20.1-2.4 6.798-4.553-9.596-.057-8.7-2.7 3.078-.182 7.95-2.237 11.85.9 6.095-4.51 5.047 4.062 16.406-.075 7.434-.528 39.485-5.973 14.473-5.583-7.965-.85-21.188-2.047-11.653-4.59-13.036-1.634 22.97-2.514 7.235-3.583 8.04.66 6.88-4.156-1.876-.855-2.844-.763-19.24 2.003-8.985-1.065 6.32-1.98 14.625-3.864 2.326-3.9-16.376-4.597-34.987-4.78-51.676-2.55-14.947 6.627.097-13.243-10.05 1.65-3.625-.617 4.257-12.973-3.36-6.323-8.603 10.238-5.968 1.526-5.04-4.027 4.733-7.507 12.6-22.143 1.225-7.228-7.747 5.798-9.43 18.714-18.475 20.878-18.76 3.826-37.7 7.11-56.4 12.3 7.495-.622 10.565-.5 13.65 1.95 14.866-2.333-6.273 2.284-3.9 2.85 8.693-1.857 7.22 4.03 12.026 5.068 8.725-1.276 8.803-1.794 8.374.482 5.36-3.075-3.198-3.453 4.35-2.7 4.08 1.247.623-1.526 7.5-.15 5.63-4.9 9.092 3.666 1.35 9.3-1.85 7.4-5.81 15.452-13.2 14.4-8.328 2.84-13.695.816-20.082 4.763-2.214 1.06-21.554 8.156-10.518 7.987 5.794-1.015 15.278-5.478 15.45-.15-5.282-.038-10.752 6.835-3.07 5.822 9.41.763-20.043 9.595-5.18 6.478l17.85-.75c-2.7 6.092-6.84 11.3-8.55 17.25-6.602 4.463-4.35 18.6-12.75 20.7-7.84 1.943-12.677 4.2-20.4 4.8-5.89 1.05-12.288 4.258-18.713 6.73.172.993 16.43-1.74 22.556-2.08 3.682.248-6.842 3.26 4.557 1.5-12.236 3.054-15.52 7.91.45 2.25 15.49-3.59-2.418 3.73-7.5 4.2-7.33 3.726 6.163 2.223 9.15 1.95 2.01 5.253 8.91 2.095 3.15 8.7-2.827 5.618-10.39 26.9-.75 9.45 5.265-7.406 10.785-17.75 9.75-10.5 6.712-14.385-5.014 14.997.75 4.65 5.2-12.8 9.586-13.518 3.75-2.1-4.21 7.14 1.217 5.7 3.45 0 2.736-2.348 7.907-11.095 10.35-9.75zm41.55-16.5c13.108 2.348 7.2 1.895-6.6 5.55 5.568-3.045.145-2.773 6.6-5.55zm45.75-92.25c.898.416-8.76 5.33-12.89 1.662 3.83 1.275 13.88-5.34 12.89-1.662zm-55.65 93.6c6.85 2.955-18.226 4.918 0 0h0zm87.3-9.3c-16.922.036-6.226 3.818.993.3l-.993-.3zm-19.8-93.6c15.082-1.525.338 5.408 0 0h0zm-30.45 97.65c7.307 2.83-12.643 1.348 0 0h0zm-82.35-37.2c-2.112 4.434 9.765-.28 0 0h0zm88.5 23.85c7.038.165 4.3 3.01-.75 1.2l.75-1.2zm28.05 10.8c-10.154 2.515 9.027.622.865.038l-.865-.038zm-46.2-41.7c11.363-2.016-4.55 3.467 0 0h0zm-36.6 54c4.855.717-1.32 5.17 0 0h0zm38.7-109.65c-.054 4.428-5.754 1.27 0 0h0zm.9 102c6.757.83-5.443 2.637 0 0h0zm7.65-86.85c-.944 3.375-4.173-1.186 0 0h0zm-26.7 90.9c.277 2.735 4.095-1.282 0 0h0zm-19.2-23.85c2.994-1.74-1.51-2.838 0 0h0zm8.1-18.6c4.156-1.16 1.35 2.877 0 0h0zm-21.45 49.8c4.238-.778-2.23 2.49 0 0h0zm45.9-129.6c2.968.514 2.64-3.65 0 0h0zm43.95 101.25c-2.335 2.335 3.818.656 0 0h0zm4.8-72.9c1.98 1.856 3.46-.752 0 0h0zm-31.65 76.2c3.35-1.183-.04 3.3 0 0h0zm39.3-86.1c3.175.25-2.443 2.43 0 0h0zm-75.15 102c3.146-1.222-.07 3.225 0 0h0zm-19.35-14.55c-1.286 2.804-2.987-.087 0 0h0zm12.45-24.9c3.048-1.204.062 3.148 0 0h0zm-2.4 1.05c2.953-.873.362 3.273 0 0h0zm67.8-61.2c2.04-1.46 3.476 2.14 0 0h0zm-14.25 86.1c-.675 2.435-3.573-1.3 0 0h0zm66.75-84c-.374 3.033 3.183-.677 0 0h0zm-128.55 6.9c-2.258 2.124-1.695-1.61 0 0h0zm.3 65.1c3.288-.456-.92 2.934 0 0h0zm-9.45 14.85c2.356.872-1.144 3.42 0 0h0zm-5.55-82.05c3.83-.054-4.024 1.623 0 0h0zm103.65-13.8c3.676-.852-.125 2.035 0 0h0zm-36.3 16.35c2.73-1.035 1.29 1.65 0 0h0zm-57.6 75.15c-1.325 1.145-.877-2.74 0 0h0zm92.1 4.65c2.497-.724 1.368 1.654 0 0h0zm-103.5-81.9c-1.6 1.2-.88-.983 0 0h0zm84 77.85c2.766-1.256.703 1.83 0 0h0zm-87.9-72.9c-4.37-.57-.17 2.374 0 0h0zm78.3 73.65c1.814.42.976 1.567 0 0h0zm-12.75 9.45c2.066 2.214-1.125.898 0 0h0zm-89.55 18c-1.178 1.203-1.033-1.52 0 0h0zm20.25 4.5c.13 1.872-1.703-.448 0 0h0zm127.5-124.2c2.594-.333 1.437.907 0 0h0zm-42 52.5c2.934-.534-.032 1.588 0 0h0zm-75.45-35.4c1.793-1.42 1.72.807 0 0h0zm103.95-13.2c2.206 2.068-1.37 1.06 0 0h0zm-26.1 50.1c.933-.93 2.736.603 0 0h0zm-14.7 29.25c1.078-.917.424 1.868 0 0h0zm57.15-83.25c2.73-.45.812.983 0 0h0zm-82.05-4.8c1.6-2.105.797.14 0 0h0zm14.85 110.1c1.306-.762.08 1.718 0 0h0zm-31.5 6.15c2.34-.95.18 1.826 0 0h0zm-28.65-49.95c4.617-1.86-2.975 1.234 0 0h0zm63.75 31.2c1.194-.22.262 1.517 0 0h0zm40.95 3.45c2.53-.662.008 1.303 0 0h0zm9-94.95c2.752-.545.327 1.03 0 0h0zm-82.8 110.25l.6.6-.6-.6zm-59.7 9.15c-1.12.145.517-2.6 0 0h0zm35.85-103.5c-2.36 1.22-.1-1.856 0 0h0zm102-17.85c.8 1.043-.978.924 0 0h0zm-53.55-8.85c.437-1.446 1.054-.015 0 0h0zm-28.2 123c1.4-.37-.098 1.58 0 0h0zm48.6-98.4c1.423-.506-.144 1.653 0 0h0zm47.4-15c1.423-.506-.144 1.653 0 0h0zm-47.25 93c1.423-.506-.144 1.653 0 0h0zm-82.05 36.15c-.597 1.088-1.258-2.17 0 0h0zm68.4-34.65c1.726.478-.376.79 0 0h0zm-12-100.5c1.647-2.225 1.04.002 0 0h0zm-31.95 93.45c1.036-.34-.03 1.65 0 0h0zm-28.05-31.65c1.695.436-.198.788 0 0h0zm2.4 65.25c-.044-1.56 1.416.14 0 0h0zm26.85-37.65c1.18-.3-.377 1.545 0 0h0zm34.8 22.2c1.193.346-.242.83 0 0h0zm29.85-50.4c-.498 1.27-1.412-.947 0 0h0zm-92.25 2.7c.233-.918 2.082.45 0 0h0zm-11.25 56.25c-.794-.228.632-1.274 0 0h0zm40.5-98.55c-1.735 1.406-.644-.24 0 0h0zm-26.1 46.95c3.294-.778.003.904 0 0h0zm11.7-53.55c-.3.583-2.056-.162 0 0h0zm-2.25 110.85c-.36-.763-1.165 1.68 0 0h0zm-15.3-61.5c.303-.637 2.03.587 0 0h0zm15.75-41.55c.715.442-.716.442 0 0h0zm-20.25 84.6h0zm15.15-87.6c.4 1.018-.488.104 0 0h0zm-2.85-.15c.4 1.018-.488.104 0 0h0zm-5.55-5.25c.408.453-.662.375 0 0h0zm.6 0v.45-.45zm95.1 45l.15-.15-.15.15zm-102.15 59.4l.15.15-.15-.15zm-.45-11.25l.15-.15-.15.15zm-8.55 29.4l-.45.3.45-.3zm27.6-10.2l-.3.6.3-.6zm138.865-28.35c2.034-6.318 15.895-28.546 8.4-13.95 3.08 1.29 8.1-12.474 10.556-17.644 9.55-10.807 2.344-20.55-.806-5.156 7.162-1.734-12.245 12.813-.617-2.932 5.75-5.386 5.153-16.043 11.877-20.314-2.36 6.78-8.11 17.852 1.5 5.396 8.3-5.96 2.964-13.923 9-18.75.727-6.954 10.273-13.72 6.15-18.9-1.316-11.687-10.538 1.183-8.1-9 .162-5.874-17.025-3.46-19.568 6.504-4.672 8.43-7.425 12.94-12.62 20.287-4.31 9.056-11.413 17.406-14.31 26.61-6.29 7.67-11.136 18.634-16.05 28.8-5.214 5.594-8.073 14.043-11.738 21.28-3.54 7.595-3.018 14.577-13.087 15.207-5.66 3.223-8.617 10.32-11.475 16.162-.748 9.496 16.53 3.713 5.85 16.5 2.26 9.85 10.264.56 6.15 9.3 3.778-12.19 19.68-24.746 7.04-5.074-11.537 25.406 13.628-18.462 12-11.576-2.697 14.342-14.303 31.46-14.4 42.75 9.135-15.513 13.74-35.754 26.85-47.4 3.442-3.598 19.108-5.03 16.35-6.694 5.528 2.902 10.377-4.303 18.026-3.596 13.413-2.662-1.265 2.727 12.39.676 5.27-1.244 7.03-3.818 12.822-3.36 4.037-1.933 24.985-4.205 34.913-6.075 3.23-.923 17.65-2.202 2.7-3-7.74-3.36-32.56-.014-29.55-2.85 12.556-2.45-5.27-1.3 8.982-3.675 8.03.18 22.767-2.9 5.568-2.625-18.23 4.303-12.924-4.065-.3-3.45-5.96-2.16-9.156.162-15.75-1.05-8.957 2.382-20.767.825-31.423 3.87-9.85-.127-31.018 11.618-17.327-6.27zm3.6 34.05c.384-1.73-25.983 3.852-11.55 3.62 8.857-1.238 42.68-8.628 17.7-4.37.045.3-11.184 2.538-6.15.75zm7.95-66.3c5.085 4.893-6.558 13.94 0 0h0zm-1.2 62.55c8.526 1.11 14.318-5.15 0 0h0zm36.6-6.15c-7.11 4.067 8.858.067 0 0h0zm-40.8-44.4c3.76 3.135-4.266 8.826 0 0h0zm.3 12c-5.37 6.848 4.246 2.5 0 0h0zm-4.8 10.05c-5.37 6.848 4.246 2.5 0 0h0zm-19.35 37.05c4.252 2.102 5.89-3.943 0 0h0zm51.45-22.5c-5.1 2.768-10.02.78 0 0h0zm-1.5-6.15c7.51 1.737-6.49 1.036 0 0h0zm-45 23.7c7.675-.402-4.816 2.708 0 0h0zm46.35-99.45c2.422.357-3.06 5.732 0 0h0zm-1.8-1.65c3.877 1.05-2.548 3.978 0 0h0zM645.172 275c4.406 1.293-1.315 2.232 0 0h0zm31.8 29.85c5.59.82-2.195 1.95 0 0h0zM641.722 329c1.176 2.736 4.227-1.402 0 0h0zm46.05-20.7c-6.028 1.334-4.487-.127 0 0h0zm-48.15 10.2c4.94.808-.78 2.236 0 0h0zm40.95-14.25c4.34-.185 1.148 1.805 0 0h0zm-29.1-100.2c-2.514.453-1.5 3.48 0 0h0zm9.6 110.85c2.69-1.137 1.342 1.29 0 0h0zm13.95-2.85c2.856-.365 1.087.984 0 0h0zm-9.45 10.95c2.732-.997.176 1.79 0 0h0zm-7.2-67.65c2.257 1.738-.9 1.022 0 0h0zm11.25 66.9c1.668-.704.06 1.763 0 0h0zm-36-22.5c.562-.792 1.007 1.66 0 0h0zm4.8-10.05c.562-.792 1.007 1.66 0 0h0zm34.8-66.3c1.423-.506-.144 1.653 0 0h0zm14.25 77.55c1.28-.214.066 1.447 0 0h0zm-20.25 11.25c1.423-.506-.144 1.653 0 0h0zm-13.5-47.25c1.808 1.984-.25.792 0 0h0zm-14.55 23.55c1.423-.506-.144 1.653 0 0h0zm-4.8 10.05c1.423-.506-.144 1.653 0 0h0zm29.4-61.65c1.162-.686.3 1.3 0 0h0zm.6-1.35c1.585.685-.594.96 0 0h0zm-14.85 81.6c.983-.154.027 1.502 0 0h0zm18-79.8c1.154-.165-.284 1.464 0 0h0zm-16.5 33.6c.862-.103.81.793 0 0h0zm32.55-69c-.206.277.497.156 0 0h0z" fill="#00f1ff"/></g><g filter=""><path d="M270.565 351.65h13.95a207.89 207.89 0 0 1 15.75.3c5.3.3 10.35.95 15.15 1.95 4.8.9 8.85 2.4 12.15 4.5s5.55 4.9 6.75 8.4c1.3 3.5 1.1 7.95-.6 13.35-1.7 5.3-4.35 10.05-7.95 14.25-3.5 4.2-7.3 8-11.4 11.4-4.9 4.1-10 7.9-15.3 11.4a224.99 224.99 0 0 1-16.5 9.9c-6.6 3.6-13.2 6.95-19.8 10.05s-13.3 6-20.1 8.7a413.64 413.64 0 0 1-20.4 7.2c-6.7 2.2-13.55 4.15-20.55 5.85-3.5.9-7.1 1.7-10.8 2.4a43.68 43.68 0 0 1-10.8.75 49.54 49.54 0 0 1-5.4-.6 14 14 0 0 1-4.95-1.8c-1.6-1-2.75-2.2-3.45-3.6-.7-1.3-1.1-2.75-1.2-4.35-.1-1.5.1-3.05.6-4.65a36.04 36.04 0 0 1 1.5-4.65c2-4.5 4.75-8.7 8.25-12.6a283.1 283.1 0 0 1 10.5-11.1c.4-.4.95-.9 1.65-1.5.8-.7 1.6-1.35 2.4-1.95.8-.7 1.5-1.25 2.1-1.65s1-.55 1.2-.45c.2.2.15.55-.15 1.05-.3.4-.45.65-.45.75-1.3 1.9-2.65 3.8-4.05 5.7l-4.35 5.7c-.4.5-1.1 1.45-2.1 2.85-1 1.3-2.1 2.85-3.3 4.65s-2.4 3.7-3.6 5.7-2.15 3.9-2.85 5.7-1.05 3.4-1.05 4.8c-.1 1.5.4 2.55 1.5 3.15 1.4.9 3 1.35 4.8 1.35a44.91 44.91 0 0 0 5.25-.3c4.1-.4 8.75-1.3 13.95-2.7 5.3-1.4 10.7-3.1 16.2-5.1 5.5-1.9 10.95-3.95 16.35-6.15 5.5-2.2 10.5-4.3 15-6.3 6.8-3 13.45-6.15 19.95-9.45 6.6-3.4 13.1-7 19.5-10.8a301.46 301.46 0 0 0 15-10.05c5-3.5 9.6-7.4 13.8-11.7 1-1.2 2.4-2.75 4.2-4.65 1.9-1.9 3.7-4 5.4-6.3s3.1-4.7 4.2-7.2c1.2-2.6 1.6-5.15 1.2-7.65-.4-2.3-2.15-4.05-5.25-5.25-3-1.2-6.9-2-11.7-2.4-4.8-.5-10.25-.7-16.35-.6s-12.4.3-18.9.6l-19.05.9c-6.3.3-12.05.4-17.25.3s-9.65-.5-13.35-1.2c-3.6-.7-6-1.9-7.2-3.6-1.7-2.5-.95-6.05 2.25-10.65s9.05-9.75 17.55-15.45c12.5-7.9 25.75-13.9 39.75-18 3.5-.9 6.9-1.6 10.2-2.1 3.4-.6 6.95-.85 10.65-.75 1.3.1 2.65.25 4.05.45 1.5.1 2.9.35 4.2.75 1.4.4 2.65 1 3.75 1.8 1.2.8 2.15 1.85 2.85 3.15.9 1.9 1 3.75.3 5.55-.7 1.7-1.85 3.3-3.45 4.8-1.5 1.4-3.2 2.7-5.1 3.9l-4.8 2.7c-.8.4-1.55.7-2.25.9a13.87 13.87 0 0 1-1.65.45c.4-.3 1.5-1.25 3.3-2.85 1.9-1.6 3.7-3.35 5.4-5.25 1.7-2 2.85-3.9 3.45-5.7s-.15-3.05-2.25-3.75c-1.7-.6-3.4-.9-5.1-.9a42.37 42.37 0 0 0-4.95.3c-1.8.2-3.6.45-5.4.75s-3.55.7-5.25 1.2c-7.1 1.8-13.9 4.35-20.4 7.65s-12.85 6.85-19.05 10.65a187.09 187.09 0 0 0-9.6 6.75c-3.2 2.4-5.95 5.2-8.25 8.4 2.3.8 5.25 1.35 8.85 1.65 3.7.3 7.5.45 11.4.45h11.7l9.75-.15zm123.28 50.85c.2.3-.1.8-.9 1.5-.8.6-1.3 1-1.5 1.2a295.91 295.91 0 0 1-13.35 10.65 227.94 227.94 0 0 0-7.8 6.6l-7.5 6.9-3.6 3.15a13.65 13.65 0 0 1-1.5 1.05 8.29 8.29 0 0 1-1.65.75 4.31 4.31 0 0 1-3.3-.75c-1-.8-1.6-1.8-1.8-3-.2-1.3 0-2.65.6-4.05.6-1.5 1.25-2.85 1.95-4.05 1.5-3 3.15-5.8 4.95-8.4s4.05-5.6 6.75-9c-2.8 2.3-5.5 4.6-8.1 6.9l-14.4 12.75c-2.2 1.9-4.45 3.75-6.75 5.55-.6.5-1.35 1.05-2.25 1.65a13.12 13.12 0 0 1-2.55 1.5c-.8.4-1.65.6-2.55.6s-1.75-.3-2.55-.9c-1.3-1-1.9-2.4-1.8-4.2 0-1.9.4-3.85 1.2-5.85a29.74 29.74 0 0 1 2.7-5.7l2.55-4.2c2.6-4 5.5-7.75 8.7-11.25 3.3-3.6 6.75-6.85 10.35-9.75 2-1.7 4.15-3.3 6.45-4.8s4.75-2.65 7.35-3.45c.1 0 .3-.05.6-.15.4-.1.75-.15 1.05-.15.4 0 .7.05.9.15.2 0 .15.15-.15.45-.4.5-.85.9-1.35 1.2-.4.3-.85.7-1.35 1.2a42.61 42.61 0 0 0-3.15 2.85l-2.85 3.15c-2.1 2.4-4.2 5-6.3 7.8-2 2.7-4 5.5-6 8.4l-5.85 8.7-5.55 8.4c8.1-5.2 16.1-11.2 24-18 8-6.8 16.25-13.6 24.75-20.4 1.2-1 2.65-2.15 4.35-3.45s2.9-2.05 3.6-2.25c.8-.1 1.45.15 1.95.75.5.5.65 1.1.45 1.8-.1.4-.55 1.1-1.35 2.1l-1.65 2.1c-.3.4-1.05 1.35-2.25 2.85-1.1 1.5-2.5 3.3-4.2 5.4l-5.25 6.75-5.25 6.9-4.2 5.85c-1.2 1.7-1.95 2.85-2.25 3.45.1-.1.85-.6 2.25-1.5l4.95-3.6c2-1.4 4.15-2.85 6.45-4.35 2.3-1.6 4.45-3 6.45-4.2 2-1.3 3.7-2.3 5.1-3s2.2-.9 2.4-.6zm35.055-21c.1 1.1-.1 2.1-.6 3s-1.15 1.75-1.95 2.55c-.7.7-1.5 1.4-2.4 2.1-.8.7-1.45 1.5-1.95 2.4-1 1.7-1.9 3.5-2.7 5.4-.7 1.9-1.35 3.8-1.95 5.7l-1.8 6.15-1.5 5.85c-1 3.5-2.55 6.8-4.65 9.9s-4.75 5.5-7.95 7.2c-3.8 1.9-7.55 2.7-11.25 2.4-2-.3-3.65-.85-4.95-1.65-.1 0-.4-.15-.9-.45l-1.5-.9c-.6-.3-1.05-.6-1.35-.9-.4-.4-.55-.7-.45-.9s.65-.1 1.65.3c1 .3 1.6.45 1.8.45 1.3.4 2.75.6 4.35.6 2.9-.2 5.45-1.15 7.65-2.85 1.9-1.4 3.6-3.25 5.1-5.55 1.6-2.3 2.55-4.6 2.85-6.9.4-2.3.75-4.65 1.05-7.05a176.41 176.41 0 0 0 1.05-7.65c-2.5 2.3-5.6 4.75-9.3 7.35s-7.35 5-10.95 7.2c-3.5 2.1-6.55 3.85-9.15 5.25-2.6 1.3-4.05 1.8-4.35 1.5-.2-.3 1.15-1.5 4.05-3.6l10.2-7.95c4.1-3.2 8.25-6.7 12.45-10.5 4.3-3.8 7.75-7.55 10.35-11.25a142.36 142.36 0 0 1 2.7-4.05 54.58 54.58 0 0 1 3-4.2c1.1-1.1 2.3-2.05 3.6-2.85 1.4-.8 2.9-1.2 4.5-1.2 1.4 0 2.6.5 3.6 1.5a5.49 5.49 0 0 1 1.65 3.6zm34.03 21.15c.2-.2.7-.5 1.5-.9.9-.4 1.4-.5 1.5-.3v.3l-.45.45c-3.7 3.4-7.5 6.6-11.4 9.6a304.46 304.46 0 0 0-11.4 9.15l-6 5.4-5.7 5.4a52.72 52.72 0 0 1-2.1 1.65c-.7.5-1.5.9-2.4 1.2-.8.4-1.6.55-2.4.45-.9-.1-1.8-.55-2.7-1.35-.8-.8-1.05-1.9-.75-3.3.2-1.4.55-2.65 1.05-3.75 1-2.5 2.55-5.3 4.65-8.4 2.1-3.2 4.45-6.45 7.05-9.75 2.7-3.3 5.45-6.5 8.25-9.6 2.9-3.2 5.6-6.05 8.1-8.55s4.65-4.55 6.45-6.15 3-2.5 3.6-2.7c.7-.3 1.25-.35 1.65-.15a.98.98 0 0 1 .45.45c.2.2.2.5 0 .9-1.3 2.4-2.85 5-4.65 7.8l-5.85 8.85-6.6 9.45c-2.2 3.2-4.35 6.5-6.45 9.9.9-.7 2.1-1.55 3.6-2.55 1.5-1.1 2.7-1.95 3.6-2.55l8.55-5.55c2.8-1.9 5.75-3.7 8.85-5.4zm16.8-45.15c.3.8.3 1.65 0 2.55-.2.8-.6 1.6-1.2 2.4-.5.7-1.1 1.35-1.8 1.95s-1.4 1.05-2.1 1.35c-.6.3-1.35.55-2.25.75a19.33 19.33 0 0 1-2.4.15c-.8-.1-1.55-.3-2.25-.6s-1.2-.85-1.5-1.65c-.6-1.6-.4-3.1.6-4.5 1-1.5 2.15-2.6 3.45-3.3.6-.4 1.35-.7 2.25-.9.9-.3 1.8-.45 2.7-.45 1 0 1.9.15 2.7.45s1.4.9 1.8 1.8zm30.613 46.05a24.53 24.53 0 0 1 2.55-1.95c.9-.6 1.4-.75 1.5-.45 0 .2-.5.85-1.5 1.95a95.91 95.91 0 0 1-3.15 3.3c-5 5-10.1 9.55-15.3 13.65-5.1 4.1-10.95 7.9-17.55 11.4l-4.65 1.95a21.48 21.48 0 0 1-5.1 1.5c-1.7.3-3.4.25-5.1-.15-1.7-.3-3.2-1.15-4.5-2.55-1.6-1.8-2.2-4.05-1.8-6.75.3-2.7 1.1-5.4 2.4-8.1a56.19 56.19 0 0 1 4.5-7.95c1.7-2.5 3.15-4.4 4.35-5.7 1.8-2.2 4.15-4.65 7.05-7.35s6.05-5.2 9.45-7.5c3.4-2.4 6.8-4.4 10.2-6s6.55-2.4 9.45-2.4a6.58 6.58 0 0 1 4.05 1.35c1.2.8 1.9 1.95 2.1 3.45.2 1.4 0 2.8-.6 4.2-.5 1.3-1.25 2.65-2.25 4.05-.9 1.3-1.95 2.55-3.15 3.75-1.1 1.1-2.2 2.1-3.3 3-2.4 2-4.6 3.6-6.6 4.8-1.9 1.1-3.25 1.85-4.05 2.25-.5.3-.95.5-1.35.6-.3.2-.6.3-.9.3-.2 0-.25-.1-.15-.3.2-.5.55-.9 1.05-1.2s.95-.6 1.35-.9c1.4-1 2.85-2.2 4.35-3.6s2.9-2.9 4.2-4.5a24.11 24.11 0 0 0 3.45-5.1c1-1.8 1.65-3.65 1.95-5.55-2 .5-3.9 1.4-5.7 2.7-1.7 1.2-3.4 2.5-5.1 3.9l-7.8 6.9c-2.9 2.6-5.7 5.4-8.4 8.4s-5.15 6.1-7.35 9.3c-2.1 3.2-3.5 6.4-4.2 9.6 3.3-.3 6.55-1.05 9.75-2.25 3.2-1.3 6.3-2.75 9.3-4.35 3-1.7 5.95-3.5 8.85-5.4 2.9-2 5.75-3.9 8.55-5.7 1.8-1.4 3.4-2.55 4.8-3.45s2.85-1.95 4.35-3.15zm88.41-102.45c.2.2.15.65-.15 1.35-.2.7-.55 1.5-1.05 2.4-.4.9-.85 1.75-1.35 2.55-.4.8-.7 1.35-.9 1.65-2.8 4.9-5.75 9.75-8.85 14.55l-9.6 14.55-11.55 16.65-11.55 16.35-10.8 14.7-10.65 14.7c.1.2.15.35.15.45s.05.25.15.45c2.4-1.9 5.3-4.1 8.7-6.6s6.85-4.95 10.35-7.35 6.8-4.55 9.9-6.45c3.2-1.9 5.85-3.25 7.95-4.05.3-.2.65-.25 1.05-.15.4 0 .45.25.15.75a6.33 6.33 0 0 1-1.2 1.65c-.4.4-.8.85-1.2 1.35-2.2 2.2-4.7 4.45-7.5 6.75-2.7 2.3-5.55 4.5-8.55 6.6-2.9 2.1-5.9 4.1-9 6s-6.15 3.5-9.15 4.8c-.1.1-.2.15-.3.15a.13.13 0 0 0-.15.15l4.5 15.75a473.01 473.01 0 0 1 4.5 15.9c.2.5.3 1.1.3 1.8s-.4 1-1.2.9c-.7-.1-1.35-.35-1.95-.75a13.65 13.65 0 0 1-1.5-1.05c-1.2-1-2.25-2.15-3.15-3.45-.8-1.2-1.6-2.5-2.4-3.9-1.6-2.8-3.1-6.05-4.5-9.75-1.4-3.8-2.5-7.3-3.3-10.5l-7.65 10.5c-2.4 3.4-5 6.7-7.8 9.9-.6.8-1.35 1.6-2.25 2.4-.8.8-1.6 1.2-2.4 1.2-1.4 0-2.35-.5-2.85-1.5-.5-1.1-.5-2.2 0-3.3 2.2-4.3 4.9-8.65 8.1-13.05l6.3-9.6c2.2-3.3 4.45-6.55 6.75-9.75v-2.55l.3-2.7c.1-.5.25-1.1.45-1.8.2-.8.55-1.3 1.05-1.5.5-.1 1 .15 1.5.75s.85 1.1 1.05 1.5l11.4-16.05 11.85-16.05 12-16.05 12.45-15.75 8.85-10.8c3.1-3.6 6.3-7.15 9.6-10.65l2.4-2.4c.6-.6 1.15-1.05 1.65-1.35s.85-.4 1.05-.3zm21.962 83.1c-.6 1-1.9 2.95-3.9 5.85l-7.2 10.2-8.85 12.3-8.55 11.85-6.6 9-2.85 3.9c-7.8 10.7-16.15 21-25.05 30.9a180.98 180.98 0 0 1-29.4 26.55c-5.3 3.8-10.8 7.25-16.5 10.35-5.8 3.2-11.9 5.65-18.3 7.35-2 .5-4.05.95-6.15 1.35a33.6 33.6 0 0 1-6.3.6h-1.65c-.8 0-1.35-.15-1.65-.45-.2-.2.15-.5 1.05-.9.9-.3 1.45-.5 1.65-.6a46.55 46.55 0 0 0 6-1.95 134.59 134.59 0 0 0 5.7-2.25c6-2.5 11.75-5.55 17.25-9.15 5.4-3.5 10.6-7.35 15.6-11.55a200.2 200.2 0 0 0 14.25-13.5 431.01 431.01 0 0 0 13.05-14.25c4.5-5.1 8.8-10.3 12.9-15.6s8.1-10.75 12-16.35c2.4-3.2 4.7-6.55 6.9-10.05 2.3-3.5 4.9-7.3 7.8-11.4l-7.8 6.75-7.65 6.75-6.6 5.85c-2.2 1.9-4.45 3.75-6.75 5.55a52.72 52.72 0 0 1-2.1 1.65 13.12 13.12 0 0 1-2.55 1.5c-.9.4-1.8.6-2.7.6s-1.75-.3-2.55-.9c-1.1-.9-1.65-2.05-1.65-3.45s.15-2.75.45-4.05c.6-2.2 1.4-4.3 2.4-6.3 1-2.1 2.15-4.15 3.45-6.15 2.6-4 5.5-7.75 8.7-11.25 3.3-3.6 6.75-6.85 10.35-9.75 2.1-1.7 4.25-3.3 6.45-4.8 2.3-1.5 4.75-2.65 7.35-3.45.1 0 .3-.05.6-.15.4-.1.75-.15 1.05-.15.4 0 .7.05.9.15.2 0 .15.15-.15.45-.4.5-.85.9-1.35 1.2-.4.3-.85.7-1.35 1.2a42.61 42.61 0 0 0-3.15 2.85c-.9 1-1.8 2.05-2.7 3.15-4.3 4.8-8.25 9.85-11.85 15.15l-10.5 16.05a163.93 163.93 0 0 0 4.35-3 163.93 163.93 0 0 0 4.35-3l8.25-5.85 7.95-6c.3-.3 1.1-1 2.4-2.1l4.5-3.9 5.7-5.1c2-1.8 3.95-3.5 5.85-5.1l5.25-4.65 3.6-3.15c.2-.2.6-.55 1.2-1.05l1.95-1.65 2.25-1.65c.8-.5 1.4-.9 1.8-1.2.2-.1.65-.3 1.35-.6.8-.4 1.25-.3 1.35.3 0 .5-.15 1-.45 1.5s-.55 1-.75 1.5l-1.2 2.1c-.3.6-.7 1.25-1.2 1.95z" fill="#920058"/></g><defs><filter id="A" x=".295" y="0" width="817.41" height="714.923" filterUnits="userSpaceOnUse" class="B"><feFlood result="A" class="C"/><feColorMatrix in="SourceAlpha" values="0 0 0 0 0 0 0 0 0 0 0 0 0 0 0 0 0 0 127 0"/><feOffset/><feGaussianBlur stdDeviation="25"/><feColorMatrix values="0 0 0 0 0.607843 0 0 0 0 0 0 0 0 0 0.909804 0 0 0 1 0"/><feBlend in2="A"/><feBlend in="SourceGraphic"/></filter><filter id="B" x="109.616" y="160.75" width="613.768" height="225.5" filterUnits="userSpaceOnUse" class="B"><feFlood result="A" class="C"/><feColorMatrix in="SourceAlpha" values="0 0 0 0 0 0 0 0 0 0 0 0 0 0 0 0 0 0 127 0"/><feOffset dx="-4"/><feGaussianBlur stdDeviation="2"/><feColorMatrix values="0 0 0 0 0 0 0 0 0 0 0 0 0 0 0 0 0 0 1 0"/><feBlend in2="A"/><feBlend in="SourceGraphic"/></filter><filter id="C" x="140.09" y="276.062" width="509.224" height="263.338" filterUnits="userSpaceOnUse" class="B"><feFlood result="A" class="C"/><feColorMatrix in="SourceAlpha" values="0 0 0 0 0 0 0 0 0 0 0 0 0 0 0 0 0 0 127 0"/><feOffset/><feGaussianBlur stdDeviation="12.5"/><feColorMatrix values="0 0 0 0 1 0 0 0 0 0.15 0 0 0 0 0.662008 0 0 0 1 0"/><feBlend in2="A" result="B"/><feColorMatrix in="SourceAlpha" values="0 0 0 0 0 0 0 0 0 0 0 0 0 0 0 0 0 0 127 0"/><feOffset/><feGaussianBlur stdDeviation="7.5"/><feColorMatrix values="0 0 0 0 0.729167 0 0 0 0 0.00911456 0 0 0 0 0.443119 0 0 0 0.9 0"/><feBlend in2="B" result="C"/><feColorMatrix in="SourceAlpha" values="0 0 0 0 0 0 0 0 0 0 0 0 0 0 0 0 0 0 127 0"/><feOffset dx="2" dy="2"/><feGaussianBlur stdDeviation="1"/><feColorMatrix values="0 0 0 0 0 0 0 0 0 0 0 0 0 0 0 0 0 0 0.7 0"/><feBlend in2="C"/><feBlend in="SourceGraphic"/></filter><linearGradient id="D" x1="409" y1="55" x2="409" y2="655" gradientUnits="userSpaceOnUse"><stop stop-color="#ff019a" stop-opacity=".5"/><stop offset="1" stop-color="#9b00e8" stop-opacity=".5"/></linearGradient><linearGradient id="E" x1="409.3" y1="83" x2="409.3" y2="603" gradientUnits="userSpaceOnUse"><stop stop-color="#ff019a"/><stop offset=".526" stop-color="#9b00e8"/></linearGradient></defs></svg>
