<svg xmlns="http://www.w3.org/2000/svg" width="818" height="715" fill="none"><style><![CDATA[.B{color-interpolation-filters:sRGB}.C{flood-opacity:0}]]></style><g filter="url(#A)"><path d="M409 655L59 55H759L409 655Z" stroke="url(#D)" stroke-width="10"/></g><path d="M109 83L409.3 603L709.6 83H109Z" fill="#000" stroke="url(#E)" stroke-width="15"/><g filter="url(#B)"><path d="M636.787 296.78c3.745-4.957 5.975-14.702 9.244-16.924 5.42-7.094-.9 1.77-.544 4.474 2.116-.797 2.474-4.89 4.475-6.575 2.07-5 5.49-9.61 6.625-15.175 2.875-2.21 7.102-13.125 3.15-11.4-2.046 1.215-8.288 11.63-3.6 7.05 1.212 2.783-.658 6.076-3.806 6.188-4.393-.824 4.223-9.796 5.03-12.492 4.324-3.04 2.33-11.79 7.03-13.693 4.905-4.876-.716 5.075-1.97 7.226 1.02 2.584-2.25 1.098-.69 3.43 3.45-3.942 7.95-8.38 10.458-13.91 4.007-2.95-1.623-6.792 2.55-9.15 3.26-3.105 3.88-8.242 6.282-11.664 1.83-2.44 2.467-4.097 2.85-6.598.61-3.486-1.6-8.417-6.58-9.788-3.642 3.78-3.97 4.188-1.097.194-1.803-2.068.357-8.572-3.853-3.944-4.985-.037-5.694-3.558-9.832.12-4.607 3.1-7.265 6.724-9.837 11.43-1.888 3.15-2.516 7.197-4.78 8.1-2.686 4.265-3.993 7.3-6.825 11.025-1.415 3.393-3.535 5.79-4.993 9.327-2.058 2.984-3.674 6.352-5.966 9.282-1.052 3.25-1.796 5.38-3.966 7.266-2.27 4.068-2.852 8.68-6.6 11.55-2.66 5.683-5.595 11.835-8.55 16.8-3.536 3.288-3.92 8.982-7.493 12.488-1.104 4.976-3.733 8.558-5.803 12.956-.278 3.608-.215 7.075-4.89 7.984-3.556 1.092-9.288 1.457-9.265 6.022-3.475 2.05-4.35 7.672-7.5 9.9-.112 2.432-.995 7.456 2.85 6.75.242 3.628 4.388.048 5.672 3.192-.522 4.283-4.055 8.526.1 12.106-.918 8.324 7.537-4.196 3.922 3.2-1.626 6.802 2.878-6.256 5.156-7.388 1.374-5.584 11.038-8.824 4.408-2.396-1.656 3.978-7.706 16.464-5.686 16.257.927-6.92 5.793-9.413 9.633-13.51 1.517-2.584 4.757-7.75 5.254-9.208l-5.127 17.786c-5.155 8.382-6.715 17.87-11.482 26.32 4.295 2.4 5.816-10.7 8.768-13.827 3.08-7.455 7.777-13.55 10.756-21.104 1.535-5.277 5.263-10.402 9.257-12.15 1.027-2.64 8.74-1.517 12.314-3.94 4.36-.562 5.872-1.14.755-1.478 3.7-1.26 7.498.89 10.653-.908 2.206-2.733 6.22-3.065 9.87-3.32 2.612-.082 10.258-2.12 8.2.048-7.735.795 4.4 1.53 7.375-.02 2.114-.313 2.676-2.505 5.356-2.343 1.83-.3 4.75-.855 6.394-.207-1.865-2.352 9.758-2.364 13.2-2.7 5.198-3.282 14.116-.955 20.25-3.6-1.5-1.605 4.93-.707 6.764-1.01 4.057-.184 4.45-1.52.47-1.925-6.653-1.04-14.275.54-20.37-2.547-2.338 2.56-7.965-.68-11.466 1.433-8.173.068-3.913-2.513.13-2.053 6.113-2.128 3.406-1.717-.962-1.397 1.29-.466 6.07-2.515 8.802-1.556 3.77-1.748 9.43-.758 13.48-2.044-4.71-1.907-10.278-.994-15.837-.88-2.62.77-10.817.906-3.773-.717-2.054-5.064 13.357-.974 8.224-3.464-3.306-.544-4.307-.633-7.27.112-1.894-.037-5.063-1.117-6.975.038-5.395-.1-11.915 1.716-18.02.862-7.654 1.638-16.18 3.04-24.15 4.05-3.617.108-10.096 4.44-10.444 1.163 1.287-2.8 4.125-6.54 4.294-9.113h0zm-139.315 29.55c-.042-4.518 8.668-1.506 11.982-4.428 2.508-1.958 7.045-1.382 11.624-2.415 3.282-2.644 4.865-.85 6.844-2.907 3.21 2.727 10.915-3.62 15.6-2.1 4.317-3.302 6.622-2.53 11.83-3.43 6.44 2.207 4.645-5.363 8.664-1.22 3.392.216 5.48-2.408 8.873-1.537 7.34-2.466 15.788-1.278 23.172-3.8-1.152-.59-8.62.53-10.54.537-5.178-.125 9.06-2.47 11.255-2.517 6.12-.315 14.03-2.096 18.445-3.483-3.65-1.676-6.457.223-11.328-.253-3.31-1.236-7.545.66-10.942-1.507-5.19.18-10.127-1.48-3.38-1.4 1.757-.436 13.065-1.26 4.33-2.036-5.163-.6-6.785 2.56-11.923.293-7.474-2.198 5.793.125 8.383-1.365 7.4 1.194-3.666-3-5.89-2.592-4.232-.332-13.404.6-11.363-2.23-1.7 2.492-11.305-1.54-4.537-.92 3.722-2.255 20.37-1.074 7.93-3.354-8.035-.602-16.304.908-24.11 1.57-6.162 1.607-13.064 2.62-19.648 3.182-3.556.83-8.858 2.218-12.173 3.403-6.315 2.966 2.84-5.27-3.45-3-1.858 7.2-5.198 2.2-.3-2.1 4.138-3.866 4.604-11.06 8.864-13.485 5.3-3.983-8.177 12.313-2.274 7.917 3.257-4.898 5.595-12.02 10.257-12.17 5.26.27 1.614-4.474 6.125-3.686 3.743.05 6.037 2.12 9.728-.327 2.184-1.05 9.913-.705 10.67-2.212 3.367 1.484 7.032-1.37 11.315-.546 3.74-.702 9.508-2.03 8.506-2.642 2.058.556 9.733-.742 4.9-1.8-11.7-1.65 4.212-1.2 8.337-2.723 7.767-3.225-8.16.803-11.098.434-4.03.2-7.507-.565-11.12.477 5.495-1.675 11.172-3.42 16.31-5.373 4.554-.035 6.702-2.553 10.984-2.115 2.78-.246 5.686-2.764 1.435-1.8-3.26.164-8.81.867-13.488.602-1.717-2.684-2.76 1.462-6.762-1.352 7.367-3.638 15.824-.8 23.1-1.95 6.464.77-1.413-3.034-4.125-1.143-3.42-1.577 8.22-1.707.112-1.82-6.263-1.02-13.997-.687-20.868-2.55-3.293-.127-6.84-.98-10.088-.356-5.546 1.03-10.47-.333-17.597 1.12-5.787.867-3.8-.086-4.284-3.053-3.504-2.203 2.137-2.824 2.554-1.957 2.5-1.696-2.043-3.37 2.546-2.993 3.156-5.248-.42-5.774 6.675-6.66 6.01-1.752 11.445-.842 17.194-1.72 4.582.006 10.32-1.354 14.362-3.28 1.928 1.416 6.71-.333 8.91-.338 3.12-.398-3.448-2.693-6-1.65-4.168-.84 1.114 3.226-4.25.432-.354-2.778 3.5-.3 5.12-1.482 2.603-.898 5.942 1.788 9.6.6-.107-2.77 3.813 1.214 1.95 1.5 6.955.493 13.932-1.43 20.695-1.237 4.015-2.834 15.724-1.97 15.148-4.613-7.783-.35-21.577-.197-25.53-3.43 2.912-.776 7.364-.448 1.184-1.716-2.188-.9 7.738-2.132 9.804-1.603 4.654-.727 7.65-1.614.21-1.68-1.744.044 12.758-1.464 3.57-1.92-3.45-.567-6.03 1.537-8.3 1.088-3.292-.6-6.503.753-9.862.806-.72-1.955 5.37-2.857 8.05-2.944 2.177-1.996 9.186-1.336 2.1-2.85-5.354.5-9.67-2.08-15.113-2.326-11.07-2.477-22.494-1.04-33.747-1.424-3.625.168-14.684 3.664-14.667 1.37 4.357-5.926 2.893-6.588-.933-1.37-3.78 7.66-3.962-.964.6-4.05-3.616-.593-3.257 2.107-2.25-2.25-3.33 1.617-12.12 13.05-8.664 5.368 2.27-2.865-4.664.018.264-4.018.277-4.053 3.535-7.364 5.083-11.125 2.332-3.41 5.837-8.955-.34-3.33-3.297 4.838-7.282 10.137-11.24 14.48-2.75 3.544-4.294 9.43-8.488 10.993-5.725.38-10.93 2.576-16.335 2.977-5.675.206-10.997 2.39-16.23 3.255-8.63 2.112-17.132 3.55-25.8 6.15 2.595 1.075 10.723-1.746 10.5.45.012 2.362 7.083.5 8.85 1.05-3.212.88-6.324 2.402-9 2.1-4.25 3.018 6.263-.942 4.584 1.543 6.878.132-1.785 3.37 5.4 2.9 3.79-.496-1.71 3.064 4.34 1.363 2.212-.338 10.035-1.535 4.716-.407-3.89 3.293 8.13-.853 1.575-1.143-4.477-.238 7.774-1.623 3.166.76 4.98.204 4.297-1.524 1.41-.818 5.053-5.004 1.223 3.526 6.75-.3-.394-1.96 8.503-1.968 6 1.65-3.72 4.76-5.416 10.287-8.436 15.472.3 4.988-4.63 5.655-7.82 6.242-3.2 1.103-8.26 1.7-12.23 2.436-2.49-.816-6.33 1.188-9.214 2.447-5.145.82-8.21 4.78-13.218 5.788-5.513 2.858 2.096 3.072 4.323 1.647 3.306-1.254 7.593-1.37 9.394-1.332 3.148-3.148 7.06 2.307 1.95 2.55-3.528.107-3.96 3.464-5.12 3.75-1.284 3.526 11.907.446 4.106 3.825-1.618 1.13-13.72 4.593-8.137 5.325 4.073-2.32 3.506.894 6.956-1.987 4.567-.11 7.694.475 12.244.487 2.985-.61-2.967 5.397-2.127 7.186-3.314 4.398-3.394 7.656-6.737 10.823-2.018 6.067-5.138 12.347-7.723 18.155-2.936 1.806-7.228 2.363-10.863 3.586-3.294.118-6.5 2.793-10.673 2-3.04 1.477-5.872 1.36-9.144 2.204-2.826 2.66-7.993 2.703-11.15 5.08-5.063 1.186 8.17-.367 10.716-.875 3.27-.138 6.934-.657 10.05-1.2 7.76-.31-.433.887-1.35 2.1 2.027.657 9.7-1.7 5.08.244-1.946.567-12.12 3.936-8.794 4.013 6.38-.493 12.702-3.21 18.863-3.507-3.27 1.428-7.03 2.732-10.35 4.05-2.025.86-8.76 1.786-6.6 3.45 3.138-.8 5.434 1.265 8.333-.485 4.033-.34 3.35 4.412 7.983 3.447 1.61.357-1.965 3.905-1.766 5.738-3.5 3.7-3.74 9.917-5.4 14.55-2.762 5.522 4.533-5.594 5.53-7.725 3.593-3.502 4.62-8.95 9.32-12.375-2.308 2.69-3.687 8.44-.054 1.983 3.2-4.227 1.315-1.168.01 3.1-1.794 3.12-2.885 10.805.045 3.616 3.008-2.323 4.55-12.56 7.5-10.95-2.228 3.348-2.146 6.074-3.683 9.39-1.042 1.25-2.928 7.1-.465 4.353 1.753-2.303 4.285-2.988 4.598-5.944 3.088-2.575 6.82-9.407 9.45-8.85l.15.15zm29.32-136.65c3.15-4.32 6.988-8.342 10.983-11.794 1.877-1.597 4.034-3.443 5.524-5.18 2.278-2.9 6.977-6.204 8.093-8.377-6.518 2.98-10.866 8.003-17.1 11.7-3.06 2.634-5.57 5.297-8.738 7.67-4.677 6.307 1.427-4.428-3.656.188-4.17.78-3.79 4.756-7.106 5.643 1.307-4.184 10.566-12.106 8.64-12.4-2.323 1.342-4 4.084-6.69 5.65 3.722-6.32 9.653-10.944 12.858-17.16-.51-1.386-5.927 3.288-7.884 5.43-4.218 2.483-7.96 5.282-11.708 7.675-3.86 4.717-5.91 2.803-1.69-.4 3.324-2.413 6.488-7.03 7.525-9.483 4.26-2.7-.163-3.9-2.1 0-.756 3.81-4.197 6.17-7.34 8.583-2.415-2.085-4.325 3.006-6.76 4.467-2.576 2.64-4.343 5.302-6.203 6.406-4.353 1.494-3.333 7.005-7.447 8.444-1.13 1.46-3.345 4.72-4.795 2.953-2.598-.045-4.267 5.137-7.505 6.047-2.95 6.024-8.526 8.618-11.55 14.55-5.454 3.365-6.48 10.245-11.872 14.368-4.05 2.792-6.5 7.82-10.328 11.432-2.07 5.066-7.368 9.232-10.875 14.25-2.062 2.625-2.977 6.317-6.29 7.254.6-2.776 2.297-8.744 1.984-13.006.32-5.6-.167-10.593 2.132-15.098-.256-5.538-.352-10.188-.45-15.672.367-4.42-.152-8.49-2.173-12.36-1.047-3.427-1.935-8.994-3.377-12.617-1.544 4.212-.065 8.696-.948 13.045-3.22 1.546-1.67-10.434-4.793-12.364-2.493 3.646-6.354 8.264-11.06 10.57-1.08 2.12-3.64 3.835-3.656 7.894-1.24 3.775-1.217 8.784-2.554 11.996-.835 2.957.448 5.36-.54 8.46-2.868 4.05-.566 9.148-3.13 13.632-1.288 4.615-2.616 8.673-3.767 14.75.35 6.456-4.126 11.435-3.657 17.656-.714 4.76-2.767 9.843-3.133 15.105-1.215 3.624-1.656 8.16-2.006 12.15-.216 3.706-3.14 6.99-.506 10.832.763 3.38 3.736 4.754 4.95 7.674 3.277 5.334 9.83 2.514 13.836 6.15 4.286 1.825 9.385-10.49 7.39-4.537-1.976 7.98 5.058-5.633 4.492-3.268 1.958 1.032 2.312-8.25 5.4-8.4-1.82 2.4-2.715 9.108.96 3.278 1.982-1.656 3.558-8.906 4.074-3.863 2.766-3.364.854-8.015 4.937-11.227 1.97-2.854 4.22-5.764 6.473-7.282 2.15-2.62 1.393-7.368 5.84-8.64-1.377-3.328 4.284-5.15 5.642-8.855 4.514-3.626 7.473-8.25 11-12.728 1.267-3.34 6.235-3.936 7.47-8.135 2.715-4.28 5.9-7.528 9.338-10.482 2.517-2.61 4.87-5.384 7.162-8.137 3.884-4.626 9.257-7.11 11.704-12.937.772-3.757 3.608-5.425 6.146-7.707 3.98-4.784 8.372-9.875 13.088-13.78 3.24-2.7 4.052-7.4 7.77-9.442 3.564-3.495 6.815-6.292 10.38-10.246 3.046-2.113 6.762-7.042.675-2.925-1.04.86-1.97 1.842-3.075 2.625h0zm-201.157 68.85c-.528-.42-.697-1.45.253-1.25.605-.183.255-1.306 1.097-1.15-.065-1.12 1.115-1.626 1.58-2.487.042-.548.573-.857.873-1.28l1.298-1.483c.705-.028.43-1.566 1.36-1.145l.29 1.745c-1.36-.05.13 1.316.588.54-.164-1.18 1.288-1.14 2.096-1.146 1.315-.143.417-2.114 1.516-2.393l2.55-1.65c-.16-.582.516-1.096.506-.206-.01 1.016.525 1.9.687 2.866-.206.274-.858.633-.63 1.273.205.913.156 1.97-.942 2.13-.75.22-1.86 1.54-1.208 2.037 1.01-.425 1.733 1.392.51 1.33-.786.545-1.137 2.21-.176 2.585.262.963-.798 1.52-1.317 2.135l-1.03 2.798c-3.544.396-7.076.95-10.567 1.684-.804.003-1.612.675-2.3.613l-1.243-.497c.935.092.874-1.094 1.508-1.323.86-.2.84-1.336 1.36-1.92.355-.522.916-.827.733-1.527.706-.423 1.528-.774 2.28-1.17.022-.274-.34-1.473-.427-1.64-1.03.752-1.935 1.653-2.902 2.48-.03.878-1.493 1.79-1.964 1.626.14-.642-1.283-1.15-.22-1.04.87-.057.646-1.095 1.52-1.038.863-.357 1.33-1.416 2.312-1.498h0zm42.9-7.05c-.396 5.133-2.64-4.82-.28-1.256.897 2.386.805-3.526-.2-2.363 3.692-3.24.617-6.037.332-5.23 1.596-5.194 2.7-1.777 2.967-1.572.974-5.84 3.09-10.497 4.917-15.162.655-3.025 1.927-5.393 1.866-8.678 3.146-1.593 2.693-7.802 4.8-11.338-1.43-7.885 7.974-14.36 6.027-22.066-1.033 2.627-3.08 8.084-4.077 10.216-2.448 3.887 1.814-9.024 2.557-11.132 1.802-5.55 5.81-14.426 4.713-18.162-2.703 1.857-.978 4.75-3.24 6.532-.766 1.934-2.134 4.482-3.45 6.394-1.363 4.7-4.968 6.253-6.888 11.54-3.118 2.684.372-3.186.4-4.284 1.69-2.994 2.956-9.097-.244-3.488-2.972 4.34-.68 7.51-5.138 11.044-5.43 5.792 2.955-5.468 2.42-8.07 4.338-6.482-3.462 1.442-4.643 3.325-2.888 5.93-4.152 10.064-7.938 6.15 2.407-4.81 2.465-6.702-1.2-1.8-1.993 2.37-6.07-1.73-7.556 2.044-2.932 1.924-5.243 4.134-8.8 4.758-3.77 2.704-5.86 6.097-9.895 9.698-4.027 2.95-8.49 7.633-10.42 9.263 1.604-.018-3.184 3.728-3.735 5.456-4.513 3.466-7.7 9.125-11.944 13.48-3.628 3.718-5.024 8.492-9.3 11.1-1.883 3.58-3.88 7.242-6.75 10.05-1.643 4.3-5.688 7.264-8.115 10.815-2.583 3.28-3.295 5.796-7.093 7.988-3.576 1.023-8.45-.513-10.773 2.256-4.613.3-7.66 2.7-11.562 3.827-5.175 3.507-1.097 5.27 3.793 4.514-2.185 1.053-1.758 3.764-5.42 5.175 2.107 3.187 8.032 1.582 10.573 2.863.22 3.632-3.143 5.734-4.928 8.204-2.963 6.42-7.035 12.338-9.676 19.008 3.03 4.622 9.844-7.88 8.7-2.4-.9 7.65 4.467-1.945 7.2-2.55-4.25-1.696 6.254-7.777 1.8-.45-2.016 3.044-1.895 7.206-4.163 10.38-2.735 3.35-3.353 9.543.413 4.17 1.14-2.104 3.58-5.1 3.75-6 2.786-4.68 6.37-1.782 9.17-5.643.498-3.36 5.396-8.367 7.912-10.182 4.735.035 3.088-9.773 8.39-9.12-.035-3.464 4.302-7.7 8.76-7.006 2.45-2.6 6.87-.04 8.738-2.803.61-4.902 5.923 3.412 6.38-3.047 2.023 5.148 14.676-5.5 13.05 2.4-.82 7.568-1.775 17.094-3.32 25.287-1.264 7.303-1.467 14.275.336 21.48.577 2.702 2.5 10.73 3.578 11.976-1.06-6.192-.164-6.307 2.407-2.192.643 5.155 2.336 10.124 2.4 15.3l1.653-18.448c-.468-4.037-.074-8.7.372-1.39-.16 3.646 2.986 4.746 2.175.787 1.23 5.918.644 12.187 1.5 18.15 1.034-3.59 1.74-7.373 2.51-.885.635 2.93.38 15.068 3.123 12.406-.554-5.29.725-9.747.746-14.794-.517-4.52 1.185-8.382 1.898-11.683-.52-5.667 1.837-13.123 2.6-16.675-2.073-2.12.34-7.525 1.555-5.925.28-3.585.013-4.016 1.043-8.126-1.276-4.563-.496-11.23 2.876-13.118-2.03-.663-.247-8.5 1.93-7.33 2.854-5.627-3.088-.34-1.84-2.296.513-3.457 3.388-.057 2.9-4.323-.213-4.307.52-8.422 6.6-7.8 4.553-4.044 12.652-1.457 18.094-4.46 2.003-.22 13.118-3.05 7.106-3.64-3.678.02-12.995 4.074-12.942 2.234 6.395-2.203 15.208-3.722 20.142-6.434-4.185-.283-9.428-1.77-1.6-2.343 2.29-.844 18.137-.706 11.138-2.243-4.39.094-7.712 1.224-12.15.536-4.59-.23-8.973 1.52-13.588.3 3.97-2.72 8.902-4.106 13.087-4.5 2.576-.097 6.99-3.535 11.138-2.493 3.007-.4 12.462-1.543 12.03-1.913-7.856-.674-14.352-.334-22.35.33-7.81 1.304-17.12.258-24.035 3.218-3.445 1.426-7.55-.597-4.895-3.988 1.645-1.94.684-7.634-.425-3.855zm-140.16-.9c.253-1.457-.063-3.134 1.116-4.217.808-1.045.85-2.533 1.47-3.276-.088-.89 1.17-.792 1.202-1.853.108-1.213 1.1-2.2 1.052-3.433.894-.496 1.248-2.02 1.252-3.232l.96-2.74c.815-.1.35-1.112 1.168-1.425.778-.7.352-1.81.877-2.66.4-1.447 1.946-1.523 2.36-2.737 1.042.305 1.7.98 2.448-.1.52-.334 1.032-.706 1.684-.568 1.498.02 3-.038 4.495.03.908 1.112-1.8.173-2.504.4-1.174-.28-4.03.6-2.334 1.95 1.35-.553 2.635-.91 4.133-.314 1.526.333 3.022.804 4.472 1.384-.36 1.396 2.677 1.572 2.255.074.14-.48 1.148-.106 1.656-.224 1.142.053 2.317-.13 3.43.147.297.49 1.764 1.084.31 1.053.04 1.774 2.092 1.946 3.436 1.972 1.074.105 3.093.304 3.014 1.732.444 1.62-1.23 2.376-2.25 2.48-.098.93-1.316.897-1.803 1.655-.44.51-1.205.156-1.797.26-.43.846-1.43 1.007-2.184 1.467-.74.148.254 1.42-1.007 1.107-1.042.2-2.308 1.06-3.567 1.27-1 .656-2.303.592-3.334 1.24-1.283.557-2.605 1.363-3.99 1.646-1.316.52-2.045 1.197-3.488 1.48-.87.3-1.566.82-2.53.704-.628.148-1.55-.238-1.815.548-.985.546-2.032 1.125-3.125 1.185-.966.07-2.01-.224-2.866.348-.493.324-1.37.32-1.3 1.082-.268.96-.955 1.158-1.85 1.306l-1.057.264zm-56.85 74.55c4.178-2.104 2.93-8.848 6.23-12.062 3.2-2.196 4.866-.127 4.252-4.625 1.242-3.086 1-9.57 4.67-9.413-3.052 3.52-2.883 4.422-1.378 7.315-2.95 2.42-1.807 7.877-6.722 9.035-.173 1.546-5.193 2.958-1.58 5.03-2.75 7.355-2.218 3.078-7.113 8.766.001 3.083 1 7.756-3.158 11.705-1.956 2.953-2.246 9.665 1.2 2.288 3.164-4.277 5.376-6.9 6.9-11.588 3.523 1.977.58-4.774 3.7-4.98-.063.9-.47 5.812-3.4 8.13 1.98 2.71-4.54 6.447.75 5.1.83-4.28 3.226-2.245 5.958-8.04 1.34-4.353 6.14-6.62 6.792-11.46 3.624-4.34 4.117-5.81 2.287.432 3.612-1.378 3.155-9.216 5.942-10.6-1.262 2.654 1.96 5.077-.43 7.328-1.75 2.766-3.232 9.58.287 3.92-.322-4.078 3.48-4.802 3.463-8.57 2.045-3.076 3.59-6.958 5.167-11.056 2.2-5.4 4.233-9.703 6.988-14.683 1.834-2.662 4.962-2.587 8.483-2.61 2.48-2.362 8.125-1.922 8.312-5.25-5.302 1.35-10.896 2.277-15.3 4.05 1.998-3.577 6.515-1.432 8.1-5.25 3.027 2.843 4.785-3.665 4.664.082 1.663 4.78 5.664-6.224 5.086-.382 5.113-1.234 6.784-3.556 1.2-.9-3.636-4.502 4.513-5.694 8.85-7.05 2.84.973 15.872-4.77 6.75 0-3.507-.7-3.887 3.074-7.35 3.3-6.154 5.056 3.846-1.232 3.45 3.6 2.357-.732-.93-3.42 4.5-4.05 3.295-2.558 2.895-2.2 7.025-3.927 2.332-1.636 3.19 1.227 6.475-1.473.73-7.52-7.2 3.035-4.35-3 3-1.407 7.934-5.68 10.2-5.55-1.43 3.342-5.45 1.602-5.175 7.444 3.214-.65 5.67-3.35 6.31-3.994 1.902.038.578 4.885 3.214.15.08-3.375 3.89-1.43 4.8-6.6-2.88-1.023-1.936 2.523-3.256.136-7.514 3.815 2.713-3.187 5.616-3.3 4.736-.988 9.41-8.76 11.888-7.498-2.943 4.2-12.974 7.75-12.767 10.812 2.585.138 6.783-3.167 9.47-4.8 2.13-3.426 5.524-4.916 7.815-8.403 2.18-3.564 3.748-8.535 3.718-12.872-.7-3.525-1.455-6.523-3.433-9.625.74-3.782-6.12-2.54-5.4-6.3-3.756-.388-7.268-6.02-9.9-5.25-3 .378-4.227-3.228-3.805-3.1-5.362-.925-10.707-4.938-14.233-3.462-2.912.073-8.042-3.28-12.262-3.488-7.474 1.735-1.458-5.332-.9-9 2.4-4.416 4.054-10.44 5.962-15.543-1.336-1.802 3.12-5.4 3.038-8.035-.6-2.708-6.367 7.66-8.534 10.72-4.457 4.06-6.298 9.136-9.016 11.507 2.833-3.78 1.535-6.962-.563-1.106-2.447 3.712-1.066 2.66-2.908 1.45-.624 3.672-2.876 6.224-1.03.705 2.404-5.685 5.294-11.393 7.35-17.4-4.252 4.186-8.134 11.056-10.05 17.1-.745 3.462-5.148 10.565-2.893 3.04-2.217-.127.96-6.956 2.705-8.682-1.093-2.075-3.635 4.315-5.212 5.643-.386 3.36-2.31 3.602-3.75 7.05-6.21 2.64-11.66 1.415-18.107 2.312-6.593.113-12.858 1.545-19.543 1.288-5.598 1.85-12.208 1.9-17.55 3.75-4.293.096-8.248 2.136-12.45 2.25-9.117 3.068 7.405.607 10.8 1.125 4.867.05 20.902-.728 9.246 1.307-4.66 1.274-8.287 1.514-13.07 2.33-2.92 3.526 4.585 1.226 7.137 2.576 5.43.727 11.505-.704 16.863 1.174 3.095-1.878 9.607 3.08 1.725 1.087-2.712 1.88 7.534.263 4.65 3.15-4.377.703-5.966-.595-3.668 2.693-3.893-2.407-13.315 2.57-4.263 1.507 5.65.263 17.223-1.994 19.03 2.213-2.5 3.37-3.427 7.898-5.232 11.122-2.813 5.19-5.22 11.45-7.368 16.237-1.096 3.88-5.285 6.608-4.65 11.678-2.195 2.75-3.477 6.748-7.2 7.332-3.737 1.338-7.524 1.617-11.4 4.218-2.898.09-7.728 2.834-11.036 3.3-3.728 2.22-10.566 1.718-13.31 5.548-3.37.9-7.42 1.087-11.055 2.702 3.013.834 6.56-.586 9.375.225 2.185 2.662 8.61-.353 12.16-.375 6.498-.29-2.244 1.035-2.636 2.25-3.08.097-7.3 1.587-11.176 1.995-5.266.37-8.434 2.885-14.624 2.055-2.906 1.86 6.068.784-.523 1.684-2.902.415-15.42.538-7.877 1.466 5.102-1.49 9.376.892 14.85-.6 3.89.51 9.53.432 14.25-.6 3.48.15 7.174-.55 10.05-.15 5.872-3.336-2.428 2.36 3.9.45 2.26.53 2.48-4.74 3.47-.243 3.015 1 1.316-3.828 3.58-2.157 4.495-.654 7.927-.842 4.5 4.5-2.54 4.672-4.77 9.946-7.05 14.25-.912 5.07-3.945 9.702-5.85 13.95-1.872 4.04-3.82 8.372-5.624 11.787.51 3.805-1 6.105-2.097 9.85-.667 3.265-2.685 4.825-2.28 7.51-2.625 7.297 1.792-.385 4.9-4.098 2.552-5.284 6.848-9.018 9.3-13.95 3.97-2.768 3.83-7.974 6.067-10.946l-.067-.304.15-.3z" fill="#00f1ff"/></g><g filter=""><path d="M598.562 300.385c-4.434 2.06-7.33 6.97-10.87 10.35-21.696 25.1-41.145 52.048-60.38 79.05-3.603-5.783-4.754 3.083-4.35 6.3-6.26 8.726-11.986 17.82-17.977 26.726-3.17 2.868-5.85 12.607 1.477 9.8 7.135-6.9 12.273-15.504 18.3-23.326 1.507 5.798 3.44 11.508 6.043 16.9 2.326 4.222 6.668 13.975 11.957 11.6-2.564-11.26-6.243-22.293-9.3-33.45 11.387-5.323 21.707-12.814 31.125-21.113 1.95-1.266 9.602-9.21 3.047-6.235-12.645 6.445-23.942 15.21-35.223 23.748 1.664-5.497 7.153-10.396 10.35-15.6 17.345-23.63 34.484-47.473 49.845-72.453 2.06-4.018 5.207-7.855 5.955-12.297zm-301.824 6.85c-5.86.074-11.813 1.314-17.406 2.57C259.005 315.8 238.88 325 223.62 340.03c-5.744 4.507-9.49 16.267.76 17.518 18.376 3.257 37.09.317 55.6-.067 14.087-.193 28.664-1.434 42.304 2.754 8.13 2.444 5.474 12.403 1.635 17.47-14.575 21.1-37.484 34.362-59.685 46.13-23.824 11.65-48.357 22.51-74.262 28.574-5.77.667-19.107 4.892-18.56-4.664 3.313-11.774 12.343-20.8 19.133-30.66 6.743-8.322-2.87-1.7-5.412 1.55-8.788 9.082-19.404 18.918-20.2 32.35.393 9.41 11.607 10.9 18.976 10.346 17.48-1.805 34.258-7.676 50.805-13.332 26.33-9.853 52.156-22.044 74.662-39.068 12.23-9.475 25.347-21.9 25.588-38.508-.24-10.274-10.726-15.904-19.73-17.238-15.702-3.265-31.802-2.24-47.713-1.938-12.637-.154-25.526.73-37.944-1.975.897-5.398 10.415-10.657 15.756-14.642 17.404-10.692 36.548-21.32 57.535-21.238 11.914.166 2.416 12.268-2.785 15.492-5.778 3.977-.5 2.46 2.776.3 7.436-2.608 17.13-13.75 7.17-19.463-4.226-1.897-8.726-2.544-13.283-2.487zm177.813 47.317c-.404.026-.806.08-1.2.158-1.03.275-2.1.48-3.03 1.03-1.634.853-2.932 2.227-3.902 3.776-.892 1.354-.93 3.165-.2 4.593.442.937 1.45 1.367 2.397 1.602.743.226 1.518.262 2.287.19 1.47-.028 2.9-.487 4.182-1.19 1.702-1 3.12-2.5 4.03-4.25.515-1.132.894-2.465.412-3.676-.295-.676-.778-1.3-1.44-1.637-1.103-.5-2.337-.675-3.55-.595zm-51.05 21.13c-2.84-.132-5.763 1.68-7.723 3.646-3.69 4.237-6.103 9.464-10.017 13.54-7.722 8.3-16.772 15.213-25.698 22.15-2.422 2.107-5.33 3.7-7.455 6.1 2.6.304 5.518-2.25 8.024-3.385 9.02-5.222 17.92-10.815 25.728-17.76-.686 5.344-1.387 10.69-2.336 15.993-1.43 5.06-4.933 9.572-9.43 12.29-3.667 2.184-8.164 2.02-12.084.666-2.837-1.356-1.028 1.423.545 1.736 3.243 2.203 7.225 3.37 11.138 2.637 6.917-.906 13.04-5.434 16.317-11.538 3.133-4.96 3.918-10.842 5.638-16.34 1.7-5.703 3.262-11.725 7.04-16.453 2.425-2.165 5.836-4.514 5.524-8.194-.092-1.703-1.038-3.297-2.438-4.256a5.77 5.77 0 0 0-2.773-.845zm199.89.353c-.17.001-.375.032-.618.098-8.157 4.627-14.462 11.89-21.76 17.72-11.956 11.382-25.288 21.123-38.99 30.28 8.507-13.01 16.665-26.604 28.202-37.2 6.486-4.14-1.596-2.942-4.4-.8-13.652 8.367-25.39 20.48-32.312 35.008-3.824 5.078-2.546 17.124 6.074 11.907 11.383-8.3 21.287-18.417 32.14-27.375-9.014 13.032-17.615 26.36-27.47 38.792-18.696 23.017-38.79 46.316-65.635 60.012-5.806 3.958-17.053 5.4-20.408 9.082 11.714.515 23.18-3.817 33.412-9.187 25.65-13.642 45.908-35.137 63.477-57.885 15.534-20.71 30.85-41.615 45.423-63.014.092-.707 5.404-7.468 2.868-7.45zm-120.696 3.676c-.867-.026-1.733.066-2.535.258-6.735 1.29-12.565 5.217-18.12 9.037-10.422 7.505-19.64 17.233-24.764 29.146-1.342 3.7-2.832 8.12-.935 11.897 2.3 4.307 7.974 5.01 12.27 3.795 6.798-1.938 12.93-5.608 18.787-9.48 9.48-6.545 18.166-14.247 25.96-22.72 2.203-2.84-2.434.224-3.207 1.19-2.577 2.145-5.518 3.777-8.158 5.838-4.97 3.356-9.887 6.82-15.037 9.906-6.736 3.932-13.9 7.668-21.785 8.494-1.166-1.03 1.026-4.62 1.818-6.54 3.717-6.65 8.93-12.334 14.293-17.69 5.3-4.89 10.547-9.895 16.46-14.05 1.278-.685 5.513-3.703 5.154-1.4-1.736 6.687-6.76 11.897-11.876 16.26-.904 1.13-5.244 2.923-3.667 3.752 6.418-2.864 12.254-7.093 17.038-12.246 2.627-3.204 5.737-7.29 4.468-11.687-.95-2.562-3.563-3.686-6.164-3.764zm-41.972.922c-1.083-.04-2.72.693-3.22 1.556-8.884 7.742-16.81 16.526-24.313 25.594-4.154 5.45-8.384 10.96-11.298 17.2-.942 2.492-2.806 6.122-.364 8.286 1.704 1.626 4.19 1.154 6.037.09 3.912-2.335 6.804-5.974 10.233-8.922 8.555-8.132 18.507-14.603 27.146-22.636 2.216-1.718-1.495-.917-2.203.133-1.437.788-2.858 1.607-4.26 2.457-6.874 4.385-13.776 8.75-20.34 13.593 7.4-12.09 16.4-23.138 23.302-35.55.63-1.27.122-1.77-.72-1.802zm-70.703.535c-.862-.01-1.765.364-2.383 1.293-8.122 6.217-15.975 12.784-23.854 19.305-9.726 8.325-19.578 16.572-30.428 23.418 8.366-12.48 16.237-25.435 26.55-36.45 1.756-2.053 4.712-3.66 6-5.7-3.225-.365-6.252 1.618-9.03 3.055-8.867 5.764-16.665 13.173-23.053 21.594-3.51 4.92-7.047 9.99-8.974 15.77-.816 2.872-1.725 6.79 1.007 8.93 2.692 2.083 6.006.073 8.297-1.64 10.8-8.198 20.33-17.885 30.854-26.408-3.555 4.526-7.117 9.084-9.95 14.11-1.66 3.503-4.395 6.86-4.358 10.9 0 3.288 4.132 5.62 6.807 3.5 3.434-2.424 6.383-5.468 9.515-8.264 6.14-5.886 12.965-10.97 19.612-16.256 2.18-2.247 5.715-3.776 7.02-6.53-.987-.385-2.042.538-2.937.877-6.967 4-13.612 8.535-20.125 13.223-1.087.62-5.142 4.123-4 2.244 7.768-11.458 16.637-22.114 25.057-33.088 1.973-1.965.277-3.85-1.62-3.87z" fill="#920058"/></g><defs><filter id="A" x=".295" y="0" width="817.41" height="714.923" filterUnits="userSpaceOnUse" class="B"><feFlood result="A" class="C"/><feColorMatrix in="SourceAlpha" values="0 0 0 0 0 0 0 0 0 0 0 0 0 0 0 0 0 0 127 0"/><feOffset/><feGaussianBlur stdDeviation="25"/><feColorMatrix values="0 0 0 0 0.607843 0 0 0 0 0 0 0 0 0 0.909804 0 0 0 1 0"/><feBlend in2="A"/><feBlend in="SourceGraphic"/></filter><filter id="B" x="100" y="144" width="633" height="258" filterUnits="userSpaceOnUse" class="B"><feFlood result="A" class="C"/><feColorMatrix in="SourceAlpha" values="0 0 0 0 0 0 0 0 0 0 0 0 0 0 0 0 0 0 127 0"/><feOffset dx="-4"/><feGaussianBlur stdDeviation="2"/><feColorMatrix values="0 0 0 0 0 0 0 0 0 0 0 0 0 0 0 0 0 0 1 0"/><feBlend in2="A"/><feBlend in="SourceGraphic"/></filter><filter id="C" x="131" y="257" width="525" height="300" filterUnits="userSpaceOnUse" class="B"><feFlood result="A" class="C"/><feColorMatrix in="SourceAlpha" values="0 0 0 0 0 0 0 0 0 0 0 0 0 0 0 0 0 0 127 0"/><feOffset/><feGaussianBlur stdDeviation="12.5"/><feColorMatrix values="0 0 0 0 1 0 0 0 0 0.14902 0 0 0 0 0.662745 0 0 0 1 0"/><feBlend in2="A" result="B"/><feColorMatrix in="SourceAlpha" values="0 0 0 0 0 0 0 0 0 0 0 0 0 0 0 0 0 0 127 0"/><feOffset/><feGaussianBlur stdDeviation="7.5"/><feColorMatrix values="0 0 0 0 0.729412 0 0 0 0 0.00784314 0 0 0 0 0.443137 0 0 0 0.9 0"/><feBlend in2="B" result="C"/><feColorMatrix in="SourceAlpha" values="0 0 0 0 0 0 0 0 0 0 0 0 0 0 0 0 0 0 127 0"/><feOffset dx="2" dy="2"/><feGaussianBlur stdDeviation="1"/><feColorMatrix values="0 0 0 0 0 0 0 0 0 0 0 0 0 0 0 0 0 0 0.7 0"/><feBlend in2="C"/><feBlend in="SourceGraphic"/></filter><linearGradient id="D" x1="409" y1="55" x2="409" y2="655" gradientUnits="userSpaceOnUse"><stop stop-color="#ff019a" stop-opacity=".5"/><stop offset="1" stop-color="#9b00e8" stop-opacity=".5"/></linearGradient><linearGradient id="E" x1="409.3" y1="83" x2="409.3" y2="603" gradientUnits="userSpaceOnUse"><stop stop-color="#ff019a"/><stop offset=".526" stop-color="#9b00e8"/></linearGradient></defs></svg>